<?xml version="1.0" encoding="utf-8"?>
<!-- Generator: Adobe Illustrator 23.0.6, SVG Export Plug-In . SVG Version: 6.00 Build 0)  -->
<svg version="1.1" id="Layer_1" xmlns="http://www.w3.org/2000/svg" xmlns:xlink="http://www.w3.org/1999/xlink" x="0px" y="0px"
	 viewBox="0 0 180.71 25.66" style="enable-background:new 0 0 180.71 25.66;" xml:space="preserve">
<style type="text/css">
	.st0{fill:#F68B1E;}
</style>
<g>
	<path class="st0" d="M8.64,5.78v10.17c0,0.17,0.01,0.34,0.04,0.49c0.02,0.15,0.08,0.28,0.16,0.38c0.08,0.11,0.2,0.19,0.36,0.25
		c0.16,0.06,0.36,0.09,0.63,0.09h0.88l0.62,0.62v1.25l-0.62,0.62h-0.49c-0.77,0-1.4-0.11-1.88-0.34c-0.48-0.22-0.85-0.53-1.11-0.92
		C6.96,18,6.78,17.55,6.69,17.02c-0.09-0.52-0.14-1.08-0.14-1.66V5.78H8.64z"/>
	<path class="st0" d="M15.03,15.55c0,0.59-0.05,1.13-0.16,1.64c-0.11,0.5-0.3,0.94-0.59,1.3c-0.29,0.36-0.68,0.64-1.18,0.85
		c-0.5,0.21-1.13,0.31-1.91,0.31h-0.5l-0.62-0.62v-1.25l0.62-0.62h0.9c0.55,0,0.91-0.11,1.08-0.34c0.17-0.22,0.26-0.52,0.26-0.88
		v-5.53h2.09V15.55z M11.25,21.88c0-0.31,0.11-0.58,0.33-0.8c0.22-0.22,0.48-0.34,0.79-0.34c0.32,0,0.6,0.11,0.82,0.34
		c0.22,0.22,0.34,0.49,0.34,0.8c0,0.32-0.11,0.59-0.34,0.8C12.97,22.9,12.7,23,12.38,23c-0.31,0-0.58-0.11-0.79-0.32
		C11.36,22.47,11.25,22.21,11.25,21.88z"/>
	<path class="st0" d="M25.1,16.89c0,1.2-0.14,2.21-0.43,3.06c-0.29,0.84-0.7,1.53-1.24,2.07c-0.54,0.54-1.2,0.94-1.97,1.19
		c-0.77,0.25-1.64,0.37-2.62,0.37l-0.3-2.49c1.1,0,1.96-0.12,2.6-0.35c0.64-0.23,1.1-0.6,1.38-1.11h-0.86
		c-0.92,0-1.69-0.08-2.31-0.25c-0.62-0.17-1.11-0.4-1.47-0.69c-0.36-0.29-0.62-0.64-0.77-1.04c-0.15-0.4-0.22-0.83-0.22-1.29
		c0-0.64,0.12-1.3,0.37-1.98c0.25-0.68,0.58-1.31,0.98-1.87c0.4-0.56,0.86-1.02,1.37-1.38c0.51-0.36,1.03-0.54,1.55-0.54
		c0.6,0,1.14,0.18,1.63,0.55c0.49,0.37,0.9,0.85,1.23,1.45c0.34,0.6,0.6,1.27,0.78,2.03C25.01,15.38,25.1,16.13,25.1,16.89z
		 M18.99,16.02c0,0.19,0.04,0.35,0.13,0.49c0.09,0.14,0.24,0.26,0.47,0.36c0.22,0.1,0.53,0.17,0.92,0.22
		c0.39,0.05,0.89,0.07,1.5,0.07h0.97c0-0.57-0.06-1.11-0.18-1.6c-0.12-0.49-0.27-0.92-0.47-1.29c-0.19-0.37-0.41-0.66-0.65-0.87
		c-0.24-0.21-0.48-0.32-0.72-0.32c-0.22,0-0.45,0.09-0.69,0.26c-0.24,0.17-0.45,0.4-0.64,0.68c-0.19,0.28-0.34,0.59-0.47,0.94
		C19.05,15.32,18.99,15.67,18.99,16.02z"/>
	<path class="st0" d="M31.68,17.98c0,0.95-0.1,1.79-0.29,2.52c-0.19,0.73-0.5,1.35-0.93,1.86c-0.42,0.5-0.97,0.89-1.64,1.15
		c-0.67,0.26-1.49,0.39-2.47,0.39l-0.19-2.47c0.73,0,1.33-0.08,1.78-0.23c0.45-0.16,0.79-0.4,1.04-0.72
		c0.24-0.32,0.4-0.74,0.49-1.26c0.08-0.52,0.12-1.14,0.12-1.88v-6.93h2.09V17.98z"/>
	<path class="st0" d="M41.75,16.89c0,1.2-0.14,2.21-0.43,3.06c-0.29,0.84-0.7,1.53-1.24,2.07c-0.54,0.54-1.2,0.94-1.97,1.19
		c-0.77,0.25-1.64,0.37-2.62,0.37l-0.3-2.49c1.1,0,1.96-0.12,2.6-0.35c0.64-0.23,1.1-0.6,1.38-1.11h-0.86
		c-0.92,0-1.69-0.08-2.31-0.25c-0.62-0.17-1.11-0.4-1.47-0.69c-0.36-0.29-0.62-0.64-0.77-1.04c-0.15-0.4-0.22-0.83-0.22-1.29
		c0-0.64,0.12-1.3,0.37-1.98c0.25-0.68,0.58-1.31,0.98-1.87c0.4-0.56,0.86-1.02,1.37-1.38c0.51-0.36,1.03-0.54,1.55-0.54
		c0.6,0,1.14,0.18,1.63,0.55c0.49,0.37,0.9,0.85,1.23,1.45c0.34,0.6,0.6,1.27,0.78,2.03C41.66,15.38,41.75,16.13,41.75,16.89z
		 M35.64,16.02c0,0.19,0.04,0.35,0.13,0.49c0.09,0.14,0.24,0.26,0.47,0.36c0.22,0.1,0.53,0.17,0.92,0.22
		c0.39,0.05,0.89,0.07,1.5,0.07h0.97c0-0.57-0.06-1.11-0.18-1.6c-0.12-0.49-0.27-0.92-0.47-1.29c-0.19-0.37-0.41-0.66-0.65-0.87
		c-0.24-0.21-0.48-0.32-0.72-0.32c-0.22,0-0.45,0.09-0.69,0.26c-0.24,0.17-0.45,0.4-0.64,0.68c-0.19,0.28-0.34,0.59-0.47,0.94
		C35.7,15.32,35.64,15.67,35.64,16.02z"/>
	<path class="st0" d="M47.93,5.05c-0.14,0.37-0.26,0.65-0.36,0.82c-0.11,0.17-0.2,0.29-0.29,0.34c-0.06,0.04-0.18,0.07-0.35,0.09
		c-0.17,0.03-0.47,0.04-0.9,0.04c-0.29,0-0.6,0-0.95-0.01c-0.35-0.01-0.68-0.02-1-0.03c-0.37-0.01-0.74-0.02-1.11-0.04V4.84h0.8
		c-0.1-0.15-0.18-0.31-0.23-0.47c-0.06-0.16-0.08-0.36-0.08-0.6c0-0.25,0.06-0.5,0.18-0.75c0.12-0.25,0.28-0.47,0.5-0.66
		c0.21-0.19,0.46-0.35,0.76-0.48c0.29-0.12,0.61-0.19,0.94-0.19c0.26,0,0.52,0.03,0.78,0.09c0.26,0.06,0.5,0.17,0.72,0.32
		l-0.56,1.51c-0.24-0.1-0.44-0.17-0.62-0.21c-0.17-0.04-0.36-0.06-0.54-0.06c-0.21,0-0.37,0.05-0.49,0.14
		C45,3.6,44.94,3.71,44.94,3.83c0,0.25,0.1,0.45,0.3,0.62c0.2,0.16,0.48,0.24,0.84,0.24c0.24,0,0.54-0.01,0.92-0.04
		c0.38-0.02,0.75-0.07,1.11-0.13L47.93,5.05z M44.35,19.64V7.27h2.09v12.37H44.35z"/>
	<path d="M58.72,7.68h0.91v8.89h1.74l0.27,0.27v0.54l-0.27,0.27h-1.81c-0.17,1.02-0.56,1.81-1.16,2.36c-0.6,0.55-1.5,0.83-2.68,0.83
		c-0.59,0-1.12-0.09-1.59-0.28s-0.87-0.46-1.19-0.81c-0.33-0.35-0.58-0.77-0.76-1.26c-0.18-0.49-0.27-1.05-0.27-1.66
		c0-0.27,0.01-0.57,0.04-0.89c0.03-0.33,0.08-0.67,0.17-1.03l0.89,0.16c-0.07,0.31-0.12,0.6-0.15,0.85
		c-0.03,0.26-0.04,0.51-0.04,0.77c0,1.06,0.24,1.83,0.72,2.33c0.48,0.5,1.24,0.74,2.27,0.74c0.48,0,0.91-0.05,1.27-0.15
		c0.36-0.1,0.66-0.28,0.91-0.52c0.24-0.25,0.42-0.57,0.54-0.97c0.12-0.4,0.18-0.9,0.18-1.5V7.68z"/>
	<path d="M66.38,16.57l0.27,0.27v0.54l-0.27,0.27h-4.99l-0.27-0.27v-0.54l0.27-0.27h0.4c0.62,0,1.04-0.12,1.28-0.35
		c0.24-0.23,0.36-0.61,0.36-1.13v-3.42h0.91v3.25c0,0.43-0.03,0.77-0.1,1.03c-0.07,0.26-0.19,0.47-0.37,0.62H66.38z M62.54,19.12
		c0-0.19,0.06-0.35,0.19-0.48c0.13-0.13,0.29-0.2,0.48-0.2s0.35,0.07,0.48,0.2c0.13,0.13,0.2,0.3,0.2,0.48s-0.07,0.35-0.2,0.48
		c-0.13,0.13-0.3,0.19-0.48,0.19s-0.35-0.07-0.48-0.19C62.6,19.46,62.54,19.3,62.54,19.12z"/>
	<path d="M68.75,16.57c0.71,0,1.29-0.06,1.74-0.19c0.45-0.13,0.77-0.35,0.96-0.66c-0.11,0.04-0.23,0.08-0.37,0.11
		c-0.14,0.03-0.28,0.05-0.43,0.07c-0.15,0.02-0.3,0.04-0.45,0.05c-0.15,0.01-0.29,0.01-0.4,0.01c-0.47,0-0.87-0.05-1.2-0.15
		c-0.33-0.1-0.59-0.24-0.8-0.42c-0.21-0.18-0.36-0.4-0.45-0.66c-0.09-0.26-0.14-0.55-0.14-0.89c0-0.43,0.08-0.85,0.23-1.28
		c0.15-0.42,0.35-0.79,0.6-1.12c0.25-0.33,0.54-0.59,0.86-0.8c0.32-0.21,0.65-0.31,0.99-0.31c0.44,0,0.83,0.12,1.17,0.36
		c0.34,0.24,0.63,0.55,0.87,0.93c0.23,0.38,0.41,0.82,0.54,1.3c0.13,0.48,0.19,0.97,0.19,1.45c0,0.6-0.1,1.11-0.29,1.52
		c-0.19,0.42-0.47,0.75-0.85,1.01c-0.37,0.26-0.82,0.45-1.36,0.56c-0.53,0.12-1.14,0.17-1.82,0.17h-1.97l-0.27-0.27v-0.54l0.27-0.27
		H68.75z M68.07,8.45c0-0.19,0.06-0.35,0.19-0.48c0.13-0.13,0.29-0.2,0.48-0.2s0.35,0.07,0.48,0.2c0.13,0.13,0.2,0.3,0.2,0.48
		s-0.07,0.35-0.2,0.48c-0.13,0.13-0.3,0.19-0.48,0.19s-0.35-0.06-0.48-0.19C68.13,8.79,68.07,8.63,68.07,8.45z M70.16,14.88
		c0.1,0,0.22,0,0.36-0.01c0.14-0.01,0.28-0.02,0.43-0.03c0.15-0.01,0.29-0.03,0.43-0.05c0.14-0.02,0.26-0.05,0.37-0.07v-0.08
		c0-0.4-0.05-0.8-0.15-1.18c-0.1-0.38-0.24-0.73-0.42-1.03c-0.18-0.3-0.39-0.55-0.64-0.73c-0.25-0.18-0.53-0.28-0.83-0.28
		c-0.21,0-0.42,0.07-0.6,0.2c-0.19,0.13-0.36,0.31-0.5,0.52c-0.15,0.21-0.26,0.45-0.35,0.7c-0.09,0.26-0.13,0.51-0.13,0.77
		c0,0.22,0.03,0.42,0.09,0.58c0.06,0.16,0.17,0.3,0.32,0.4c0.16,0.11,0.37,0.19,0.63,0.23C69.42,14.85,69.76,14.88,70.16,14.88z
		 M70.03,8.45c0-0.19,0.06-0.35,0.19-0.48c0.13-0.13,0.28-0.2,0.46-0.2c0.2,0,0.36,0.07,0.5,0.2c0.13,0.13,0.2,0.3,0.2,0.48
		s-0.07,0.35-0.2,0.48c-0.13,0.13-0.3,0.19-0.5,0.19c-0.18,0-0.33-0.06-0.46-0.19C70.09,8.79,70.03,8.63,70.03,8.45z"/>
	<path d="M83.49,11.67h0.91v4.9h1.74l0.27,0.27v0.54l-0.27,0.27h-1.81c-0.17,1.02-0.56,1.81-1.16,2.36c-0.6,0.55-1.5,0.83-2.68,0.83
		c-0.59,0-1.12-0.09-1.59-0.28s-0.87-0.46-1.19-0.81c-0.33-0.35-0.58-0.77-0.76-1.26c-0.18-0.49-0.27-1.05-0.27-1.66
		c0-0.27,0.01-0.57,0.04-0.89c0.03-0.33,0.08-0.67,0.17-1.03l0.89,0.16c-0.07,0.31-0.12,0.6-0.15,0.85
		c-0.03,0.26-0.04,0.51-0.04,0.77c0,1.06,0.24,1.83,0.72,2.33c0.48,0.5,1.24,0.74,2.27,0.74c0.48,0,0.91-0.05,1.27-0.15
		c0.36-0.1,0.66-0.28,0.91-0.52c0.24-0.25,0.42-0.57,0.54-0.97c0.12-0.4,0.18-0.9,0.18-1.5V11.67z M79.62,11.18
		c0-0.19,0.06-0.35,0.19-0.48c0.13-0.13,0.29-0.2,0.48-0.2s0.35,0.07,0.48,0.2c0.13,0.13,0.2,0.3,0.2,0.48
		c0,0.19-0.07,0.35-0.2,0.48c-0.13,0.13-0.3,0.19-0.48,0.19s-0.35-0.06-0.48-0.19C79.69,11.53,79.62,11.37,79.62,11.18z"/>
	<path d="M85.87,17.37v-0.54l0.28-0.27c0.39,0,0.68-0.08,0.85-0.23c0.17-0.16,0.33-0.39,0.46-0.7c0.3-0.71,0.58-1.3,0.84-1.79
		c0.26-0.49,0.51-0.88,0.77-1.18c0.26-0.3,0.51-0.52,0.78-0.65c0.26-0.13,0.56-0.2,0.88-0.2c0.34,0,0.66,0.1,0.97,0.31
		c0.3,0.21,0.57,0.48,0.79,0.82c0.22,0.34,0.4,0.73,0.53,1.17c0.13,0.44,0.19,0.9,0.19,1.36c0,0.69-0.2,1.23-0.59,1.63
		c-0.39,0.4-1.05,0.6-1.97,0.6c-0.55,0-1.05-0.05-1.49-0.16c-0.44-0.11-0.89-0.3-1.36-0.58c-0.18,0.23-0.39,0.4-0.62,0.52
		c-0.24,0.11-0.58,0.17-1.03,0.17L85.87,17.37z M90.56,12.88c-0.17,0-0.33,0.04-0.49,0.13c-0.16,0.09-0.32,0.25-0.49,0.47
		c-0.17,0.22-0.35,0.53-0.55,0.91c-0.2,0.38-0.42,0.87-0.66,1.46c0.41,0.26,0.82,0.45,1.23,0.58c0.41,0.13,0.87,0.19,1.38,0.19
		c0.53,0,0.88-0.07,1.05-0.21c0.17-0.14,0.26-0.37,0.26-0.68c0-0.36-0.04-0.71-0.13-1.05c-0.09-0.34-0.21-0.64-0.36-0.91
		c-0.15-0.27-0.34-0.48-0.55-0.64C91.03,12.96,90.8,12.88,90.56,12.88z"/>
	<path d="M103.9,11.67h0.91v4.9h1.74l0.27,0.27v0.54l-0.27,0.27h-1.81c-0.17,1.02-0.56,1.81-1.16,2.36c-0.6,0.55-1.5,0.83-2.68,0.83
		c-0.59,0-1.12-0.09-1.59-0.28s-0.87-0.46-1.19-0.81c-0.33-0.35-0.58-0.77-0.76-1.26c-0.18-0.49-0.27-1.05-0.27-1.66
		c0-0.27,0.01-0.57,0.04-0.89c0.03-0.33,0.08-0.67,0.17-1.03l0.89,0.16c-0.07,0.31-0.12,0.6-0.15,0.85
		c-0.03,0.26-0.04,0.51-0.04,0.77c0,1.06,0.24,1.83,0.72,2.33c0.48,0.5,1.24,0.74,2.27,0.74c0.48,0,0.91-0.05,1.27-0.15
		c0.36-0.1,0.66-0.28,0.91-0.52c0.24-0.25,0.42-0.57,0.54-0.97c0.12-0.4,0.18-0.9,0.18-1.5V11.67z M100.04,11.18
		c0-0.19,0.06-0.35,0.19-0.48c0.13-0.13,0.29-0.2,0.48-0.2s0.35,0.07,0.48,0.2c0.13,0.13,0.2,0.3,0.2,0.48
		c0,0.19-0.07,0.35-0.2,0.48c-0.13,0.13-0.3,0.19-0.48,0.19s-0.35-0.06-0.48-0.19C100.1,11.53,100.04,11.37,100.04,11.18z"/>
	<path d="M106.56,17.64l-0.27-0.27v-0.54l0.27-0.27h7.49c-0.27-0.73-0.57-1.35-0.91-1.84c-0.34-0.49-0.69-0.89-1.05-1.18
		c-0.37-0.3-0.75-0.5-1.14-0.62c-0.39-0.12-0.78-0.18-1.17-0.18c-0.23,0-0.49,0.04-0.78,0.13c-0.29,0.09-0.58,0.23-0.87,0.44
		l-0.51-0.91c0.4-0.29,0.79-0.48,1.17-0.58c0.38-0.1,0.75-0.15,1.13-0.15c0.48,0,0.97,0.09,1.45,0.26c0.48,0.17,0.95,0.45,1.39,0.84
		c0.44,0.39,0.86,0.89,1.24,1.52c0.38,0.62,0.73,1.38,1.03,2.29h1.38l0.27,0.27v0.54l-0.27,0.27H106.56z"/>
	<path d="M116.67,16.57c0.62,0,1.04-0.12,1.28-0.35c0.24-0.23,0.36-0.61,0.36-1.13v-3.42h0.91v3.25c0,0.43-0.03,0.77-0.1,1.03
		c-0.07,0.26-0.19,0.47-0.37,0.62h2.04c0.62,0,1.04-0.12,1.28-0.35c0.24-0.23,0.36-0.61,0.36-1.13v-3.42h0.91v3.25
		c0,0.43-0.03,0.77-0.1,1.03c-0.07,0.26-0.19,0.47-0.37,0.62h1.56c0.62,0,1.04-0.12,1.28-0.35c0.24-0.23,0.36-0.61,0.36-1.13v-3.84
		h0.91v3.66c0,0.43-0.03,0.77-0.1,1.03c-0.07,0.26-0.19,0.47-0.37,0.62h1.83l0.27,0.27v0.54l-0.27,0.27h-11.92l-0.27-0.27v-0.54
		l0.27-0.27H116.67z M121.23,9.65c0-0.19,0.06-0.35,0.19-0.48c0.13-0.13,0.29-0.2,0.48-0.2s0.35,0.07,0.48,0.2
		c0.13,0.13,0.2,0.3,0.2,0.48c0,0.19-0.07,0.35-0.2,0.48c-0.13,0.13-0.3,0.19-0.48,0.19s-0.35-0.06-0.48-0.19
		C121.3,10,121.23,9.84,121.23,9.65z M122.2,7.95c0-0.2,0.07-0.36,0.2-0.5c0.13-0.13,0.29-0.2,0.47-0.2c0.2,0,0.36,0.07,0.5,0.2
		c0.13,0.13,0.2,0.3,0.2,0.5c0,0.18-0.07,0.34-0.2,0.47c-0.13,0.13-0.3,0.2-0.5,0.2c-0.18,0-0.34-0.07-0.47-0.2
		C122.27,8.28,122.2,8.13,122.2,7.95z M123.19,9.65c0-0.19,0.06-0.35,0.19-0.48c0.13-0.13,0.28-0.2,0.46-0.2
		c0.2,0,0.36,0.07,0.5,0.2c0.13,0.13,0.2,0.3,0.2,0.48c0,0.19-0.07,0.35-0.2,0.48c-0.13,0.13-0.3,0.19-0.5,0.19
		c-0.18,0-0.33-0.06-0.46-0.19C123.26,10,123.19,9.84,123.19,9.65z"/>
	<path d="M131.18,15c0,0.42-0.04,0.79-0.13,1.12c-0.09,0.33-0.23,0.6-0.43,0.83c-0.2,0.22-0.47,0.4-0.81,0.52
		c-0.34,0.12-0.76,0.18-1.27,0.18h-0.21l-0.27-0.27v-0.54l0.27-0.27h0.51c0.56,0,0.94-0.12,1.13-0.35c0.19-0.23,0.29-0.58,0.29-1.05
		v-3.5h0.91V15z M128.08,19.12c0-0.19,0.07-0.35,0.19-0.48s0.29-0.2,0.48-0.2s0.35,0.07,0.48,0.2s0.2,0.3,0.2,0.48
		s-0.07,0.35-0.2,0.48c-0.13,0.13-0.3,0.19-0.48,0.19s-0.35-0.07-0.48-0.19C128.14,19.46,128.08,19.3,128.08,19.12z M130.04,19.12
		c0-0.19,0.06-0.35,0.19-0.48c0.13-0.13,0.28-0.2,0.46-0.2c0.2,0,0.36,0.07,0.5,0.2c0.13,0.13,0.2,0.3,0.2,0.48s-0.07,0.35-0.2,0.48
		c-0.13,0.13-0.3,0.19-0.5,0.19c-0.18,0-0.33-0.07-0.46-0.19C130.1,19.46,130.04,19.3,130.04,19.12z"/>
	<path d="M138.45,15.91c0,0.86-0.1,1.59-0.29,2.19c-0.19,0.6-0.47,1.1-0.83,1.48c-0.36,0.38-0.8,0.67-1.32,0.85
		c-0.52,0.18-1.11,0.27-1.76,0.27l-0.13-1.07c0.93,0,1.65-0.15,2.17-0.46c0.51-0.3,0.87-0.81,1.08-1.53h-1.22
		c-0.64,0-1.15-0.06-1.55-0.17c-0.4-0.12-0.71-0.27-0.93-0.47c-0.22-0.2-0.37-0.42-0.45-0.68c-0.08-0.26-0.12-0.53-0.12-0.81
		c0-0.49,0.08-0.97,0.25-1.44c0.17-0.47,0.38-0.89,0.66-1.26c0.27-0.37,0.58-0.66,0.93-0.88c0.34-0.22,0.69-0.33,1.04-0.33
		c0.39,0,0.74,0.12,1.05,0.37c0.31,0.25,0.57,0.57,0.78,0.97c0.21,0.4,0.37,0.86,0.48,1.38C138.4,14.84,138.45,15.37,138.45,15.91z
		 M134.01,15.22c0,0.2,0.03,0.38,0.08,0.54c0.05,0.16,0.16,0.3,0.33,0.42c0.17,0.12,0.41,0.21,0.72,0.28
		c0.32,0.07,0.74,0.1,1.28,0.1h1.1c0.01-0.04,0.01-0.11,0.01-0.21s0-0.17,0-0.22c0-0.46-0.04-0.89-0.11-1.31
		c-0.08-0.42-0.19-0.79-0.34-1.11c-0.15-0.32-0.33-0.58-0.54-0.77s-0.46-0.28-0.74-0.28c-0.21,0-0.43,0.07-0.64,0.22
		c-0.21,0.15-0.41,0.34-0.58,0.58c-0.17,0.24-0.31,0.51-0.42,0.82C134.06,14.6,134.01,14.91,134.01,15.22z"/>
	<path d="M142.55,19.95c0-0.38,0.05-0.73,0.15-1.04c0.1-0.31,0.27-0.61,0.5-0.89c0.23-0.29,0.52-0.57,0.88-0.85
		c0.36-0.28,0.8-0.57,1.32-0.89c-0.83-0.72-1.43-1.35-1.8-1.88c-0.37-0.53-0.55-0.91-0.55-1.15c0-0.07,0.03-0.17,0.08-0.3
		c0.05-0.13,0.12-0.27,0.2-0.41c0.08-0.14,0.17-0.28,0.26-0.42c0.09-0.13,0.17-0.24,0.24-0.32c0.15-0.18,0.45-0.31,0.91-0.4
		c0.45-0.09,1-0.13,1.63-0.13c1.08,0,1.9,0.14,2.45,0.42c0.55,0.28,0.83,0.72,0.83,1.32c0,0.32-0.05,0.62-0.14,0.91
		c-0.09,0.28-0.23,0.55-0.42,0.81c-0.18,0.26-0.41,0.51-0.69,0.76c-0.28,0.25-0.6,0.5-0.97,0.76c0.33,0.12,0.71,0.2,1.13,0.25
		c0.42,0.05,0.91,0.07,1.48,0.07h0.55l0.27,0.27v0.54l-0.27,0.27h-0.42c-0.83,0-1.56-0.07-2.17-0.2c-0.62-0.13-1.18-0.34-1.69-0.63
		c-0.58,0.3-1.06,0.58-1.42,0.83c-0.37,0.25-0.65,0.49-0.86,0.72c-0.21,0.23-0.35,0.46-0.43,0.69c-0.08,0.23-0.12,0.47-0.12,0.72
		c0,0.28,0.04,0.54,0.13,0.8c0.09,0.26,0.24,0.48,0.44,0.67c0.21,0.19,0.48,0.34,0.81,0.46c0.34,0.11,0.75,0.17,1.24,0.17
		l-0.32,1.01c-0.53,0-0.99-0.08-1.39-0.24c-0.4-0.16-0.73-0.38-1.01-0.64c-0.27-0.27-0.48-0.58-0.62-0.93
		C142.62,20.7,142.55,20.33,142.55,19.95z M144.01,12.94c0,0.1,0.03,0.23,0.1,0.4c0.07,0.17,0.19,0.37,0.36,0.61
		c0.17,0.24,0.41,0.52,0.72,0.85c0.3,0.32,0.69,0.68,1.17,1.09c0.45-0.28,0.82-0.53,1.11-0.77c0.3-0.24,0.53-0.46,0.71-0.67
		c0.18-0.21,0.3-0.41,0.38-0.59c0.07-0.18,0.11-0.36,0.11-0.53c0-0.31-0.21-0.55-0.64-0.72c-0.43-0.17-0.98-0.26-1.67-0.26
		c-0.5,0-0.91,0.02-1.21,0.06c-0.31,0.04-0.55,0.09-0.72,0.15c-0.17,0.06-0.28,0.13-0.34,0.2
		C144.04,12.83,144.01,12.89,144.01,12.94z"/>
	<path d="M155.57,16.57l0.27,0.27v0.54l-0.27,0.27h-4.99l-0.27-0.27v-0.54l0.27-0.27h0.4c0.62,0,1.04-0.12,1.28-0.35
		c0.24-0.23,0.36-0.61,0.36-1.13v-3.42h0.91v3.25c0,0.43-0.03,0.77-0.1,1.03c-0.07,0.26-0.19,0.47-0.37,0.62H155.57z M151.73,19.12
		c0-0.19,0.06-0.35,0.19-0.48c0.13-0.13,0.29-0.2,0.48-0.2s0.35,0.07,0.48,0.2c0.13,0.13,0.2,0.3,0.2,0.48s-0.07,0.35-0.2,0.48
		c-0.13,0.13-0.3,0.19-0.48,0.19s-0.35-0.07-0.48-0.19C151.79,19.46,151.73,19.3,151.73,19.12z"/>
	<path d="M167.89,16.57l0.27,0.27v0.54l-0.27,0.27h-12.32l-0.27-0.27v-0.54l0.27-0.27h1.53V7.68h0.91V15
		c0.38-0.48,0.76-0.94,1.15-1.36c0.39-0.42,0.8-0.79,1.23-1.11c0.42-0.31,0.87-0.56,1.33-0.74c0.46-0.18,0.95-0.27,1.46-0.27
		c1.12,0,1.97,0.42,2.56,1.25c0.59,0.83,0.88,2.1,0.88,3.8H167.89z M163,12.59c-0.81,0-1.63,0.3-2.45,0.89
		c-0.82,0.59-1.67,1.51-2.54,2.77v0.32h7.69c0-1.41-0.23-2.43-0.68-3.05C164.56,12.9,163.89,12.59,163,12.59z"/>
	<path d="M170.74,15c0,0.42-0.04,0.79-0.13,1.12c-0.09,0.33-0.23,0.6-0.43,0.83c-0.2,0.22-0.47,0.4-0.81,0.52
		c-0.34,0.12-0.76,0.18-1.27,0.18h-0.21l-0.27-0.27v-0.54l0.27-0.27h0.51c0.56,0,0.94-0.12,1.13-0.35c0.19-0.23,0.29-0.58,0.29-1.05
		v-3.5h0.91V15z M167.63,19.12c0-0.19,0.07-0.35,0.19-0.48s0.29-0.2,0.48-0.2c0.19,0,0.35,0.07,0.48,0.2s0.2,0.3,0.2,0.48
		s-0.07,0.35-0.2,0.48c-0.13,0.13-0.3,0.19-0.48,0.19c-0.19,0-0.35-0.07-0.48-0.19C167.7,19.46,167.63,19.3,167.63,19.12z
		 M169.59,19.12c0-0.19,0.06-0.35,0.19-0.48c0.13-0.13,0.28-0.2,0.46-0.2c0.2,0,0.36,0.07,0.5,0.2c0.13,0.13,0.2,0.3,0.2,0.48
		s-0.07,0.35-0.2,0.48c-0.13,0.13-0.3,0.19-0.5,0.19c-0.18,0-0.33-0.07-0.46-0.19C169.66,19.46,169.59,19.3,169.59,19.12z"/>
</g>
</svg>
