<svg xmlns="http://www.w3.org/2000/svg" viewBox="0 0 239.80195 282.46116"><title>Asset 2</title><g id="e9725381-2025-4ffe-8d06-f2c76d180b96" data-name="Layer 2"><g id="ed2ef602-6e2f-463b-b800-1e1e09228413" data-name="Layer 1"><polygon points="78.468 121.116 126.41 113.421 132.329 132.362 128.777 171.425 122.267 203.387 104.51 211.673 84.978 199.244 78.468 121.116" fill="#fff"/><path d="M124.0312,85.98548c1.17739-2.51307,2.29478-5.05668,3.55246-7.52891a3.69047,3.69047,0,0,1,4.41431-2.18776,3.65155,3.65155,0,0,1,3.104,3.80813c.10661,3.77177.06323,7.55121.28744,11.31523.22167,3.722-.12944,7.59167,2.226,11.2844,2.1766-2.65737,4.631-6.65845,5.62943.49493.20926,1.49908,1.94458.99076,3.04131,1.01936,2.78508.07269,5.58556.19365,8.35744-.01007,4.67763-.34378,8.40864-.02205,7.29078,6.3621-.4463,2.54893,1.14179,3.162,3.29406,2.08362q3.72095-1.86438,7.33883-3.93267c2.4814-1.41333,5.06613-1.96012,7.01452.46252,2.0651,2.56777.46308,5.07016-1.45616,6.8291a87.47819,87.47819,0,0,1-7.65618,5.64056c-8.43633,6.18-11.3612,14.768-8.18555,24.42577.28261.85946.97559.90412.45846,2.43616-.981,2.90615-.25786,6.51995,4.50636,5.08521,5.537-1.66747,8.52638-1.05373,6.78635,5.826-.65,2.5698,1.2563,4.5022,3.34461,5.86654,1.99356,1.30251,4.13234,2.38151,6.13955,3.6647,1.91332,1.22322,3.49366,2.77374,3.06561,5.328-.44211,2.6379-2.56982,3.24337-4.776,3.75481-4.98574,1.15563-10.53941.4482-13.521,6.77373-.79335,1.68311-6.08479,1.25045-6.21237,5.78342-.04152,1.47466,1.08753,1.99842,1.34307,3.09372l.0786-.10835c-3.39962,4.18806-1.62816,9.12351-1.44136,13.5866.234,5.59148-1.60349,7.53759-6.941,6.65877a7.87913,7.87913,0,0,0-2.96448.01582c-1.74114.39873-4.41382-1.4059-5.09916,1.19333-.63323,2.40152,1.25,3.91945,3.6144,4.62305.686.20409,1.7567.76431,1.79613,1.23317a38.157,38.157,0,0,0,2.43554,11.54775c1.473,3.584,3.52377,7.05338,3.57169,11.33568-3.39915-.60992-4.71132-3.13462-5.77223-5.58653-4.2406-9.8005-11.27888-17.0281-20.18478-22.64077-5.9658-3.75973-13.73775-2.26371-17.16459,3.69587-1.402,2.43827-3.615,2.08934-5.57773,2.67181-2.32717.69062-4.61577,1.09084-4.85521,4.26556-.22928,3.04013.2489,7.48065-3.91741,7.47616-5.01535-.00535-3.769-5.06873-4.6177-8.627-2.342,1.29048-1.98875,3.54588-2.40025,5.43661l-1.19954-3.74038c.01267-.79423-.02606-1.59324.04669-2.38194.36952-4.00611,1.024-9.06529-3.595-10.12952-4.26425-.98257-10.03329-2.62566-13.088,3.40924-.23121.45673-.9253.67918-1.42229,1.023-2.439-1.51319,1.03892-3.04165-.24382-4.74281-3.7473.11972-2.959,6.0727-7.097,5.80136-.82772-1.8176,2.195-2.66547,1.00047-4.69291-3.40376-.03241-4.58031,2.80218-5.8168,5.06013-4.49712,8.21229-12.16441,13.58777-18.06456,20.53619-2.41608,2.84534-6.02428,1.96816-8.90229.638-2.72573-1.25971-1.61737-4.10359-1.3054-6.34689.57914-4.1647,3.08748-7.28962,6.07561-9.97324,3.82837-3.43819,7.84041-6.67186,12.51223-10.61782-3.83487-.13744-4.28569-2.17778-4.18853-4.90592.18389-5.1637-.10006-10.34483.11065-15.50649.12333-3.0215-.59738-3.78766-3.61521-2.8-4.31178,1.41129-8.51506,3.30665-13.12894,3.66425l-.01865-1.252c-1.277-2.96608-5.74907-1.75632-6.81465-5.49833,2.95476-.40073,4.03072-3.34589,6.45843-4.79543-3.72994-2.11337-6.82313-1.618-10.39291.9078A42.73429,42.73429,0,0,1,0,192.0956c8.2482-1.93116,13.57935-7.72709,18.87719-13.54767,3.27014-3.5928,3.16576-3.82816-1.33479-4.77143,2.883-3.20465,5.74285-6.76461,9.00749-9.9036,3.16944-3.04746,4.66375-5.70851,5.36352-10.764.94614-6.83533-3.21722-5.09888-5.53693-5.64977-5.18872-1.2323-10.696-1.05873-15.74994-3.06072-2.24408-.88895-4.40912-2.24473-4.847-4.853-.50775-3.0247,2.67057-3.0146,4.17792-4.33647,1.29225-1.13328,2.03514-.24619,3.64233.61418a53.2682,53.2682,0,0,0,32.86874,5.97558c2.48858-.3382,2.29947-2.29649,2.27828-4.11347-.04144-3.55409-.79669-7.03413-.08046-10.6779,1.57863-8.03121-1.16973-13.69832-8.75715-17.89276-7.57775-4.18908-14.183-10.01426-18.50734-19.98188,11.70573,3.95829,18.72656,11.81358,27.31664,17.51616-.18876-1.50956.90883-2.6607,3.77763-2.52815,6.55532.30284,13.13714-.02054,19.7023.14462,3.29136.0828,3.98414-.94356,3.371-4.19527a67.88007,67.88007,0,0,0-6.74171-19.03332c-6.97892-13.28392-11.25185-27.563-15.86455-41.71619-1.04206-3.19734-2.89855-7.53359,1.88309-9.21031,4.788-1.67894,7.4801,1.7942,8.7665,5.89511,2.71448,8.65342,5.06875,17.41268,7.78144,26.07608a111.93315,111.93315,0,0,0,20.92026,39.11378c2.84956,3.41148,6.14426,3.263,9.64385,2.91776,3.58522-.35367,1.5941-3.4096,2.01694-5.236.46314-2.0005,1.38632-2.47531,2.738-1.04177,2.38492,2.52933,4.66023,1.56434,6.90881.04673,2.15481-1.45431,4.23881-2.91493.83649-5.50839-1.129-.86061-1.62268-2.71279-2.11712-4.20748-.60773-1.83716-3.10938-4.3125-.09993-5.50847,2.33894-.92952,3.46728,1.94846,4.52962,3.85445.81669,1.46533.53531,4.00682,2.5,4.24353,1.97515.238,1.43069-2.51134,2.5944-3.52013A1.92273,1.92273,0,0,0,124.0312,85.98548ZM101.77628,199.44511a20.48335,20.48335,0,0,1,2.98058.02063c5.27012.7833,7.22674-.9853,6.78761-6.68429-.65559-8.50787-.091-17.10324-.50268-25.63934-.19752-4.09619,1.21926-4.99024,5.02315-4.91937,7.96249.14841,7.6157-.075,8.05795-8.32355.296-5.52021-1.40262-7.49629-6.91013-6.6999-1.94308.281-4.63634,1.20441-6.05117-1.09143a7.35174,7.35174,0,0,1,6.695-11.14155c5.099.31721,6.41885-1.50046,6.09315-6.353-.62843-9.36339,1.059-7.84393-7.92477-7.91892q-4.47477-.03735-8.95042.04714c-9.43964.175-14.26188,4.65251-15.032,14.08185a52.03541,52.03541,0,0,0,.00778,7.15509c.19548,3.45008.20921,6.55743-4.73795,5.79375-2.05719-.31754-2.79539.79365-2.71008,2.77884a57.20885,57.20885,0,0,1,.01044,7.15633c-.27825,3.35842.43935,5.43155,4.44422,4.77745,3.40214-.55563,3.21574,1.83634,3.23967,4.12094.08345,7.95433.272,15.90755.35514,23.86188C92.74572,199.4613,92.71493,199.46163,101.77628,199.44511ZM48.15836,164.0597c-1.11564-3.9652,3.74447-9.08359-2.27682-11.636a3.96158,3.96158,0,0,0-5.43535,2.38165C38.01159,161.56321,46.44227,160.03223,48.15836,164.0597Zm.353,6.48882c-.01526-.1801,1.11159-2.6312-1.46712-2.21706-3.37071.54131-7.10951,1.43186-8.0976,5.54865-.2748,1.145.4204,3.5418,1.99721,2.76812C43.61068,175.33975,48.78424,177.51531,48.51135,170.54852ZM34.6733,192.45619c4.47875-2.45048,10.09467-1.75224,13.01753-6.853C34.3266,184.99993,34.29208,185.01619,34.6733,192.45619Z" fill="#1c4b8c"/><path d="M64.32207,279.55669c-6.014,1.24589-10.03618-3.30287-12.47492-8.04827-2.31659-4.50771-.73829-9.73478,3.1996-13.58926,3.69713-3.61869,11.71895-5.354,16.09536-2.91461,5.11791,2.85267,5.7754,9.26223,9.558,13.28689.138.14685-.13908.73084-.28215,1.08724C79.18261,272.45584,68.40579,279.60674,64.32207,279.55669Z" fill="#1c4b8d"/><path d="M137.36475,0c3.65761.05337,5.79971,3.187,7.63291,6.56306,1.84237,3.39289,3.02168,6.99147,1.18561,10.7735a3.32146,3.32146,0,0,1-2.25478,1.7098c-4.67428.20527-8.35046-2.07906-11.52184-5.24219-2.83938-2.832-3.23158-6.3937-2.01186-9.95619C131.3121,1.16877,133.70347.02288,137.36475,0Z" fill="#1d4c8d"/><path d="M213.7945,226.80963c-.22927,3.7298-2.67749,5.28485-5.80825,5.542-2.80068.23-4.30144-1.719-4.431-4.42222-.16365-3.41537,2.10811-4.97234,5.04812-5.42353C211.76553,222.02055,213.12473,224.12918,213.7945,226.80963Z" fill="#245190"/><path d="M226.35227,14.21724c2.373-.18458,3.69973,1.38864,3.78193,3.82273.09778,2.89525-1.96969,4.20091-4.50942,4.36-2.736.17136-4.64-1.3987-4.48219-4.184C221.29607,15.5073,223.27233,14.21968,226.35227,14.21724Z" fill="#2b5794"/><path d="M24.3898,49.508c-2.87894-.10157-4.11727-1.67471-4.01143-3.85263.12622-2.59758,2.26011-2.9525,4.39678-2.81249,2.05088.13438,3.57893,1.15984,3.337,3.32837C27.86567,48.38125,26.45584,49.73779,24.3898,49.508Z" fill="#2a5694"/><path d="M236.11347,47.79573c1.92726-.02486,3.62168.44876,3.68635,2.723.069,2.42694-1.5476,3.40431-3.762,3.42688-2.04568.02085-3.35584-1.0265-3.3904-3.13358C232.61057,48.56016,234.1872,47.91941,236.11347,47.79573Z" fill="#235190"/><path d="M133.67245,267.1003c-.365,1.73565-1.14491,3.27742-3.37062,2.99471-1.87112-.23774-3.46625-1.154-3.08781-3.36988.33685-1.97243,1.81636-2.86973,3.81908-2.79488C132.98331,264.00313,133.74,265.13739,133.67245,267.1003Z" fill="#265291"/><path d="M88.06012,255.362c.179-1.64436.499-3.5317,2.63189-3.06671,1.93112.421,1.06231,2.274.808,3.51446-.71678,3.49682-1.57866,6.96388-2.38334,10.44265C87.0587,262.78775,88.82749,258.95182,88.06012,255.362Z" fill="#3e659d"/><path d="M230.83621,243.69184c1.76722.17688,3.053.69453,2.97275,2.4803-.07689,1.71261-.87411,3.21658-2.73757,3.31359a2.81922,2.81922,0,0,1-3.12806-2.87812C227.90217,244.70485,229.3789,243.97525,230.83621,243.69184Z" fill="#325c98"/><path d="M190.94972,236.39307c.10824,1.72872-.79631,2.55151-2.42689,2.65891-1.40825.09274-3.0307.15067-3.16268-1.71812a2.73988,2.73988,0,0,1,2.73563-3.1772C189.65467,234.05488,190.78058,234.65447,190.94972,236.39307Z" fill="#37609a"/><path d="M92.77958,226.70124l1.19954,3.74038a19.90547,19.90547,0,0,1-2.07193,11.56291C91.66949,235.86223,91.28867,231.23994,92.77958,226.70124Z" fill="#5276a8"/><path d="M125.93223,70.11949c-.32714-3.73463.325-7.17915,3.333-11.65948A17.25153,17.25153,0,0,1,125.93223,70.11949Z" fill="#5174a7"/><path d="M49.99422,244.98928c.93549-5.68145,3.67589-8.15724,7.09458-11.47148C56.64383,238.6923,53.562,240.9897,49.99422,244.98928Z" fill="#3e669e"/><path d="M88.06012,255.362c.76737,3.58985-1.00142,7.42578,1.05658,10.8904-.51415,2.16393-.43465,4.50228-1.87825,6.39319l-1.25278-1.40783C88.2181,266.14716,85.86676,260.45764,88.06012,255.362Z" fill="#587aab"/><path d="M85.98567,271.23773l1.25278,1.40783c-.26905,2.88825-1.644,5.37078-2.89764,7.89781-1.3063-.9234-.65162-2.44-1.09615-3.624C83.15307,274.54048,84.67585,272.94049,85.98567,271.23773Z" fill="#2c5794"/><path d="M163.41862,193.66406c3.17211-1.74892,5.87954-2.05989,7.38514,2.62959-3.02866-.00172-5.46025-.51768-7.30651-2.73969Z" fill="#345d98"/><path d="M11.46111,181.18135c-1.15074-.30568-2.16056-.84166-2.24314-2.16109a1.92479,1.92479,0,0,1,2.10059-2.15916,2.53454,2.53454,0,0,1,2.63409,2.50072C14.0966,180.91431,12.45476,180.73356,11.46111,181.18135Z" fill="#3a639c"/><path d="M226.60039,117.90175c-1.04954.08443-1.20944-.82482-1.13583-1.50134.19569-1.7977,1.47152-2.58167,3.14854-2.72121.90069-.075,1.5475.52076,1.34123,1.37315A3.91726,3.91726,0,0,1,226.60039,117.90175Z" fill="#5074a7"/><path d="M182.71923,143.49672c-1.96186,1.20214-4.04964,1.34753-6.74928.70051,1.91178-1.28166,3.51956-2.05738,5.48437-1.9382Q182.08675,142.87789,182.71923,143.49672Z" fill="#819bbf"/><path d="M195.15845,205.00644c-2.65256,1.08108-4.46859-.37743-6.91488-1.47524C191.28844,202.21123,193.25345,203.068,195.15845,205.00644Z" fill="#4d71a5"/><path d="M22.04082,117.00937c2.9155.39191,4.37229,1.17769,5.35327,3.21705C24.49258,121.01771,23.55747,119.27028,22.04082,117.00937Z" fill="#38619a"/><path d="M131.48058,17.90093c1.68115,1.29115,3.139,2.03923,2.78366,4.85369C132.08771,21.63356,131.77984,20.11632,131.48058,17.90093Z" fill="#6181af"/><path d="M31.33849,218.32946c2.62915-1.558,4.234-2.509,5.83888-3.46C36.58894,217.39111,35.362,218.968,31.33849,218.32946Z" fill="#37609a"/><path d="M83.24465,276.91933c.44454,1.18406-.21014,2.70064,1.09616,3.624-.35676.64951-.61264,1.76-1.08876,1.86423-1.58572.347-1.12167-1.07918-1.02227-1.76948A28.5913,28.5913,0,0,1,83.24465,276.91933Z" fill="#6484b1"/><path d="M124.0312,85.98548a1.92272,1.92272,0,0,1-2.16559,1.24983c-.07944-1.34547-.15894-2.69094-.2548-4.31336C123.65709,83.29472,121.992,86.07522,124.0312,85.98548Z" fill="#37619a"/><path d="M182.71923,143.49672q-.63246-.61887-1.26491-1.23769h5.38955C185.51072,143.80394,184.0223,143.27652,182.71923,143.49672Z" fill="#3b639c"/><path d="M32.03882,193.484l.01865,1.252a3.04425,3.04425,0,0,1-3.17548.86147C29.10556,193.62837,30.72109,193.77667,32.03882,193.484Z" fill="#305b96"/><path d="M48.15836,164.0597c-1.71609-4.02747-10.14677-2.49649-7.71217-9.25432a3.96158,3.96158,0,0,1,5.43535-2.38165C51.90283,154.97611,47.04272,160.0945,48.15836,164.0597Z" fill="#f4f6f9"/><path d="M48.51135,170.54852c.27289,6.96679-4.90067,4.79123-7.56751,6.09971-1.57681.77368-2.272-1.62314-1.99721-2.76812.98809-4.11679,4.72689-5.00734,8.0976-5.54865C49.62294,167.91732,48.49609,170.36842,48.51135,170.54852Z" fill="#f6f8fa"/><path d="M34.6733,192.45619c-.38122-7.44-.3467-7.45626,13.01753-6.853C44.768,190.704,39.15205,190.00571,34.6733,192.45619Z" fill="#eff2f7"/></g></g></svg>