<?xml version="1.0" encoding="utf-8"?>
<!-- Generator: Adobe Illustrator 23.0.6, SVG Export Plug-In . SVG Version: 6.00 Build 0)  -->
<svg version="1.1" id="Layer_1" xmlns="http://www.w3.org/2000/svg" xmlns:xlink="http://www.w3.org/1999/xlink" x="0px" y="0px"
	 viewBox="0 0 788 176.9" style="enable-background:new 0 0 788 176.9;" xml:space="preserve">
<style type="text/css">
	.st0{fill:#1997C9;}
	.st1{fill:#80C243;}
	.st2{fill:#EC1E26;}
	.st3{fill:#F69220;}
	.st4{fill:#EC0E84;}
</style>
<g>
	<g>
		<g>
			<path d="M544.1,113.9c-0.3,8.2-2.7,14.4-7.3,18.7c-4.6,4.2-11.1,6.3-19.5,6.3c-4.4,0-8.3-0.6-11.7-1.9c-3.4-1.2-6.2-3-8.4-5.2
				c-2.3-2.2-3.9-4.9-5.1-8c-1.1-3.1-1.7-6.5-1.7-10.3v-15h8v13.4c0,12.6,6.4,19,19.1,19c6.6,0,11.3-1.4,14.2-4.2
				c2.9-2.8,4.4-7.5,4.4-14V44.1h8v61.6h7.6c2.6,0,3.9,1.3,3.9,3.9c0,1.6-0.3,2.7-0.9,3.3c-0.6,0.6-1.6,0.9-3,0.9L544.1,113.9
				L544.1,113.9z"/>
			<path d="M551.6,113.9c-2.6,0-3.9-1.3-3.9-3.9c0-1.6,0.3-2.7,0.9-3.3c0.6-0.6,1.6-0.9,3-0.9h6.5c1.6,0,2.9-0.1,4-0.2
				c1.1-0.1,2-0.4,2.8-0.9c0.7-0.5,1.3-1.2,1.7-2.1c0.4-0.9,0.5-2.2,0.5-3.9V76.3h8v18.8c0,1.6,0.1,3.1,0.3,4.4
				c0.2,1.3,0.7,2.5,1.3,3.4c0.6,0.9,1.5,1.6,2.6,2.1s2.5,0.8,4.2,0.8c2.6,0,3.9,1.3,3.9,3.9c0,1.6-0.3,2.7-0.9,3.3
				c-0.6,0.6-1.6,0.9-3,0.9c-2.5,0-4.6-0.6-6.2-1.8c-1.6-1.2-2.6-2.7-3.1-4.5c-1.2,2.7-3,4.4-5.5,5.2s-5.6,1.2-9.2,1.2h-7.9V113.9z
				 M564.2,128.4c0-1.4,0.5-2.7,1.5-3.7s2.2-1.5,3.7-1.5s2.7,0.5,3.7,1.5s1.5,2.2,1.5,3.7c0,1.4-0.5,2.7-1.5,3.7s-2.2,1.5-3.7,1.5
				s-2.7-0.5-3.7-1.5S564.2,129.9,564.2,128.4z"/>
			<path d="M584.8,113.9c-2.6,0-3.9-1.3-3.9-3.9c0-1.6,0.3-2.7,0.9-3.3c0.6-0.6,1.6-0.9,3-0.9h11.1c-0.7-1.4-1.3-2.9-1.9-4.5
				c-0.6-1.6-0.8-3.6-0.8-5.7c0-2.5,0.4-5,1.3-7.5c0.8-2.5,2.1-4.7,3.7-6.6c1.6-1.9,3.6-3.5,6-4.7s5.1-1.8,8.3-1.8
				c3.6,0,6.5,0.7,8.8,2s4.1,3,5.4,5c1.3,2,2.3,4.2,2.8,6.7s0.8,4.8,0.8,7.2v18.2h-45.5V113.9z M599.9,59.9c0-1.4,0.5-2.7,1.5-3.7
				s2.2-1.5,3.7-1.5c1.4,0,2.7,0.5,3.7,1.5s1.5,2.2,1.5,3.7c0,1.4-0.5,2.7-1.5,3.7c-1,1-2.2,1.5-3.7,1.5c-1.4,0-2.7-0.5-3.7-1.5
				C600.4,62.5,599.9,61.3,599.9,59.9z M600.9,94.2c0,4,1.2,6.9,3.5,8.7c2.3,1.9,5.2,2.8,8.6,2.8h9.4v-9.8c0-1.6-0.1-3.1-0.4-4.7
				c-0.3-1.6-0.8-3-1.6-4.3s-1.9-2.3-3.2-3.1c-1.4-0.8-3.1-1.2-5.2-1.2c-3.5,0-6.2,1.1-8.1,3.4C601.9,88.3,600.9,91,600.9,94.2z
				 M612.6,59.9c0-1.4,0.5-2.7,1.5-3.7s2.2-1.5,3.7-1.5s2.7,0.5,3.7,1.5s1.5,2.2,1.5,3.7c0,1.4-0.5,2.7-1.5,3.7
				c-1,1-2.2,1.5-3.7,1.5s-2.7-0.5-3.7-1.5C613.1,62.5,612.6,61.3,612.6,59.9z"/>
			<path d="M725.4,113.9c-2.3,0-4.1-0.5-5.4-1.4c-1.3-0.9-2.4-2.1-3.1-3.4v3.6c0,4.3-0.6,8-1.8,11c-1.2,3.1-3,5.6-5.2,7.5
				c-2.3,2-5.1,3.4-8.4,4.3c-3.3,0.9-7.1,1.4-11.4,1.4c-8.9,0-15.7-2-20.2-6.1c-4.5-4-6.8-9.8-6.8-17.4v-15h8v13.4
				c0,6.3,1.6,10.7,4.8,13.2s8,3.8,14.3,3.8c3.2,0,6-0.2,8.4-0.7c2.3-0.5,4.3-1.3,5.8-2.5s2.6-2.9,3.4-5c0.7-2.1,1.1-4.8,1.1-8v-25
				h8v7.5c0,1.6,0.1,3.1,0.3,4.4s0.6,2.5,1.2,3.4c0.6,0.9,1.5,1.6,2.6,2.1s2.6,0.8,4.4,0.8c2.6,0,3.9,1.3,3.9,3.9
				c0,1.6-0.3,2.7-0.9,3.3C727.7,113.6,726.7,113.9,725.4,113.9z M685.6,79c0-1.4,0.5-2.7,1.5-3.7s2.2-1.5,3.7-1.5
				c1.4,0,2.7,0.5,3.7,1.5s1.5,2.2,1.5,3.7c0,1.4-0.5,2.7-1.5,3.7s-2.2,1.5-3.7,1.5c-1.4,0-2.7-0.5-3.7-1.5S685.6,80.4,685.6,79z"/>
			<path d="M725.2,113.9c-2.6,0-3.9-1.3-3.9-3.9c0-1.6,0.3-2.7,0.9-3.3s1.6-0.9,3-0.9h4c0.8,0,1.6-0.1,2.4-0.3
				c0.8-0.2,1.7-0.6,2.5-1.3c0.8-0.7,1.7-1.6,2.5-2.7c0.8-1.1,1.6-2.7,2.3-4.7c1.5-4.2,3.1-7.6,4.7-10.1c1.7-2.6,3.4-4.6,5.1-6
				c1.7-1.4,3.5-2.3,5.3-2.8s3.6-0.7,5.3-0.7c2.5,0,4.8,0.5,6.8,1.4c2.1,0.9,3.9,2.3,5.4,4s2.7,3.8,3.6,6.2c0.9,2.4,1.3,5,1.3,8
				c0,5.6-1.4,10.1-4.1,13.4c-2.7,3.3-6.9,4.9-12.5,4.9c-3.1,0-6.2-0.5-9.3-1.6c-3.1-1-6.3-2.8-9.7-5.3c-0.8,1.3-1.7,2.3-2.6,3.1
				c-0.9,0.8-1.8,1.3-2.8,1.7c-1,0.4-2,0.6-3,0.7c-1,0.1-2.1,0.1-3.3,0.1h-3.9V113.9z M768.5,96.6c0-1.4-0.2-2.8-0.6-4.2
				c-0.4-1.4-1-2.6-1.9-3.6c-0.8-1-1.8-1.9-3-2.5c-1.2-0.6-2.5-0.9-4.1-0.9c-2.7,0-5.2,1.2-7.5,3.6c-2.3,2.4-4.4,6.6-6.4,12.7
				c2.4,1.6,4.8,2.8,7.2,3.8c2.4,0.9,4.8,1.4,7.3,1.4c2.7,0,4.9-0.8,6.6-2.3C767.7,102.9,768.5,100.3,768.5,96.6z"/>
		</g>
	</g>
</g>
<g>
	<g>
		<path class="st0" d="M210.3,42.5c-0.1,8.6-2.7,18.1-5.9,27.4c-4.5,13.1-8.4,26.3-7,40.4c0.9,9.4,6.1,18.6,15.4,21.4
			c10.5,3.3,18.9-2.8,22.3-11.4c2.5-6.4,1.4-13,0.8-19.5c-0.9-9.2,1.4-17.3,9-23.1c9.3-7.2,21.5-2.7,24.4,8.8
			c1.7,6.7,1.1,13.3-0.9,19.7c-1.4,4.3-3.3,8.3-4.8,12.5c-0.4,1.1-0.3,2.9,0.4,3.8c5.8,7.6,13.5,11.1,23.1,9.9
			c7.3-1,13.9-7.7,13.1-14.1c-0.4-2.9-1.9-5.9-3.5-8.5c-2.3-3.9-5.6-7.4-7.5-11.4c-4.9-10.1,1.2-25.5,14.9-26.9
			c11.7-1.2,21.3,6.7,25,16.5c6.9,18.6,4.8,36.1-7.9,51.7c-5.5,6.8-13.1,10.7-21.6,12.6c-8.2,1.8-16.4,2.5-24.8,0.6
			c-8.8-2-15.8-6.8-21.5-13.6c-2.3-2.8-2.8-2.9-5.1-0.1c-7.2,9-16.9,13.3-28.1,14.3c-9.1,0.8-17.2-2.5-24.6-7.5
			c-11.1-7.5-17.9-18-21.7-30.7c-5.2-17.2-6.3-34.7-4.6-52.5c0.8-8.6,1.9-17.2,3.5-25.7c1.2-6.7,4.7-12.5,9.5-17.6
			c6.6-6.9,20.2-6.3,24.8,4.2C209.4,29.3,210.4,35,210.3,42.5z"/>
		<path class="st0" d="M76.3,168.1c-12.1-0.4-20.8-1.7-29.2-4.6c-13.9-4.9-26-12.4-33.1-25.9c-6.5-12.4-7.1-25.1-1.4-38
			c5.2-11.7,13.6-20.5,25.1-26c20.8-9.8,41.6-6.4,56.7,12.7c4.8,6.1,4.2,12.8,0.9,19.4c-5.4,10.8-16.1,15-27.3,10.8
			c-4.1-1.5-7.1-4.5-9.5-8.2c-2.2-3.5-4.7-6.9-8.5-8.9c-8.4-4.6-16.8-0.1-19.7,8.3c-5.2,15.2,3.1,28.1,15.9,34.2
			c9.6,4.5,19.5,4.3,29.5,2c21-4.9,35-18.6,45.4-36.7c4.3-7.5,9.6-14.2,18-17.6c11.5-4.6,23.3,2.1,23,15.2c-0.2,8-3.2,14.8-7.6,21.2
			c-9.6,13.9-22,24.7-37.1,32c-6.4,3.1-13.3,5.3-20.2,7.3C89.4,167.5,81.2,167.9,76.3,168.1z"/>
		<path class="st0" d="M399,104.7c-0.2,1.4-0.4,2.4-0.4,3.5c0,6,0.3,12-0.1,17.9c-0.7,10.3-2.9,20.3-9.9,28.4
			c-9.8,11.4-29.7,15.6-43.5,4c-7.6-6.4-10.2-16.9-5.8-25c2.7-5,7.2-7.7,12.7-8.3c2.5-0.3,5.1-0.4,7.5,0.1
			c8.8,2.1,13.9-2.2,17.3-8.9c4.4-8.8,5.5-18.3,4-27.9c-1.2-7.6-3.4-15-4.8-22.6c-1-5.2-1.2-10.4,0.2-15.7c1.5-5.7,9.8-7.1,13.8-2.8
			c2.6,2.8,3.3,6.2,3.9,9.7c1.2,6.8,2.1,13.7,3.5,20.5c0.8,4.3,3.2,7.7,7.3,9.5c7.8,3.4,15.9,5,24.1,1.5c3.3-1.4,6.1-3.4,7.6-7
			c2.2-5.2-0.1-9.4-2.4-13.7c-2.1-3.9-4.9-7.5-6.2-11.6c-3.7-11.1,5.3-27.1,20.8-24.6c11.1,1.8,17.6,8.9,20.4,19.3
			c3.3,12.3,2.6,24.6-3.1,36.2c-7.6,15.6-20,24.2-37.6,24.6c-5,0.1-10.1-0.2-15-1.2c-4-0.8-7.8-3-11.7-4.5
			C401,105.9,400.3,105.4,399,104.7z"/>
		<path class="st1" d="M230.1,41.8c-6.9,0.4-12.2-5.9-12.4-12.1c-0.3-8.9,6.6-13.7,13.3-13.3c6.4,0.4,11.8,5,11.8,13.2
			C242.8,36.1,236.3,42.6,230.1,41.8z"/>
		<path class="st1" d="M260.8,41.8c-6.9,0.4-12.2-5.9-12.4-12.1c-0.3-8.9,6.6-13.7,13.3-13.3c6.4,0.4,11.8,5,11.8,13.2
			C273.5,36.1,267,42.6,260.8,41.8z"/>
		<path class="st2" d="M300.1,41.8c-6.9,0.4-12.2-5.9-12.4-12.1c-0.3-8.9,6.6-13.7,13.3-13.3c6.4,0.4,11.8,5,11.8,13.2
			C312.8,36.1,306.3,42.6,300.1,41.8z"/>
		<path class="st3" d="M91,51.4c-6.9,0.4-12.2-5.9-12.4-12.1c-0.3-8.9,6.6-13.7,13.3-13.3c6.4,0.4,11.8,5,11.8,13.2
			C103.7,45.7,97.2,52.1,91,51.4z"/>
		<path class="st3" d="M121.7,51.4c-6.9,0.4-12.2-5.9-12.4-12.1c-0.3-8.9,6.6-13.7,13.3-13.3c6.4,0.4,11.8,5,11.8,13.2
			C134.4,45.7,127.9,52.1,121.7,51.4z"/>
	</g>
	<g>
		<path class="st2" d="M297.5,45.5c0-1,0-1.9,0-2.9c0-0.3,0-0.7-0.1-1c-0.1-0.3-0.3-0.7-0.5-0.7c-0.3,0-0.6,0.2-0.8,0.5
			c-0.2,0.3-0.3,0.8-0.4,1.2c-0.2,0.6-0.5,0.8-1.1,0.7c-0.4,0-0.7-0.3-0.8-0.9c-0.1-0.8-0.2-1.6-0.2-2.4c0-0.3-0.1-0.6-0.2-0.7
			c-0.1-0.1-0.4,0.1-0.6,0.1c0,0-0.1,0.1-0.1,0.1c-0.9,0.5-1.2,0.4-1.5-0.7c-0.3-1.2-0.3-2.4-0.1-3.7c0.3-1.5,0.7-2.9,1.5-4.1
			c0.7-1,1.6-1.7,2.6-2.1c1.3-0.6,2.7-0.9,4.1-1.1c2.2-0.2,4.3,0,6.3,0.9c1.4,0.6,2.7,1.4,3.5,2.9c0.5,0.9,0.7,1.8,0.7,2.8
			c0,0.3,0,0.5,0,0.8c0.1,0.8-0.2,1.5-0.6,2.1c-0.4,0.6-0.6,1.2-0.6,2c0,0.5,0.1,1.1-0.2,1.6c-0.3,0.6-0.8,0.6-1.1,0
			c-0.2-0.4-0.4-0.6-0.8-0.5c-0.4,0.1-0.4,0.4-0.5,0.8c-0.1,0.5-0.1,1.1-0.1,1.6c-0.1,0.5-0.1,1-0.2,1.4c0,0.1-0.2,0.3-0.2,0.3
			c-0.1,0-0.3-0.1-0.3-0.2c-0.1-0.5-0.2-1-0.3-1.5c-0.1-0.4-0.1-0.8-0.4-0.9c-0.3-0.1-0.6,0.1-0.8,0.6c-0.1,0.2-0.2,0.5-0.2,0.7
			c0,0.6,0,1.2,0.1,1.8c0.1,0.7,0,1.3-0.3,1.9c-0.2,0.4-0.4,0.5-0.8,0.5c-0.3,0-0.6-0.3-0.7-0.6c-0.1-0.7-0.1-1.4-0.1-2.1
			c0-0.6,0-1.2-0.1-1.7c0-0.2-0.2-0.5-0.3-0.5c-0.1,0-0.4,0.2-0.4,0.4c-0.1,0.4-0.3,0.8-0.3,1.2c-0.1,0.9-0.1,1.8-0.2,2.7
			c-0.1,1.1-0.3,2.2-0.5,3.2c-0.1,0.5-0.3,1-0.8,1c-0.5,0-0.9-0.4-1-0.9c-0.1-0.5-0.3-1-0.3-1.5C297.5,47.5,297.5,46.5,297.5,45.5z"
			/>
		<path class="st2" d="M299.4,54.2c-0.2,0.5-0.3,1-0.6,1.5c-0.2,0.4-0.6,0.3-0.8,0c-0.5-0.6-0.5-2.4,0-3.1c0.3-0.4,0.7-0.4,1,0.1
			C299.2,53.2,299.3,53.7,299.4,54.2z"/>
		<path class="st2" d="M295.3,45.7c0,0.1,0,0.3,0,0.4c-0.1,0.5-0.4,0.9-0.7,0.9c-0.4,0-0.6-0.2-0.8-0.8c-0.2-0.5-0.1-1,0.2-1.5
			c0.3-0.6,0.9-0.5,1.2,0.1C295.3,45.1,295.3,45.4,295.3,45.7C295.4,45.7,295.3,45.7,295.3,45.7z"/>
		<path class="st2" d="M307.4,44.2c0.1-0.5,0.1-0.9,0.3-1.3c0.2-0.4,0.5-0.4,0.7,0c0.4,0.8,0.3,1.7,0,2.5c-0.1,0.4-0.5,0.4-0.7,0
			C307.5,45,307.4,44.6,307.4,44.2z"/>
		<path class="st2" d="M302.9,49.6c-0.1,0.3-0.1,0.7-0.2,1c-0.1,0.2-0.3,0.3-0.4,0.3c-0.1,0-0.3-0.2-0.3-0.3c-0.3-0.6-0.2-1.3,0-2
			c0.1-0.2,0.3-0.4,0.4-0.4c0.2,0,0.4,0.2,0.4,0.4C302.9,49,302.9,49.3,302.9,49.6z"/>
	</g>
	<g>
		<path class="st4" d="M432.6,153c0-1,0-1.9,0-2.9c0-0.3,0-0.7-0.1-1c-0.1-0.3-0.3-0.7-0.5-0.7c-0.3,0-0.6,0.2-0.8,0.5
			c-0.2,0.3-0.3,0.8-0.4,1.2c-0.2,0.6-0.5,0.8-1.1,0.7c-0.4,0-0.7-0.3-0.8-0.9c-0.1-0.8-0.2-1.6-0.2-2.4c0-0.3-0.1-0.6-0.2-0.7
			c-0.1-0.1-0.4,0.1-0.6,0.1c0,0-0.1,0.1-0.1,0.1c-0.9,0.5-1.2,0.4-1.5-0.7c-0.3-1.2-0.3-2.4-0.1-3.7c0.3-1.5,0.7-2.9,1.5-4.1
			c0.7-1,1.6-1.7,2.6-2.1c1.3-0.6,2.7-0.9,4.1-1.1c2.2-0.2,4.3,0,6.3,0.9c1.4,0.6,2.7,1.4,3.5,2.9c0.5,0.9,0.7,1.8,0.7,2.8
			c0,0.3,0,0.5,0,0.8c0.1,0.8-0.2,1.5-0.6,2.1c-0.4,0.6-0.6,1.2-0.6,2c0,0.5,0.1,1.1-0.2,1.6c-0.3,0.6-0.8,0.6-1.1,0
			c-0.2-0.4-0.4-0.6-0.8-0.5c-0.4,0.1-0.4,0.4-0.5,0.8c-0.1,0.5-0.1,1.1-0.1,1.6c-0.1,0.5-0.1,1-0.2,1.4c0,0.1-0.2,0.3-0.2,0.3
			c-0.1,0-0.3-0.1-0.3-0.2c-0.1-0.5-0.2-1-0.3-1.5c-0.1-0.4-0.1-0.8-0.4-0.9c-0.3-0.1-0.6,0.1-0.8,0.6c-0.1,0.2-0.2,0.5-0.2,0.7
			c0,0.6,0,1.2,0.1,1.8c0.1,0.7,0,1.3-0.3,1.9c-0.2,0.4-0.4,0.5-0.8,0.5c-0.3,0-0.6-0.3-0.7-0.6c-0.1-0.7-0.1-1.4-0.1-2.1
			c0-0.6,0-1.2-0.1-1.7c0-0.2-0.2-0.5-0.3-0.5c-0.1,0-0.4,0.2-0.4,0.4c-0.1,0.4-0.3,0.8-0.3,1.2c-0.1,0.9-0.1,1.8-0.2,2.7
			c-0.1,1.1-0.3,2.2-0.5,3.2c-0.1,0.5-0.3,1-0.8,1c-0.5,0-0.9-0.4-1-0.9c-0.1-0.5-0.3-1-0.3-1.5C432.6,155,432.6,154,432.6,153z"/>
		<path class="st4" d="M434.5,161.7c-0.2,0.5-0.3,1-0.6,1.5c-0.2,0.4-0.6,0.3-0.8,0c-0.5-0.6-0.5-2.4,0-3.1c0.3-0.4,0.7-0.4,1,0.1
			C434.3,160.6,434.4,161.1,434.5,161.7z"/>
		<path class="st4" d="M430.4,153.2c0,0.1,0,0.3,0,0.4c-0.1,0.5-0.4,0.9-0.7,0.9c-0.4,0-0.6-0.2-0.8-0.8c-0.2-0.5-0.1-1,0.2-1.5
			c0.3-0.6,0.9-0.5,1.2,0.1C430.4,152.6,430.4,152.9,430.4,153.2C430.5,153.2,430.4,153.2,430.4,153.2z"/>
		<path class="st4" d="M442.5,151.7c0.1-0.5,0.1-0.9,0.3-1.3c0.2-0.4,0.5-0.4,0.7,0c0.4,0.8,0.3,1.7,0,2.5c-0.1,0.4-0.5,0.4-0.7,0
			C442.6,152.5,442.5,152.1,442.5,151.7z"/>
		<path class="st4" d="M438,157.1c-0.1,0.3-0.1,0.7-0.2,1c-0.1,0.2-0.3,0.3-0.4,0.3c-0.1,0-0.3-0.2-0.3-0.3c-0.3-0.6-0.2-1.3,0-2
			c0.1-0.2,0.3-0.4,0.4-0.4c0.2,0,0.4,0.2,0.4,0.4C438,156.4,438,156.8,438,157.1z"/>
	</g>
	<g>
		<path class="st1" d="M259.7,45.5c0-1,0-1.9,0-2.9c0-0.3,0-0.7-0.1-1c-0.1-0.3-0.3-0.7-0.5-0.7c-0.3,0-0.6,0.2-0.8,0.5
			c-0.2,0.3-0.3,0.8-0.4,1.2c-0.2,0.6-0.5,0.8-1.1,0.7c-0.4,0-0.7-0.3-0.8-0.9c-0.1-0.8-0.2-1.6-0.2-2.4c0-0.3-0.1-0.6-0.2-0.7
			c-0.1-0.1-0.4,0.1-0.6,0.1c0,0-0.1,0.1-0.1,0.1c-0.9,0.5-1.2,0.4-1.5-0.7c-0.3-1.2-0.3-2.4-0.1-3.7c0.3-1.5,0.7-2.9,1.5-4.1
			c0.7-1,1.6-1.7,2.6-2.1c1.3-0.6,2.7-0.9,4.1-1.1c2.2-0.2,4.3,0,6.3,0.9c1.4,0.6,2.7,1.4,3.5,2.9c0.5,0.9,0.7,1.8,0.7,2.8
			c0,0.3,0,0.5,0,0.8c0.1,0.8-0.2,1.5-0.6,2.1c-0.4,0.6-0.6,1.2-0.6,2c0,0.5,0.1,1.1-0.2,1.6c-0.3,0.6-0.8,0.6-1.1,0
			c-0.2-0.4-0.4-0.6-0.8-0.5c-0.4,0.1-0.4,0.4-0.5,0.8c-0.1,0.5-0.1,1.1-0.1,1.6c-0.1,0.5-0.1,1-0.2,1.4c0,0.1-0.2,0.3-0.2,0.3
			c-0.1,0-0.3-0.1-0.3-0.2c-0.1-0.5-0.2-1-0.3-1.5c-0.1-0.4-0.1-0.8-0.4-0.9c-0.3-0.1-0.6,0.1-0.8,0.6c-0.1,0.2-0.2,0.5-0.2,0.7
			c0,0.6,0,1.2,0.1,1.8c0.1,0.7,0,1.3-0.3,1.9c-0.2,0.4-0.4,0.5-0.8,0.5c-0.3,0-0.6-0.3-0.7-0.6c-0.1-0.7-0.1-1.4-0.1-2.1
			c0-0.6,0-1.2-0.1-1.7c0-0.2-0.2-0.5-0.3-0.5c-0.1,0-0.4,0.2-0.4,0.4c-0.1,0.4-0.3,0.8-0.3,1.2c-0.1,0.9-0.1,1.8-0.2,2.7
			c-0.1,1.1-0.3,2.2-0.5,3.2c-0.1,0.5-0.3,1-0.8,1c-0.5,0-0.9-0.4-1-0.9c-0.1-0.5-0.3-1-0.3-1.5C259.7,47.5,259.7,46.5,259.7,45.5z"
			/>
		<path class="st1" d="M261.6,54.2c-0.2,0.5-0.3,1-0.6,1.5c-0.2,0.4-0.6,0.3-0.8,0c-0.5-0.6-0.5-2.4,0-3.1c0.3-0.4,0.7-0.4,1,0.1
			C261.4,53.2,261.5,53.7,261.6,54.2z"/>
		<path class="st1" d="M257.5,45.7c0,0.1,0,0.3,0,0.4c-0.1,0.5-0.4,0.9-0.7,0.9c-0.4,0-0.6-0.2-0.8-0.8c-0.2-0.5-0.1-1,0.2-1.5
			c0.3-0.6,0.9-0.5,1.2,0.1C257.5,45.1,257.5,45.4,257.5,45.7C257.5,45.7,257.5,45.7,257.5,45.7z"/>
		<path class="st1" d="M269.6,44.2c0.1-0.5,0.1-0.9,0.3-1.3c0.2-0.4,0.5-0.4,0.7,0c0.4,0.8,0.3,1.7,0,2.5c-0.1,0.4-0.5,0.4-0.7,0
			C269.7,45,269.6,44.6,269.6,44.2z"/>
		<path class="st1" d="M265.1,49.6c-0.1,0.3-0.1,0.7-0.2,1c-0.1,0.2-0.3,0.3-0.4,0.3c-0.1,0-0.3-0.2-0.3-0.3c-0.3-0.6-0.2-1.3,0-2
			c0.1-0.2,0.3-0.4,0.4-0.4c0.2,0,0.4,0.2,0.4,0.4C265.1,49,265.1,49.3,265.1,49.6z"/>
	</g>
	<g>
		<path class="st1" d="M225.8,45.5c0-1,0-1.9,0-2.9c0-0.3,0-0.7-0.1-1c-0.1-0.3-0.3-0.7-0.5-0.7c-0.3,0-0.6,0.2-0.8,0.5
			c-0.2,0.3-0.3,0.8-0.4,1.2c-0.2,0.6-0.5,0.8-1.1,0.7c-0.4,0-0.7-0.3-0.8-0.9c-0.1-0.8-0.2-1.6-0.2-2.4c0-0.3-0.1-0.6-0.2-0.7
			c-0.1-0.1-0.4,0.1-0.6,0.1c0,0-0.1,0.1-0.1,0.1c-0.9,0.5-1.2,0.4-1.5-0.7c-0.3-1.2-0.3-2.4-0.1-3.7c0.3-1.5,0.7-2.9,1.5-4.1
			c0.7-1,1.6-1.7,2.6-2.1c1.3-0.6,2.7-0.9,4.1-1.1c2.2-0.2,4.3,0,6.3,0.9c1.4,0.6,2.7,1.4,3.5,2.9c0.5,0.9,0.7,1.8,0.7,2.8
			c0,0.3,0,0.5,0,0.8c0.1,0.8-0.2,1.5-0.6,2.1c-0.4,0.6-0.6,1.2-0.6,2c0,0.5,0.1,1.1-0.2,1.6c-0.3,0.6-0.8,0.6-1.1,0
			c-0.2-0.4-0.4-0.6-0.8-0.5c-0.4,0.1-0.4,0.4-0.5,0.8c-0.1,0.5-0.1,1.1-0.1,1.6c-0.1,0.5-0.1,1-0.2,1.4c0,0.1-0.2,0.3-0.2,0.3
			c-0.1,0-0.3-0.1-0.3-0.2c-0.1-0.5-0.2-1-0.3-1.5c-0.1-0.4-0.1-0.8-0.4-0.9c-0.3-0.1-0.6,0.1-0.8,0.6c-0.1,0.2-0.2,0.5-0.2,0.7
			c0,0.6,0,1.2,0.1,1.8c0.1,0.7,0,1.3-0.3,1.9c-0.2,0.4-0.4,0.5-0.8,0.5c-0.3,0-0.6-0.3-0.7-0.6c-0.1-0.7-0.1-1.4-0.1-2.1
			c0-0.6,0-1.2-0.1-1.7c0-0.2-0.2-0.5-0.3-0.5c-0.1,0-0.4,0.2-0.4,0.4c-0.1,0.4-0.3,0.8-0.3,1.2c-0.1,0.9-0.1,1.8-0.2,2.7
			c-0.1,1.1-0.3,2.2-0.5,3.2c-0.1,0.5-0.3,1-0.8,1c-0.5,0-0.9-0.4-1-0.9c-0.1-0.5-0.3-1-0.3-1.5C225.7,47.5,225.8,46.5,225.8,45.5z"
			/>
		<path class="st1" d="M227.7,54.2c-0.2,0.5-0.3,1-0.6,1.5c-0.2,0.4-0.6,0.3-0.8,0c-0.5-0.6-0.5-2.4,0-3.1c0.3-0.4,0.7-0.4,1,0.1
			C227.5,53.2,227.5,53.7,227.7,54.2z"/>
		<path class="st1" d="M223.6,45.7c0,0.1,0,0.3,0,0.4c-0.1,0.5-0.4,0.9-0.7,0.9c-0.4,0-0.6-0.2-0.8-0.8c-0.2-0.5-0.1-1,0.2-1.5
			c0.3-0.6,0.9-0.5,1.2,0.1C223.5,45.1,223.6,45.4,223.6,45.7C223.6,45.7,223.6,45.7,223.6,45.7z"/>
		<path class="st1" d="M235.6,44.2c0.1-0.5,0.1-0.9,0.3-1.3c0.2-0.4,0.5-0.4,0.7,0c0.4,0.8,0.3,1.7,0,2.5c-0.1,0.4-0.5,0.4-0.7,0
			C235.8,45,235.7,44.6,235.6,44.2z"/>
		<path class="st1" d="M231.2,49.6c-0.1,0.3-0.1,0.7-0.2,1c-0.1,0.2-0.3,0.3-0.4,0.3c-0.1,0-0.3-0.2-0.3-0.3c-0.3-0.6-0.2-1.3,0-2
			c0.1-0.2,0.3-0.4,0.4-0.4c0.2,0,0.4,0.2,0.4,0.4C231.1,49,231.2,49.3,231.2,49.6z"/>
	</g>
	<g>
		<path class="st3" d="M120.8,54.5c0-1,0-1.9,0-2.9c0-0.3,0-0.7-0.1-1c-0.1-0.3-0.3-0.7-0.5-0.7c-0.3,0-0.6,0.2-0.8,0.5
			c-0.2,0.3-0.3,0.8-0.4,1.2c-0.2,0.6-0.5,0.8-1.1,0.7c-0.4,0-0.7-0.3-0.8-0.9c-0.1-0.8-0.2-1.6-0.2-2.4c0-0.3-0.1-0.6-0.2-0.7
			c-0.1-0.1-0.4,0.1-0.6,0.1c0,0-0.1,0.1-0.1,0.1c-0.9,0.5-1.2,0.4-1.5-0.7c-0.3-1.2-0.3-2.4-0.1-3.7c0.3-1.5,0.7-2.9,1.5-4.1
			c0.7-1,1.6-1.7,2.6-2.1c1.3-0.6,2.7-0.9,4.1-1.1c2.2-0.2,4.3,0,6.3,0.9c1.4,0.6,2.7,1.4,3.5,2.9c0.5,0.9,0.7,1.8,0.7,2.8
			c0,0.3,0,0.5,0,0.8c0.1,0.8-0.2,1.5-0.6,2.1c-0.4,0.6-0.6,1.2-0.6,2c0,0.5,0.1,1.1-0.2,1.6c-0.3,0.6-0.8,0.6-1.1,0
			c-0.2-0.4-0.4-0.6-0.8-0.5c-0.4,0.1-0.4,0.4-0.5,0.8c-0.1,0.5-0.1,1.1-0.1,1.6c-0.1,0.5-0.1,1-0.2,1.4c0,0.1-0.2,0.3-0.2,0.3
			c-0.1,0-0.3-0.1-0.3-0.2c-0.1-0.5-0.2-1-0.3-1.5c-0.1-0.4-0.1-0.8-0.4-0.9c-0.3-0.1-0.6,0.1-0.8,0.6c-0.1,0.2-0.2,0.5-0.2,0.7
			c0,0.6,0,1.2,0.1,1.8c0.1,0.7,0,1.3-0.3,1.9c-0.2,0.4-0.4,0.5-0.8,0.5c-0.3,0-0.6-0.3-0.7-0.6c-0.1-0.7-0.1-1.4-0.1-2.1
			c0-0.6,0-1.2-0.1-1.7c0-0.2-0.2-0.5-0.3-0.5c-0.1,0-0.4,0.2-0.4,0.4c-0.1,0.4-0.3,0.8-0.3,1.2c-0.1,0.9-0.1,1.8-0.2,2.7
			c-0.1,1.1-0.3,2.2-0.5,3.2c-0.1,0.5-0.3,1-0.8,1c-0.5,0-0.9-0.4-1-0.9c-0.1-0.5-0.3-1-0.3-1.5C120.8,56.6,120.8,55.6,120.8,54.5z"
			/>
		<path class="st3" d="M122.8,63.2c-0.2,0.5-0.3,1-0.6,1.5c-0.2,0.4-0.6,0.3-0.8,0c-0.5-0.6-0.5-2.4,0-3.1c0.3-0.4,0.7-0.4,1,0.1
			C122.5,62.2,122.6,62.7,122.8,63.2z"/>
		<path class="st3" d="M118.7,54.7c0,0.1,0,0.3,0,0.4c-0.1,0.5-0.4,0.9-0.7,0.9c-0.4,0-0.6-0.2-0.8-0.8c-0.2-0.5-0.1-1,0.2-1.5
			c0.3-0.6,0.9-0.5,1.2,0.1C118.6,54.1,118.6,54.4,118.7,54.7C118.7,54.7,118.7,54.7,118.7,54.7z"/>
		<path class="st3" d="M130.7,53.2c0.1-0.5,0.1-0.9,0.3-1.3c0.2-0.4,0.5-0.4,0.7,0c0.4,0.8,0.3,1.7,0,2.5c-0.1,0.4-0.5,0.4-0.7,0
			C130.8,54,130.8,53.6,130.7,53.2z"/>
		<path class="st3" d="M126.3,58.6c-0.1,0.3-0.1,0.7-0.2,1c-0.1,0.2-0.3,0.3-0.4,0.3c-0.1,0-0.3-0.2-0.3-0.3c-0.3-0.6-0.2-1.3,0-2
			c0.1-0.2,0.3-0.4,0.4-0.4c0.2,0,0.4,0.2,0.4,0.4C126.2,58,126.2,58.3,126.3,58.6z"/>
	</g>
	<g>
		<path class="st3" d="M86.9,54.5c0-1,0-1.9,0-2.9c0-0.3,0-0.7-0.1-1c-0.1-0.3-0.3-0.7-0.5-0.7c-0.3,0-0.6,0.2-0.8,0.5
			c-0.2,0.3-0.3,0.8-0.4,1.2c-0.2,0.6-0.5,0.8-1.1,0.7c-0.4,0-0.7-0.3-0.8-0.9c-0.1-0.8-0.2-1.6-0.2-2.4c0-0.3-0.1-0.6-0.2-0.7
			c-0.1-0.1-0.4,0.1-0.6,0.1c0,0-0.1,0.1-0.1,0.1c-0.9,0.5-1.2,0.4-1.5-0.7c-0.3-1.2-0.3-2.4-0.1-3.7c0.3-1.5,0.7-2.9,1.5-4.1
			c0.7-1,1.6-1.7,2.6-2.1c1.3-0.6,2.7-0.9,4.1-1.1c2.2-0.2,4.3,0,6.3,0.9c1.4,0.6,2.7,1.4,3.5,2.9c0.5,0.9,0.7,1.8,0.7,2.8
			c0,0.3,0,0.5,0,0.8c0.1,0.8-0.2,1.5-0.6,2.1c-0.4,0.6-0.6,1.2-0.6,2c0,0.5,0.1,1.1-0.2,1.6c-0.3,0.6-0.8,0.6-1.1,0
			c-0.2-0.4-0.4-0.6-0.8-0.5c-0.4,0.1-0.4,0.4-0.5,0.8c-0.1,0.5-0.1,1.1-0.1,1.6c-0.1,0.5-0.1,1-0.2,1.4c0,0.1-0.2,0.3-0.2,0.3
			c-0.1,0-0.3-0.1-0.3-0.2c-0.1-0.5-0.2-1-0.3-1.5c-0.1-0.4-0.1-0.8-0.4-0.9c-0.3-0.1-0.6,0.1-0.8,0.6c-0.1,0.2-0.2,0.5-0.2,0.7
			c0,0.6,0,1.2,0.1,1.8c0.1,0.7,0,1.3-0.3,1.9c-0.2,0.4-0.4,0.5-0.8,0.5c-0.3,0-0.6-0.3-0.7-0.6c-0.1-0.7-0.1-1.4-0.1-2.1
			c0-0.6,0-1.2-0.1-1.7c0-0.2-0.2-0.5-0.3-0.5c-0.1,0-0.4,0.2-0.4,0.4c-0.1,0.4-0.3,0.8-0.3,1.2c-0.1,0.9-0.1,1.8-0.2,2.7
			c-0.1,1.1-0.3,2.2-0.5,3.2c-0.1,0.5-0.3,1-0.8,1c-0.5,0-0.9-0.4-1-0.9c-0.1-0.5-0.3-1-0.3-1.5C86.9,56.6,86.9,55.6,86.9,54.5z"/>
		<path class="st3" d="M88.9,63.2c-0.2,0.5-0.3,1-0.6,1.5c-0.2,0.4-0.6,0.3-0.8,0c-0.5-0.6-0.5-2.4,0-3.1c0.3-0.4,0.7-0.4,1,0.1
			C88.6,62.2,88.7,62.7,88.9,63.2z"/>
		<path class="st3" d="M84.7,54.7c0,0.1,0,0.3,0,0.4C84.6,55.6,84.3,56,84,56c-0.4,0-0.6-0.2-0.8-0.8c-0.2-0.5-0.1-1,0.2-1.5
			c0.3-0.6,0.9-0.5,1.2,0.1C84.7,54.1,84.7,54.4,84.7,54.7C84.8,54.7,84.8,54.7,84.7,54.7z"/>
		<path class="st3" d="M96.8,53.2c0.1-0.5,0.1-0.9,0.3-1.3c0.2-0.4,0.5-0.4,0.7,0c0.4,0.8,0.3,1.7,0,2.5c-0.1,0.4-0.5,0.4-0.7,0
			C96.9,54,96.9,53.6,96.8,53.2z"/>
		<path class="st3" d="M92.4,58.6c-0.1,0.3-0.1,0.7-0.2,1c-0.1,0.2-0.3,0.3-0.4,0.3c-0.1,0-0.3-0.2-0.3-0.3c-0.3-0.6-0.2-1.3,0-2
			c0.1-0.2,0.3-0.4,0.4-0.4c0.2,0,0.4,0.2,0.4,0.4C92.3,58,92.3,58.3,92.4,58.6z"/>
	</g>
	<circle class="st4" cx="435.4" cy="135.3" r="13.9"/>
</g>
</svg>
