<?xml version="1.0" encoding="utf-8"?>
<!-- Generator: Adobe Illustrator 23.0.6, SVG Export Plug-In . SVG Version: 6.00 Build 0)  -->
<svg version="1.1" id="Layer_1" xmlns="http://www.w3.org/2000/svg" xmlns:xlink="http://www.w3.org/1999/xlink" x="0px" y="0px"
	 viewBox="0 0 180.71 25.66" style="enable-background:new 0 0 180.71 25.66;" xml:space="preserve">
<style type="text/css">
	.st0{fill:#F68B1E;}
</style>
<g>
	<path class="st0" d="M5.17,4.74v9.15c0,0.16,0.01,0.3,0.03,0.44c0.02,0.13,0.07,0.25,0.14,0.34c0.07,0.1,0.18,0.17,0.32,0.23
		c0.14,0.06,0.33,0.08,0.56,0.08h0.79l0.56,0.56v1.13l-0.56,0.56H6.58c-0.7,0-1.26-0.1-1.69-0.3c-0.43-0.2-0.77-0.48-1-0.82
		c-0.24-0.35-0.4-0.76-0.48-1.23c-0.08-0.47-0.13-0.97-0.13-1.5V4.74H5.17z"/>
	<path class="st0" d="M10.92,13.54c0,0.53-0.05,1.02-0.14,1.47c-0.1,0.45-0.27,0.84-0.53,1.17c-0.26,0.33-0.61,0.58-1.06,0.77
		c-0.45,0.19-1.02,0.28-1.72,0.28H7.02l-0.56-0.56v-1.13l0.56-0.56h0.81c0.49,0,0.82-0.1,0.98-0.3c0.16-0.2,0.24-0.47,0.24-0.79
		V8.92h1.88V13.54z M7.53,19.25c0-0.28,0.1-0.52,0.29-0.72c0.2-0.2,0.43-0.3,0.72-0.3c0.29,0,0.54,0.1,0.74,0.3
		c0.2,0.2,0.3,0.44,0.3,0.72c0,0.29-0.1,0.53-0.3,0.72c-0.2,0.19-0.45,0.29-0.74,0.29c-0.28,0-0.52-0.1-0.72-0.29
		C7.62,19.78,7.53,19.54,7.53,19.25z"/>
	<path class="st0" d="M19.99,14.75c0,1.08-0.13,1.99-0.39,2.75c-0.26,0.76-0.63,1.38-1.12,1.87s-1.08,0.84-1.77,1.07
		c-0.7,0.22-1.48,0.34-2.36,0.34l-0.27-2.24c0.99,0,1.77-0.1,2.34-0.31c0.57-0.21,0.99-0.54,1.25-1H16.9
		c-0.83,0-1.52-0.08-2.08-0.23c-0.56-0.15-1-0.36-1.32-0.62c-0.33-0.26-0.56-0.57-0.69-0.93c-0.13-0.36-0.2-0.75-0.2-1.16
		c0-0.57,0.11-1.17,0.34-1.78c0.22-0.62,0.52-1.18,0.88-1.68c0.36-0.5,0.78-0.92,1.24-1.24c0.46-0.33,0.93-0.49,1.4-0.49
		c0.54,0,1.03,0.17,1.46,0.5c0.44,0.33,0.81,0.77,1.11,1.3c0.3,0.54,0.54,1.15,0.71,1.83C19.91,13.39,19.99,14.07,19.99,14.75z
		 M14.49,13.96c0,0.17,0.04,0.31,0.12,0.44c0.08,0.12,0.22,0.23,0.42,0.32c0.2,0.09,0.48,0.16,0.83,0.2
		c0.35,0.04,0.8,0.07,1.35,0.07h0.87c0-0.52-0.05-1-0.16-1.44c-0.11-0.44-0.25-0.83-0.42-1.16c-0.17-0.33-0.37-0.59-0.59-0.78
		c-0.22-0.19-0.43-0.29-0.65-0.29c-0.2,0-0.41,0.08-0.62,0.24c-0.21,0.16-0.4,0.36-0.57,0.61c-0.17,0.25-0.31,0.54-0.42,0.85
		C14.55,13.34,14.49,13.65,14.49,13.96z"/>
	<path class="st0" d="M25.91,15.73c0,0.85-0.09,1.61-0.26,2.27c-0.17,0.66-0.45,1.22-0.83,1.67c-0.38,0.45-0.87,0.8-1.48,1.03
		c-0.61,0.24-1.35,0.35-2.22,0.35l-0.17-2.22c0.66,0,1.19-0.07,1.6-0.21c0.4-0.14,0.72-0.36,0.93-0.65
		c0.22-0.29,0.36-0.67,0.44-1.14c0.07-0.47,0.11-1.03,0.11-1.69V8.92h1.88V15.73z"/>
	<path class="st0" d="M34.98,14.75c0,1.08-0.13,1.99-0.39,2.75c-0.26,0.76-0.63,1.38-1.12,1.87c-0.49,0.49-1.08,0.84-1.77,1.07
		c-0.7,0.22-1.48,0.34-2.36,0.34l-0.27-2.24c0.99,0,1.77-0.1,2.34-0.31c0.57-0.21,0.99-0.54,1.25-1h-0.77
		c-0.83,0-1.52-0.08-2.08-0.23c-0.56-0.15-1-0.36-1.32-0.62c-0.33-0.26-0.56-0.57-0.69-0.93c-0.13-0.36-0.2-0.75-0.2-1.16
		c0-0.57,0.11-1.17,0.34-1.78c0.22-0.62,0.52-1.18,0.88-1.68c0.36-0.5,0.78-0.92,1.24-1.24c0.46-0.33,0.93-0.49,1.4-0.49
		c0.54,0,1.03,0.17,1.46,0.5c0.44,0.33,0.81,0.77,1.11,1.3s0.54,1.15,0.71,1.83C34.9,13.39,34.98,14.07,34.98,14.75z M29.48,13.96
		c0,0.17,0.04,0.31,0.12,0.44c0.08,0.12,0.22,0.23,0.42,0.32c0.2,0.09,0.48,0.16,0.83,0.2c0.35,0.04,0.8,0.07,1.35,0.07h0.87
		c0-0.52-0.05-1-0.16-1.44c-0.11-0.44-0.25-0.83-0.42-1.16c-0.17-0.33-0.37-0.59-0.59-0.78c-0.22-0.19-0.43-0.29-0.65-0.29
		c-0.2,0-0.41,0.08-0.62,0.24c-0.21,0.16-0.4,0.36-0.57,0.61c-0.17,0.25-0.31,0.54-0.42,0.85C29.54,13.34,29.48,13.65,29.48,13.96z"
		/>
	<path class="st0" d="M40.55,4.09c-0.12,0.34-0.23,0.58-0.33,0.74c-0.1,0.16-0.18,0.26-0.26,0.3c-0.06,0.03-0.16,0.06-0.32,0.08
		c-0.16,0.02-0.43,0.03-0.81,0.03c-0.26,0-0.54,0-0.86-0.01c-0.31-0.01-0.61-0.01-0.9-0.03c-0.33-0.01-0.67-0.02-1-0.03V3.9h0.72
		c-0.09-0.13-0.16-0.27-0.21-0.42c-0.05-0.15-0.08-0.33-0.08-0.54c0-0.22,0.05-0.45,0.16-0.67c0.11-0.22,0.25-0.42,0.45-0.6
		c0.19-0.17,0.42-0.32,0.68-0.43c0.26-0.11,0.55-0.17,0.85-0.17c0.24,0,0.47,0.03,0.7,0.08c0.23,0.06,0.45,0.15,0.65,0.29l-0.5,1.36
		c-0.21-0.09-0.4-0.15-0.56-0.19c-0.16-0.03-0.32-0.05-0.49-0.05c-0.19,0-0.34,0.04-0.44,0.13c-0.1,0.08-0.15,0.18-0.15,0.29
		c0,0.22,0.09,0.41,0.27,0.56c0.18,0.15,0.43,0.22,0.76,0.22c0.21,0,0.49-0.01,0.83-0.03c0.34-0.02,0.68-0.06,1-0.12L40.55,4.09z
		 M37.32,17.23V6.09h1.88v11.14H37.32z"/>
	<path d="M53.3,9.74h1.14v6.14h2.19l0.34,0.34v0.67l-0.34,0.34h-2.27c-0.21,1.28-0.7,2.26-1.46,2.95c-0.76,0.69-1.88,1.03-3.36,1.03
		c-0.74,0-1.4-0.12-1.99-0.35c-0.59-0.24-1.09-0.57-1.5-1.01c-0.41-0.44-0.73-0.96-0.95-1.58c-0.22-0.62-0.34-1.31-0.34-2.09
		c0-0.34,0.02-0.71,0.05-1.12c0.03-0.41,0.11-0.84,0.22-1.29l1.11,0.2c-0.09,0.39-0.15,0.75-0.19,1.07
		c-0.03,0.32-0.05,0.64-0.05,0.97c0,1.32,0.3,2.3,0.91,2.92c0.61,0.62,1.55,0.93,2.84,0.93c0.61,0,1.14-0.06,1.59-0.19
		c0.45-0.13,0.83-0.35,1.14-0.66c0.3-0.31,0.53-0.72,0.68-1.22c0.15-0.5,0.23-1.13,0.23-1.88V9.74z M48.46,9.14
		c0-0.24,0.08-0.44,0.24-0.61c0.16-0.17,0.36-0.25,0.6-0.25c0.24,0,0.44,0.08,0.61,0.25c0.17,0.17,0.25,0.37,0.25,0.61
		c0,0.24-0.08,0.43-0.25,0.6c-0.17,0.16-0.37,0.24-0.61,0.24c-0.24,0-0.43-0.08-0.6-0.24C48.54,9.57,48.46,9.37,48.46,9.14z"/>
	<path d="M56.63,17.23l-0.34-0.34v-0.67l0.34-0.34h9.39c-0.34-0.92-0.72-1.69-1.14-2.3c-0.42-0.62-0.86-1.11-1.32-1.48
		c-0.46-0.37-0.94-0.63-1.43-0.78c-0.49-0.15-0.98-0.23-1.46-0.23c-0.29,0-0.62,0.05-0.98,0.16c-0.36,0.11-0.72,0.29-1.09,0.55
		l-0.64-1.14c0.5-0.36,0.99-0.6,1.46-0.72c0.47-0.12,0.94-0.19,1.41-0.19c0.61,0,1.21,0.11,1.82,0.32c0.61,0.21,1.19,0.56,1.74,1.05
		c0.56,0.49,1.07,1.12,1.56,1.9c0.48,0.78,0.91,1.74,1.3,2.87h1.73l0.34,0.34v0.67l-0.34,0.34H56.63z"/>
	<path d="M69.3,15.88c0.77,0,1.31-0.15,1.61-0.44c0.3-0.29,0.45-0.76,0.45-1.41V9.74h1.14v4.07c0,0.54-0.04,0.97-0.13,1.3
		c-0.08,0.33-0.24,0.58-0.46,0.77h2.56c0.77,0,1.31-0.15,1.61-0.44c0.3-0.29,0.45-0.76,0.45-1.41V9.74h1.14v4.07
		c0,0.54-0.04,0.97-0.13,1.3c-0.08,0.33-0.24,0.58-0.46,0.77h1.95c0.77,0,1.31-0.15,1.61-0.44c0.3-0.29,0.45-0.76,0.45-1.41V9.22
		h1.14v4.59c0,0.54-0.04,0.97-0.13,1.3c-0.08,0.33-0.24,0.58-0.46,0.77h2.29l0.34,0.34v0.67l-0.34,0.34H68.98l-0.34-0.34v-0.67
		l0.34-0.34H69.3z M75.02,7.22c0-0.24,0.08-0.44,0.24-0.61c0.16-0.17,0.36-0.25,0.6-0.25c0.24,0,0.44,0.08,0.61,0.25
		c0.17,0.17,0.25,0.37,0.25,0.61s-0.08,0.43-0.25,0.6c-0.17,0.16-0.37,0.24-0.61,0.24c-0.24,0-0.43-0.08-0.6-0.24
		C75.1,7.65,75.02,7.45,75.02,7.22z M76.23,5.08c0-0.25,0.08-0.45,0.25-0.62c0.17-0.17,0.36-0.25,0.59-0.25
		c0.25,0,0.45,0.08,0.62,0.25c0.17,0.17,0.25,0.38,0.25,0.62c0,0.22-0.08,0.42-0.25,0.59c-0.17,0.17-0.38,0.25-0.62,0.25
		c-0.22,0-0.42-0.08-0.59-0.25C76.32,5.5,76.23,5.31,76.23,5.08z M77.48,7.22c0-0.24,0.08-0.44,0.24-0.61
		c0.16-0.17,0.35-0.25,0.57-0.25c0.25,0,0.45,0.08,0.62,0.25c0.17,0.17,0.25,0.37,0.25,0.61s-0.08,0.43-0.25,0.6
		c-0.17,0.16-0.38,0.24-0.62,0.24c-0.22,0-0.42-0.08-0.57-0.24C77.56,7.65,77.48,7.45,77.48,7.22z"/>
	<path d="M87.49,13.91c0,0.53-0.05,1-0.16,1.4c-0.11,0.41-0.29,0.75-0.54,1.03c-0.25,0.28-0.59,0.5-1.01,0.65
		c-0.42,0.15-0.95,0.23-1.59,0.23h-0.27l-0.34-0.34v-0.67l0.34-0.34h0.64c0.71,0,1.18-0.15,1.42-0.44c0.24-0.29,0.36-0.73,0.36-1.31
		V9.74h1.14V13.91z M83.6,19.08c0-0.24,0.08-0.44,0.24-0.61c0.16-0.17,0.36-0.25,0.6-0.25c0.24,0,0.44,0.08,0.61,0.25
		c0.17,0.17,0.25,0.37,0.25,0.61s-0.08,0.43-0.25,0.6c-0.17,0.16-0.37,0.24-0.61,0.24c-0.24,0-0.43-0.08-0.6-0.24
		C83.68,19.51,83.6,19.31,83.6,19.08z M86.06,19.08c0-0.24,0.08-0.44,0.24-0.61c0.16-0.17,0.35-0.25,0.57-0.25
		c0.25,0,0.45,0.08,0.62,0.25c0.17,0.17,0.25,0.37,0.25,0.61s-0.08,0.43-0.25,0.6c-0.17,0.16-0.38,0.24-0.62,0.24
		c-0.22,0-0.42-0.08-0.57-0.24C86.14,19.51,86.06,19.31,86.06,19.08z"/>
	<path d="M96.61,15.06c0,1.08-0.12,1.99-0.36,2.75c-0.24,0.76-0.59,1.38-1.03,1.86c-0.45,0.48-1,0.84-1.66,1.06
		c-0.66,0.22-1.39,0.34-2.21,0.34l-0.17-1.35c1.17,0,2.07-0.19,2.72-0.57c0.64-0.38,1.1-1.02,1.35-1.92h-1.53
		c-0.8,0-1.44-0.07-1.94-0.22c-0.5-0.15-0.89-0.34-1.16-0.59c-0.27-0.25-0.46-0.53-0.56-0.85c-0.1-0.32-0.15-0.66-0.15-1.02
		c0-0.62,0.1-1.22,0.31-1.81c0.21-0.59,0.48-1.11,0.82-1.57c0.34-0.46,0.73-0.83,1.16-1.1c0.43-0.27,0.87-0.41,1.3-0.41
		c0.49,0,0.93,0.15,1.32,0.46c0.39,0.31,0.71,0.72,0.98,1.22c0.26,0.5,0.47,1.08,0.61,1.73C96.54,13.72,96.61,14.38,96.61,15.06z
		 M91.04,14.2c0,0.25,0.03,0.47,0.1,0.67c0.07,0.2,0.2,0.38,0.41,0.53c0.21,0.15,0.51,0.27,0.91,0.35c0.4,0.08,0.93,0.13,1.61,0.13
		h1.38c0.01-0.06,0.02-0.14,0.02-0.26c0-0.12,0-0.21,0-0.28c0-0.57-0.05-1.12-0.14-1.64c-0.1-0.52-0.24-0.98-0.42-1.39
		c-0.18-0.4-0.41-0.72-0.68-0.96C93.95,11.12,93.64,11,93.29,11c-0.27,0-0.54,0.09-0.81,0.28c-0.27,0.19-0.51,0.43-0.72,0.73
		c-0.21,0.3-0.39,0.65-0.52,1.03C91.11,13.42,91.04,13.81,91.04,14.2z"/>
	<path d="M101.74,20.12c0-0.48,0.06-0.92,0.19-1.3c0.13-0.39,0.34-0.76,0.62-1.12c0.29-0.36,0.65-0.71,1.1-1.06
		c0.45-0.35,1-0.72,1.65-1.11c-1.04-0.91-1.79-1.69-2.25-2.36c-0.46-0.66-0.69-1.14-0.69-1.45c0-0.09,0.03-0.22,0.1-0.38
		c0.07-0.16,0.15-0.33,0.25-0.51c0.1-0.18,0.21-0.35,0.32-0.52c0.11-0.17,0.21-0.3,0.3-0.4c0.19-0.22,0.57-0.39,1.14-0.5
		c0.57-0.11,1.25-0.17,2.04-0.17c1.36,0,2.38,0.18,3.07,0.53c0.69,0.35,1.03,0.91,1.03,1.66c0,0.4-0.06,0.78-0.18,1.14
		c-0.12,0.35-0.29,0.69-0.52,1.02c-0.23,0.33-0.52,0.64-0.87,0.95c-0.35,0.31-0.75,0.63-1.21,0.95c0.41,0.15,0.89,0.25,1.41,0.31
		c0.53,0.06,1.14,0.09,1.85,0.09h0.69l0.34,0.34v0.67l-0.34,0.34h-0.52c-1.04,0-1.95-0.08-2.73-0.25c-0.77-0.17-1.48-0.43-2.12-0.79
		c-0.73,0.38-1.32,0.73-1.78,1.04c-0.46,0.31-0.82,0.62-1.08,0.91c-0.26,0.29-0.44,0.58-0.54,0.87c-0.1,0.29-0.15,0.59-0.15,0.9
		c0,0.35,0.06,0.68,0.17,1c0.11,0.32,0.3,0.6,0.56,0.84c0.26,0.24,0.6,0.43,1.02,0.57s0.94,0.21,1.56,0.21l-0.4,1.26
		c-0.66,0-1.24-0.1-1.74-0.3c-0.5-0.2-0.92-0.47-1.26-0.81c-0.34-0.34-0.6-0.73-0.77-1.17C101.83,21.07,101.74,20.6,101.74,20.12z
		 M103.57,11.34c0,0.12,0.04,0.29,0.13,0.5c0.08,0.21,0.24,0.46,0.45,0.77c0.22,0.3,0.52,0.66,0.9,1.06
		c0.38,0.4,0.87,0.86,1.46,1.36c0.56-0.35,1.03-0.67,1.4-0.97c0.37-0.3,0.67-0.58,0.89-0.84c0.22-0.26,0.38-0.51,0.47-0.74
		c0.09-0.23,0.13-0.45,0.13-0.66c0-0.39-0.27-0.7-0.8-0.91c-0.53-0.21-1.23-0.32-2.09-0.32c-0.63,0-1.14,0.03-1.52,0.08
		s-0.69,0.12-0.9,0.19c-0.21,0.08-0.35,0.16-0.42,0.25C103.61,11.19,103.57,11.27,103.57,11.34z"/>
	<path d="M118.06,15.88l0.34,0.34v0.67l-0.34,0.34h-6.26l-0.34-0.34v-0.67l0.34-0.34h0.5c0.77,0,1.31-0.15,1.61-0.44
		c0.3-0.29,0.45-0.76,0.45-1.41V9.74h1.14v4.07c0,0.54-0.04,0.97-0.13,1.3c-0.08,0.33-0.24,0.58-0.46,0.77H118.06z M113.25,19.08
		c0-0.24,0.08-0.44,0.24-0.61c0.16-0.17,0.36-0.25,0.6-0.25c0.24,0,0.44,0.08,0.61,0.25c0.17,0.17,0.25,0.37,0.25,0.61
		s-0.08,0.43-0.25,0.6c-0.17,0.16-0.37,0.24-0.61,0.24c-0.24,0-0.43-0.08-0.6-0.24C113.33,19.51,113.25,19.31,113.25,19.08z"/>
	<path d="M133.5,15.88l0.34,0.34v0.67l-0.34,0.34h-15.44l-0.34-0.34v-0.67l0.34-0.34h1.92V4.74h1.14v9.17
		c0.47-0.61,0.95-1.17,1.45-1.71c0.49-0.53,1.01-1,1.54-1.39c0.53-0.39,1.09-0.7,1.67-0.93c0.58-0.22,1.19-0.34,1.83-0.34
		c1.4,0,2.47,0.52,3.2,1.56c0.73,1.04,1.1,2.63,1.1,4.76H133.5z M127.38,10.9c-1.02,0-2.04,0.37-3.07,1.11
		c-1.03,0.74-2.09,1.9-3.19,3.47v0.4h9.64c0-1.77-0.29-3.05-0.86-3.82C129.33,11.29,128.49,10.9,127.38,10.9z"/>
	<path d="M137.07,13.91c0,0.53-0.05,1-0.16,1.4c-0.11,0.41-0.29,0.75-0.54,1.03c-0.25,0.28-0.59,0.5-1.01,0.65
		c-0.42,0.15-0.95,0.23-1.59,0.23h-0.27l-0.34-0.34v-0.67l0.34-0.34h0.64c0.71,0,1.18-0.15,1.42-0.44c0.24-0.29,0.36-0.73,0.36-1.31
		V9.74h1.14V13.91z M133.18,19.08c0-0.24,0.08-0.44,0.24-0.61c0.16-0.17,0.36-0.25,0.6-0.25c0.24,0,0.44,0.08,0.61,0.25
		c0.17,0.17,0.25,0.37,0.25,0.61s-0.08,0.43-0.25,0.6c-0.17,0.16-0.37,0.24-0.61,0.24c-0.24,0-0.43-0.08-0.6-0.24
		C133.27,19.51,133.18,19.31,133.18,19.08z M135.64,19.08c0-0.24,0.08-0.44,0.24-0.61c0.16-0.17,0.35-0.25,0.57-0.25
		c0.25,0,0.45,0.08,0.62,0.25c0.17,0.17,0.25,0.37,0.25,0.61s-0.08,0.43-0.25,0.6c-0.17,0.16-0.38,0.24-0.62,0.24
		c-0.22,0-0.42-0.08-0.57-0.24C135.72,19.51,135.64,19.31,135.64,19.08z"/>
	<path d="M151.94,15.88c-0.34-0.92-0.72-1.69-1.14-2.3c-0.42-0.62-0.86-1.11-1.32-1.48c-0.46-0.37-0.94-0.63-1.43-0.78
		c-0.49-0.15-0.98-0.23-1.46-0.23c-0.29,0-0.62,0.05-0.98,0.16c-0.36,0.11-0.72,0.29-1.09,0.55l-0.64-1.14
		c0.5-0.36,0.99-0.6,1.46-0.72c0.47-0.12,0.94-0.19,1.41-0.19c0.61,0,1.21,0.11,1.82,0.32c0.61,0.21,1.19,0.56,1.74,1.05
		c0.56,0.49,1.07,1.12,1.56,1.9c0.48,0.78,0.91,1.74,1.3,2.87h1.73l0.34,0.34v0.67l-0.34,0.34h-7.27c-0.7,0-1.28,0.06-1.76,0.19
		c-0.48,0.13-0.86,0.3-1.16,0.52c-0.3,0.22-0.51,0.48-0.65,0.77c-0.13,0.3-0.2,0.61-0.2,0.95c0,0.37,0.06,0.72,0.19,1.06
		c0.13,0.34,0.34,0.63,0.64,0.88c0.3,0.25,0.69,0.45,1.17,0.61c0.48,0.15,1.07,0.23,1.77,0.23l-0.2,1.35
		c-0.84,0-1.56-0.11-2.16-0.34c-0.6-0.22-1.09-0.52-1.46-0.88c-0.38-0.36-0.65-0.78-0.82-1.25c-0.17-0.47-0.26-0.95-0.26-1.44
		c0-0.57,0.1-1.1,0.3-1.59c0.2-0.49,0.53-0.91,0.98-1.27c0.45-0.36,1.02-0.64,1.72-0.84c0.7-0.2,1.54-0.3,2.54-0.3H151.94z
		 M147.94,19.78c0-0.24,0.08-0.44,0.24-0.61c0.16-0.17,0.36-0.25,0.6-0.25s0.44,0.08,0.61,0.25c0.17,0.17,0.25,0.37,0.25,0.61
		s-0.08,0.43-0.25,0.6c-0.17,0.16-0.37,0.24-0.61,0.24s-0.43-0.08-0.6-0.24C148.02,20.22,147.94,20.02,147.94,19.78z"/>
	<path d="M161.16,15.88l0.34,0.34v0.67l-0.34,0.34h-6.26l-0.34-0.34v-0.67l0.34-0.34h0.5c0.77,0,1.31-0.15,1.61-0.44
		c0.3-0.29,0.45-0.76,0.45-1.41V9.74h1.14v4.07c0,0.54-0.04,0.97-0.13,1.3c-0.08,0.33-0.24,0.58-0.46,0.77H161.16z M155.96,7.22
		c0-0.24,0.08-0.44,0.24-0.61c0.16-0.17,0.36-0.25,0.6-0.25c0.24,0,0.44,0.08,0.61,0.25c0.17,0.17,0.25,0.37,0.25,0.61
		s-0.08,0.43-0.25,0.6c-0.17,0.16-0.37,0.24-0.61,0.24c-0.24,0-0.43-0.08-0.6-0.24C156.04,7.65,155.96,7.45,155.96,7.22z
		 M158.42,7.22c0-0.24,0.08-0.44,0.24-0.61c0.16-0.17,0.35-0.25,0.57-0.25c0.25,0,0.45,0.08,0.62,0.25
		c0.17,0.17,0.25,0.37,0.25,0.61s-0.08,0.43-0.25,0.6c-0.17,0.16-0.38,0.24-0.62,0.24c-0.22,0-0.42-0.08-0.57-0.24
		C158.5,7.65,158.42,7.45,158.42,7.22z"/>
	<path d="M167.42,15.88l0.34,0.34v0.67l-0.34,0.34h-6.26l-0.34-0.34v-0.67l0.34-0.34h0.5c0.77,0,1.31-0.15,1.61-0.44
		c0.3-0.29,0.45-0.76,0.45-1.41V9.74h1.14v4.07c0,0.54-0.04,0.97-0.13,1.3c-0.08,0.33-0.24,0.58-0.46,0.77H167.42z M163.45,7.22
		c0-0.24,0.08-0.44,0.24-0.61c0.16-0.17,0.36-0.25,0.6-0.25c0.24,0,0.44,0.08,0.61,0.25c0.17,0.17,0.25,0.37,0.25,0.61
		s-0.08,0.43-0.25,0.6c-0.17,0.16-0.37,0.24-0.61,0.24c-0.24,0-0.43-0.08-0.6-0.24C163.53,7.65,163.45,7.45,163.45,7.22z"/>
	<path d="M167.07,16.89v-0.67l0.35-0.34c0.49,0,0.85-0.1,1.07-0.29c0.22-0.2,0.41-0.49,0.58-0.88c0.38-0.89,0.73-1.63,1.05-2.25
		c0.32-0.61,0.64-1.1,0.96-1.48c0.32-0.38,0.64-0.65,0.98-0.82c0.33-0.17,0.7-0.25,1.1-0.25c0.43,0,0.83,0.13,1.21,0.39
		c0.38,0.26,0.71,0.6,0.99,1.03c0.28,0.43,0.5,0.92,0.66,1.47c0.16,0.56,0.24,1.12,0.24,1.71c0,0.86-0.25,1.55-0.74,2.04
		c-0.49,0.5-1.32,0.75-2.47,0.75c-0.7,0-1.32-0.07-1.87-0.2c-0.55-0.13-1.12-0.38-1.7-0.72c-0.22,0.29-0.49,0.51-0.78,0.65
		c-0.3,0.14-0.73,0.21-1.29,0.21L167.07,16.89z M172.96,11.26c-0.21,0-0.42,0.06-0.61,0.17c-0.2,0.11-0.4,0.31-0.61,0.59
		c-0.21,0.28-0.44,0.66-0.69,1.14c-0.25,0.48-0.52,1.09-0.82,1.83c0.52,0.33,1.03,0.57,1.54,0.73c0.51,0.16,1.09,0.24,1.72,0.24
		c0.66,0,1.1-0.09,1.32-0.27c0.22-0.18,0.33-0.47,0.33-0.86c0-0.45-0.06-0.89-0.17-1.31c-0.11-0.43-0.26-0.81-0.45-1.14
		c-0.19-0.34-0.42-0.61-0.69-0.81C173.54,11.36,173.26,11.26,172.96,11.26z"/>
</g>
</svg>
