<svg xmlns="http://www.w3.org/2000/svg" viewBox="0 0 241.76636 283.02535"><title>Asset 4</title><g id="a6631057-7f9a-4d41-8e21-24dbb918090f" data-name="Layer 2"><g id="e903c14c-830c-4f41-8de7-cd3d46c74e1c" data-name="Layer 1"><path d="M2.99882,191.46538c7.89169-1.65158,12.77428-7.50012,18.0035-12.87939,2.90119-2.98449,2.84825-4.711-1.09318-4.37187,3.86852-4.26662,7.67448-9.14331,12.22474-13.18113,2.10651-1.8693,2.164-3.33929,1.74778-5.48558,4.96527-3.18088,7.761-8.17149,10.80608-12.95411,4.15529.0012,6.87142-1.42676,6.18736-6.231,4.664-3.14752,8.05341-7.61141,11.13921-12.08795,4.42128-6.41379,11.23619-11.07808,13.75474-18.84844l1.095-.76132c1.36675-.90561.86372-2.408,1.16624-3.65561,1.34866-4.421,5.54573-6.50468,8.125-9.9144q2.54753,3.66634,5.09527,7.33256a20.90712,20.90712,0,0,1-1.73123,3.111c-8.36781,10.47708-16.59461,21.07548-25.25006,31.31088-5.4462,6.44051-9.71939,13.89035-16.38039,19.2943-4.429-.01178-6.17423,2.64837-6.59406,6.62728.13919,2.60746-1.607,4.21522-2.8966,6.22553-3.66845,5.71911-10.07848,9.54064-11.59361,16.72154-6.651,5.45375-14.32454,8.79858-22.57795,10.9476Q3.61268,192.06522,2.99882,191.46538Z" fill="#9838b6"/><polygon points="70.341 126.509 86.321 118.962 131.156 117.187 143.808 127.397 150.688 146.485 145.583 182.441 139.591 196.868 124.276 202.639 81.438 197.978 67.233 191.985 65.902 170.456 70.341 126.509" fill="#f7e7f3"/><path d="M133.11025,214.13885c-3.357-.04426-6.7175-.01025-10.06973-.16019-2.24622-.10044-4.09375.60525-4.64767,2.77622-1.25832,4.93257-5.106,5.352-9.11129,5.682-1.86438-3.88059,1.85146-5.33614,3.43491-7.62491,4.97679-7.19337,11.79878-13.022,15.631-21.07307,7.67718-2.51348,12.66958-7.52392,14.44237-15.52874,4.19145-2.79386,6.12531-7.5895,9.624-10.94023,4.43279-4.24512,6.5046-10.86926,13.0372-12.98077q4.14574-.51366,8.29147-1.02734c-.69792,3.001-2.75361,5.15707-4.601,7.454-12.47643,15.51153-24.7926,31.1559-37.51146,46.46571C128.53076,210.91218,128.8001,212.61982,133.11025,214.13885Z" fill="#d53380"/><path d="M165.41963,193.74874c-3.28624,4.24271-1.48581,9.1591-1.41465,13.68409.07853,4.9956-.90514,7.6397-6.45772,6.60711a12.1349,12.1349,0,0,0-3.56922-.00649c-1.66955.195-3.99444-.9573-4.86815.826-1.00269,2.04651.74721,3.64861,2.36711,4.90967a12.19017,12.19017,0,0,0-5.35215,5.34949q-4.74813-4.25735-9.49642-8.51469c7.89023-10.10765,15.46286-20.48628,23.77715-30.23206,6.00515-7.039,10.85325-15.0648,17.907-21.20925,2.55777,1.45694,5.16337,2.83743,7.65713,4.39685a4.74888,4.74888,0,0,1,2.54589,4.93654,3.92042,3.92042,0,0,1-4.14523,3.51694c-8.08046-.998-12.2504,6.19389-18.655,8.698-2.1776.8514-2.15427,4.60917-.373,7.14233Z" fill="#dd3372"/><path d="M164.31194,113.63682c3.63724-.5189,6.56541-2.588,9.61979-4.38768,2.51541-1.48216,5.35907-2.66245,7.48032.07746,2.36536,3.0552.16938,5.67711-2.10586,7.64048-2.37593,2.05016-5.1547,3.62726-7.70584,5.48193-5.36571,3.90083-9.14783,8.52523-7.81958,15.842a70.23488,70.23488,0,0,1,.524,8.83223c-2.75813-1.85909-.13423-5.26855-2.25547-7.70708a71.09058,71.09058,0,0,0-5.24154,5.5033c-4.79028,5.00767-7.35761,12.04238-13.96268,15.37277q-.02887-11.3492-.05768-22.69841c2.45081-1.70214,4.17264-4.07479,6.13632-6.27223C154.13225,125.493,157.76206,118.28378,164.31194,113.63682Z" fill="#ca3390"/><path d="M97.37712,104.52171c3.96506-.52978,9.77065,1.80111,8.82249-6.15394-.18811-1.579,1.71768-1.04158,2.60911-.17465,2.71234,2.63761,5.13158,1.07,7.38757-.584,1.78738-1.31047,3.2912-2.61874.40372-4.86454-1.53853-1.19662-2.06707-3.74623-2.9305-5.73756-.60255-1.38964-1.68749-3.20174.25344-4.12219,1.69376-.80324,2.89368.7488,3.76382,2.1121.52592.824.78344,1.82142,1.32161,2.63507.72169,1.09107.43485,3.14525,2.07713,3.23909,2.09128.11949,1.54918-2.44069,2.69558-3.419a2.08512,2.08512,0,0,0,2.17316-1.24352c1.16412-2.49257,2.26729-5.01611,3.51293-7.46727a3.74658,3.74658,0,0,1,4.37745-2.2136c2.01829.40987,2.94063,1.70327,3.15449,3.71846.39343,3.70755,1.16747,7.40637-.127,11.08909-.42172-1.46532.58848-3.64674-1.06977-4.34021-2.06736-.86458-2.99313,1.43687-4.132,2.64653a58.07656,58.07656,0,0,0-4.469,5.51641c-6.62527,9.0366-14.84878,16.85662-20.35653,26.74238q-8.96.00087-17.92.0016c1.54633-4.81667,5.33436-8.13713,8.112-12.131C98.22488,108.06253,100.29559,106.47145,97.37712,104.52171Z" fill="#ac34b1"/><path d="M178.31261,165.16257c-7.05378,6.14445-11.90188,14.17023-17.907,21.20925-8.31429,9.74578-15.88692,20.12441-23.77715,30.23209a4.11774,4.11774,0,0,1-3.51818-2.4651c-4.31015-1.519-4.57949-3.22663-1.48019-6.95728,12.71886-15.30981,25.035-30.95418,37.51146-46.46571,1.84739-2.29689,3.90308-4.45292,4.601-7.454,1.45315.3798,2.99372,1.59759,2.20532,2.74436C173.07107,160.19114,176.68243,162.3534,178.31261,165.16257Z" fill="#d93379"/><path d="M97.37712,104.52171c2.91847,1.94974.84776,3.54082-.34043,5.24925-2.7776,3.99386-6.56563,7.31432-8.112,12.131-11.72973,1.6522-16.99292,7.26268-18.08049,19.27352a49.8628,49.8628,0,0,0-7.3848,7.63275c-3.99233,4.77938-7.15265,10.36783-12.56611,13.87-1.0646-3.49357,1.80473-8.10944-3.00539-10.53444,6.66195-5.40446,10.93514-12.8543,16.38134-19.29481,8.65545-10.2354,16.88225-20.8338,25.25006-31.31088a20.90712,20.90712,0,0,0,1.73123-3.111Q94.31378,101.47454,97.37712,104.52171Z" fill="#a036b6"/><path d="M50.8934,162.67822c5.41339-3.50217,8.57371-9.09062,12.566-13.87a49.8628,49.8628,0,0,1,7.3848-7.63275q.00056,9.557.00081,19.114a57.40449,57.40449,0,0,0-7.37781,7.60318c-5.06188,5.71966-8.58253,12.81638-15.15414,17.1923-2.27356.48068-4.6691,1.67017-6.79676,1.30368-5.47887-.94371-5.94683,1.5188-4.8667,5.79939,1.86467-.372,3.55894-.7101,5.2532-1.04815q.7844.57927,1.56886,1.15854c-3.07844,1.19351-6.12538,2.49941-9.49314,2.66036q-.00875-.62608-.01757-1.2522c-1.269-2.81326-5.262-1.81075-6.65444-5.23961a7.48789,7.48789,0,0,1,4.17571-1.91953c4.09207-2.39357,6.71561-6.25695,9.73411-9.725,5.80166.31528,10.1681-1.0293,9.49132-8.20659q-.60186-1.86311-1.20378-3.72616Q50.19862,163.784,50.8934,162.67822Z" fill="#a934b3"/><path d="M76.95541,214.1305c-4.34894-.52209-3.321,5.769-7.40463,5.74529-1.34094-1.704,1.99284-2.708-.05637-5.55039-7.85705,9.65515-14.97405,19.6492-24.52413,27.28227-1.3526-.2027-3.49966.0249-3.89-.69715-.81152-1.50138.745-2.81942,1.73787-4.06349q18.14024-22.72866,36.24322-45.48712c2.82092,2.66382,6.53567,1.8522,9.86529,2.53772-2.38694,4.55886-6.23133,8.01247-9.17218,12.13571C78.097,208.35707,74.7455,210.3689,76.95541,214.1305Z" fill="#bf339f"/><path d="M79.0612,191.35991Q60.9448,214.10759,42.81812,236.847c-.99285,1.24407-2.54939,2.56211-1.73787,4.06349.39037.722,2.53743.49445,3.89.69715-2.92613,1.63532-6.18612,1.31356-8.19093-.80069-1.94465-2.05088-.92212-5.3302-.01524-7.92436,1.62617-4.65171,5.31154-7.75268,8.91808-10.83261,2.83237-2.41873,5.76352-4.72182,8.57525-7.01474-.81706-1.64972-3.04505-.25676-3.35288-2.18657,3.83024-2.99642,6.06749-7.37427,9.38311-10.81822,4.82135-5.00789,7.71758-11.76025,13.99688-15.44817Q76.67317,188.97109,79.0612,191.35991Z" fill="#bb33a4"/><path d="M164.31194,113.63682c-6.54988,4.647-10.17969,11.85618-15.38827,17.68481-1.96368,2.19744-3.68551,4.57009-6.13632,6.27223a23.23557,23.23557,0,0,0-7.26121-12.25033c1.14844-3.92645,4.73909-6.26344,6.51575-9.62485,4.59517-8.694,11.288-12.29776,20.93458-10.38793C164.88613,107.864,163.08147,110.9944,164.31194,113.63682Z" fill="#c2349c"/><path d="M128.34746,193.73894c-3.83221,8.05107-10.6542,13.8797-15.631,21.07307-1.58345,2.28877-5.29929,3.74432-3.43491,7.62491q-1.012.6363-2.02449,1.27261c-3.16127,1.79132-6.15944,3.75391-7.6731,7.2809-1.48093-1.54815-.58965-3.689-1.32708-5.74317-2.18979,1.38395-1.99285,3.52281-2.35377,5.406-1.24367-.96383-.74378-2.48257-1.17856-3.70389q.184-2.29707.36785-4.59407c1.293-2.55048,2.29514-5.12484,4.12626-7.53624,5.30651-6.988,11.78851-13.09466,15.98965-20.91785Z" fill="#cf3388"/><path d="M106.84474,121.90035c5.50775-9.88576,13.73126-17.70578,20.35653-26.74238a58.07656,58.07656,0,0,1,4.469-5.51641c1.1389-1.20966,2.06467-3.51111,4.132-2.64653,1.65825.69347.648,2.87489,1.06977,4.34021q.73617,5.14176,1.47021,10.28155c-7.93835,4.88514-12.55955,12.57614-17.16245,20.28261Q114.01228,121.8999,106.84474,121.90035Z" fill="#b233ac"/><path d="M73.647,255.761c4.57534,2.96951,5.20618,8.7288,8.76,12.42914.20481.2132.24863.97743.09639,1.079-4.24781,2.83306-6.01529,8.95-11.10393,10.07-5.2201,1.149-11.297,1.94425-14.71076-4.40253,2.54632-5.26866,7.08054-8.98906,10.5651-13.528C69.002,259.13133,69.96747,255.8826,73.647,255.761Z" fill="#d23484"/><path d="M121.17986,121.89936c4.6029-7.70643,9.2241-15.39743,17.16245-20.28257.58819.38539,1.37674,1.459,1.86671.66,2.5141-4.10011,3.9119-3.94481,4.96841.85537.45235,2.055,2.61449,1.06718,4.03862,1.25269,4.56571.59482,9.29271-1.13264,13.7605.94606-9.64663-1.90994-16.33949,1.6938-20.93466,10.38782-1.77666,3.36141-5.36731,5.6984-6.51575,9.62511C131.137,122.55937,126.23358,121.91639,121.17986,121.89936Z" fill="#b933a5"/><path d="M142.845,160.29227c6.60507-3.33039,9.1724-10.3651,13.96268-15.37277a71.09058,71.09058,0,0,1,5.24154-5.5033c2.12124,2.43853-.50266,5.848,2.2554,7.70708-.38965,2.51209.56857,4.80862,1.1464,7.16592-6.5326,2.11151-8.60441,8.73565-13.0372,12.98077-3.49871,3.35073-5.43257,8.14637-9.624,10.94023Q142.8175,169.25126,142.845,160.29227Z" fill="#d13386"/><path d="M48.3131,185.085c6.57161-4.376,10.09226-11.47268,15.15414-17.19234a57.40062,57.40062,0,0,1,7.37788-7.60318q.00875,8.36217.01735,16.72432c-2.876.32154-4.1224,2.63863-5.75273,4.56808-4.75426,5.62655-8.55833,12.0551-14.23464,16.90332-.142-2.52216-.28414-5.04431-.44178-7.84157-2.46153.58516-4.71153,1.12-6.96162,1.65486q-.7845-.57937-1.56762-1.15807a51.52059,51.52059,0,0,0,5.57548-2.77662C48.50639,187.70181,50.70521,186.83135,48.3131,185.085Z" fill="#b033ae"/><path d="M50.8751,198.48522c5.67631-4.84822,9.48038-11.27677,14.23464-16.90332,1.63033-1.92945,2.87677-4.24654,5.75273-4.56808.41152,3.45026,1.87706,6.52356,3.42186,9.56849-6.27908,3.68792-9.17531,10.44028-13.99666,15.44817-3.31562,3.444-5.55287,7.8218-9.38311,10.81822Q50.88979,205.66694,50.8751,198.48522Z" fill="#b633a9"/><path d="M76.95541,214.1305c-2.20991-3.7616,1.14159-5.77343,2.799-8.09716,2.94085-4.12324,6.78524-7.57685,9.17218-12.13571l13.14227.00339c.25308,2.193-.94765,3.64672-2.30914,5.20133-2.98191,3.40487-5.75178,6.99526-8.61433,10.505-1.18483,1.4526-2.20152,2.88709.12993,4.22558-5.09848.81356-11.39127-1.99073-14.16071,5.41857C74.8171,217.03869,77.27017,215.64584,76.95541,214.1305Z" fill="#c63397"/><path d="M91.27536,213.83291c-2.33145-1.33849-1.31476-2.773-.12993-4.22558,2.86255-3.50972,5.63242-7.10011,8.61433-10.505,1.36149-1.55461,2.56222-3.00834,2.30914-5.20137q6.56967.00017,13.13942.00026c-4.20114,7.82319-10.68314,13.92987-15.98965,20.91785-1.83112,2.4114-2.8333,4.98576-4.12619,7.53624C95.22,218.88746,94.2378,215.91671,91.27536,213.83291Z" fill="#cb338f"/><path d="M60.33149,55.1773c-1.99787-5.75243-4.20588-11.44389-5.90015-17.28441-.78381-2.702-1.676-6.27507,2.21333-7.591,3.79634-1.28445,6.42885.78691,8.16686,4.1216,2.593,4.97517,2.55063,10.59071,3.8538,15.87941C65.73322,51.6643,64.74059,56.34139,60.33149,55.1773Z" fill="#654db7"/><path d="M75.769,105.42592c-2.51855,7.77038-9.33346,12.43467-13.75474,18.84846-3.0858,4.47654-6.47521,8.94043-11.13921,12.08795-2.17921-3.58095.05374-7.16416-.00561-10.74621,2.8134-2.14932,4.87755-5.04832,7.35-7.47872C63.37953,113.0651,65.34831,103.26636,75.769,105.42592Z" fill="#913ab6"/><path d="M49.50391,164.88974q.602,1.86309,1.20378,3.72623c-7.27747.43649-9.8273,2.64115-9.49132,8.20652-3.0185,3.468-5.642,7.3314-9.73411,9.725,3.22783-6.24623-2.57754-3.74366-4.67764-4.82976,1.51513-7.18094,7.92516-11.00247,11.59361-16.72158,1.2896-2.01031,3.03579-3.61807,2.89645-6.22539C44.86,159.69843,47.11529,162.38348,49.50391,164.88974Z" fill="#a036b7"/><path d="M75.769,105.42594c-10.42074-2.15958-12.38952,7.63916-17.54961,12.71146-2.4724,2.4304-4.53655,5.3294-7.34995,7.47872-.85286-4.48278,1.53757-9.9946-4.11045-12.956,2.54691-.20275,3.26852-2.10238,3.84592-4.13609-.29267-2.82554.47707-4.3364,3.82339-4.2015,7.4712.30121,14.95669.2492,22.436.34162Q76.31641,105.04554,75.769,105.42594Z" fill="#8a40b7"/><path d="M60.33149,55.1773c4.4091,1.16409,5.40173-3.513,8.33384-4.87438,2.01851,5.87819,5.91743,11.10092,6.13734,17.60678-2.468,2.01109-3.37666,5.76614-7.11335,6.35609A70.30964,70.30964,0,0,1,60.33149,55.1773Z" fill="#6f49b7"/><path d="M73.647,255.761c-3.67953.12158-4.645,3.37031-6.39319,5.64755-3.48456,4.539-8.01878,8.25935-10.5651,13.528-4.61048-2.3137-4.03126-6.50945-3.296-10.33845a12.00544,12.00544,0,0,1,9.3546-9.70251C66.327,254.003,70.16834,253.59449,73.647,255.761Z" fill="#cd348d"/><path d="M39.79268,107.80766A40.712,40.712,0,0,1,23.5046,90.17427c9.44976.75441,13.72419,7.95609,20.01654,11.748C43.12107,104.41787,41.47426,106.1238,39.79268,107.80766Z" fill="#6f4cb8"/><path d="M143.86872,3.00316a13.81923,13.81923,0,0,1,5.021,10.7807c.108,4.82734-2.21531,6.63379-6.66224,5.07659-3.11038-1.08911-6.315-2.26931-8.08418-5.45154C139.42565,11.84741,141.046,6.8634,143.86872,3.00316Z" fill="#8d3eb7"/><path d="M146.12485,225.11857a12.19017,12.19017,0,0,1,5.35215-5.34949c.91651.284,2.54406.422,2.63739.87561.82625,4.0146,1.06722,8.109,2.7063,11.99918,1.49186,3.54045,3.54355,6.98951,3.60115,12.27775C153.25672,239.18821,152.00809,230.40619,146.12485,225.11857Z" fill="#e3376b"/><path d="M86.1553,91.09459C83.576,94.50433,79.379,96.588,78.03036,101.009q-2.41793-7.3585-4.83527-14.72152c3.58511-.66241,5.604-2.87762,6.32487-6.37969Q82.83767,85.5012,86.1553,91.09459Z" fill="#8d3eb7"/><path d="M79.52,79.90782c-.72088,3.502-2.73976,5.71726-6.32494,6.37968q-2.753-6.0108-5.50578-12.02169c3.73677-.59,4.64541-4.345,7.11343-6.35611Q77.16164,73.908,79.52,79.90782Z" fill="#7e43b7"/><path d="M44.68774,142.5933c-3.045,4.78262-5.84081,9.77323-10.80608,12.95411-.24272-.51286-.8374-1.27618-.67663-1.5021,4.09907-5.76159-1.60859-5.28791-4.24774-6.75072a6.44752,6.44752,0,0,0,2.641-5.52907Q38.143,142.17943,44.68774,142.5933Z" fill="#8f3db7"/><path d="M143.86872,3.00316c-2.82274,3.86024-4.44307,8.84425-9.72544,10.40575-3.35967-3.82512-3.714-8.0795-.09129-11.5313C137.20429-1.126,140.9291-.362,143.86872,3.00316Z" fill="#8342b7"/><path d="M16.11156,145.63743c-1.83185-.67568-3.841-1.073-5.45021-2.0982-1.97017-1.25523-4.62448-3.61-2.315-5.53454,1.50973-1.25811,3.70134-6.75907,7.70905-1.62843,1.49864,1.91855,4.83942,2.39813,7.3401,3.53393C18.99321,139.30851,18.2576,143.36989,16.11156,145.63743Z" fill="#794cb9"/><path d="M16.11156,145.63743c2.146-2.26754,2.88165-6.32892,7.284-5.72724q4.10155.92744,8.20267,1.85518a6.44738,6.44738,0,0,1-2.6409,5.52922A52.74676,52.74676,0,0,1,16.11156,145.63743Z" fill="#8444b8"/><path d="M209.91845,232.68306c-2.8896-.26784-4.38627-1.9441-4.43016-4.61124-.06081-3.69765,2.50753-5.222,5.69425-5.36545,2.7539-.124,4.34522,1.85722,4.40085,4.48124C215.66185,230.89149,212.86018,231.98864,209.91845,232.68306Z" fill="#ee4c4e"/><path d="M39.79268,107.80766c1.68158-1.68386,3.32839-3.38979,3.72846-5.88539,4.098.33773,5.40173,3.67321,7.08382,6.60225-.5774,2.03322-1.299,3.93285-3.84592,4.1356A22.38806,22.38806,0,0,1,39.79268,107.80766Z" fill="#7c49b8"/><path d="M228.51633,14.43643c2.13641-.15332,3.49186,1.46884,3.52233,3.9385.0366,2.96985-2.19933,4.14491-4.75309,4.25031a3.7636,3.7636,0,0,1-4.23783-3.98733C223.12547,15.869,225.09987,14.52358,228.51633,14.43643Z" fill="#c541a3"/><path d="M88.80888,269.94061c.3211-4.69422.5647-9.39569,1.0083-14.07828.14124-1.49139.51929-3.61993,2.53175-3.28989,2.32328.38108,1.272,2.47352.96915,3.84938-1.096,4.979-2.32759,9.9281-3.508,14.8886Q89.30964,270.62561,88.80888,269.94061Z" fill="#dd5491"/><path d="M99.584,230.99043c1.51366-3.527,4.51183-5.48958,7.673-7.2809-.33087,2.35081-.535,4.72926-1.03791,7.04277-.33882,1.55858-1.12533,3.16554-3.00633,3.251C101.25578,234.0921,99.73672,233.26527,99.584,230.99043Z" fill="#d53380"/><path d="M30.15233,45.93117c-.41042,2.37564-1.49886,3.719-3.94471,3.72986-2.4366.01083-3.80495-1.309-3.92613-3.511-.12-2.17853,1.52628-3.00323,3.53495-3.09561C28.038,42.95215,29.64289,43.72424,30.15233,45.93117Z" fill="#615bbb"/><path d="M241.76636,51.068a3.36824,3.36824,0,0,1-3.653,3.06129c-2.0818.03469-3.47049-.94429-3.497-3.10287-.02807-2.29264,1.60984-2.93188,3.57593-2.981C240.23834,47.99432,241.61981,48.78125,241.76636,51.068Z" fill="#d1398b"/><path d="M132.58346,270.38316c-1.77039-.25418-3.347-.82723-3.45-2.74454-.11258-2.0966,1.20983-3.23969,3.26137-3.43484,1.85038-.176,3.15551.52045,3.15952,2.56455C135.55822,268.77048,134.68006,270.16609,132.58346,270.38316Z" fill="#e63b6b"/><path d="M88.80888,269.94061q.50068.68493,1.00123,1.36981c-1.02252,3.9904-1.99693,8.00226-5.26749,11.71493C83.759,277.51255,85.86554,273.59433,88.80888,269.94061Z" fill="#e0568e"/><path d="M229.85318,246.64348a2.996,2.996,0,0,1,3.30943-2.63743c1.56718.06074,2.67655.87244,2.54137,2.569-.13562,1.70174-1.01064,3.16848-2.86765,3.12864A2.96339,2.96339,0,0,1,229.85318,246.64348Z" fill="#ef7350"/><path d="M192.89133,236.5265c-.20357,2.61056-1.744,2.8161-3.39678,2.745-1.28063-.055-2.38788-.55574-2.223-2.07206a2.82132,2.82132,0,0,1,3.09806-2.81523A2.30248,2.30248,0,0,1,192.89133,236.5265Z" fill="#ee5563"/><path d="M94.72464,226.9494c.4347,1.22132-.06519,2.74006,1.17848,3.70389a18.123,18.123,0,0,1-2.093,11.25449C93.66128,236.00689,93.12851,231.42875,94.72464,226.9494Z" fill="#dd64a1"/><path d="M128.04378,70.22912c-.21867-3.67653-.18688-7.29582,3.29543-10.89934C131.48489,64.08335,129.63641,67.128,128.04378,70.22912Z" fill="#ba67c8"/><path d="M51.72278,243.68323c2.171-5.088,4.94478-7.73857,8.88374-11.41559C58.60748,237.50386,56.705,240.85474,51.72278,243.68323Z" fill="#c946a3"/><path d="M165.34241,193.85326c3.187-1.8017,5.81945-1.9176,7.36279,2.64768-3.05271-.00073-5.46006-.54218-7.28572-2.75344Z" fill="#e2487d"/><path d="M228.38589,118.09559a1.3822,1.3822,0,0,1-.8872-1.89759,2.89389,2.89389,0,0,1,3.62127-2.17436c.87408.19577.92658,1.11441.49122,1.91474A3.9047,3.9047,0,0,1,228.38589,118.09559Z" fill="#e66290"/><path d="M13.56006,181.31515a2.20834,2.20834,0,0,1-2.34049-2.03131c-.1494-1.40561.73182-2.14323,2.097-2.17137a2.4699,2.4699,0,0,1,2.43666,2.10254C16.21677,180.97129,14.53869,180.803,13.56006,181.31515Z" fill="#9f54c0"/><path d="M132.55444,18.74977c4.43571,1.742,4.78868,4.27406,5.23366,6.74708C135.05877,24.49142,134.85243,21.86511,132.55444,18.74977Z" fill="#a767c6"/><path d="M197.00979,205.22547c-2.59379,1.03266-4.36731-.3043-6.63482-1.49711C193.2467,202.51772,195.16664,203.27214,197.00979,205.22547Z" fill="#ed6081"/><path d="M184.635,143.71746c-1.90506,1.44954-4.04169.98016-7.25968,1.09635,2.46874-1.68782,4.0772-2.4056,6.00478-2.33426Q184.00745,143.09846,184.635,143.71746Z" fill="#e88db7"/><path d="M34.25373,218.56789c1.42647-1.70984,2.99241-2.65975,6.37839-3.66988C38.39138,217.65207,37.27669,219.28925,34.25373,218.56789Z" fill="#bc4bb5"/><path d="M24.16519,117.56592c2.67429-.09082,3.98438.75048,5.00676,2.725C26.66726,121.24373,25.67871,119.63211,24.16519,117.56592Z" fill="#825cbf"/><path d="M125.95425,86.20856a2.08512,2.08512,0,0,1-2.17316,1.24352c.00044-1.36029.00044-2.72064.00044-4.10971C125.53216,83.5937,124.06465,86.14321,125.95425,86.20856Z" fill="#b34bbc"/><path d="M33.961,193.7066q.00887.62608.01757,1.2522a2.70365,2.70365,0,0,1-3.44453.59865A4.01037,4.01037,0,0,1,33.961,193.7066Z" fill="#af46b9"/><path d="M2.99882,191.46538q.61389.59988,1.22785,1.19988c-1.06744,1.08323-2.32941,1.3973-4.22667.84892A3.63394,3.63394,0,0,1,2.99882,191.46538Z" fill="#b278cd"/><path d="M184.635,143.71746q-.62755-.619-1.2549-1.23791c1.68071-.11392,3.38738-.66368,5.05416.2848C187.36755,144.02409,185.90412,143.48279,184.635,143.71746Z" fill="#dd4f8d"/><path d="M49.50391,164.88974c-2.38862-2.50626-4.64395-5.19131-8.20923-6.119.42-3.979,2.16521-6.6392,6.59421-6.62742,4.80917,2.42551,1.93984,7.04138,3.00444,10.53491Z" fill="#f9f4fa"/><path d="M41.21637,176.82249c-.336-5.56537,2.21385-7.77,9.49132-8.20652C51.38447,175.79319,47.018,177.13777,41.21637,176.82249Z" fill="#fbf7fb"/><path d="M48.3131,185.085c2.39211,1.74637.19329,2.61683-.83354,3.27884a51.52059,51.52059,0,0,1-5.57548,2.77662c-1.6955.33751-3.38977.67557-5.25444,1.04761-1.08013-4.28059-.61217-6.7431,4.8667-5.79939C43.644,186.75515,46.03954,185.56566,48.3131,185.085Z" fill="#f9f1f9"/><path d="M79.21672,178.55712c-2.04622-9.60849-.54779-19.32992-.83609-28.99371-.12176-4.08143-.99533-8.31688.83609-12.30476.00044,4.98222.00044,9.96368.00044,15.71163,5.76877-3.66291,8.50853-8.38122,11.6442-12.55612,2.1152-2.8161,7.24409-5.33509,5.34887-8.96927-1.41924-2.72164-6.57832-.51275-10.009-1.17243,6.89315-1.77564,13.864-.77871,20.812-.584.72219.24105,1.43214.535,2.17009.7125,1.41961.34138,3.47487-.76722,4.16222,1.08436.65125,1.75431-1.35355,2.58183-2.325,3.69393a10.48106,10.48106,0,0,0-2.98307,6.18769c-13.56152,3.72291-17.7685,9.36062-15.90566,21.31478C86.14261,166.6034,80.93884,171.164,79.21672,178.55712Z" fill="#b334ac"/><path d="M116.40409,186.10368a38.93248,38.93248,0,0,1-10.88883.00747c-1.7327-1.12008-2.58133-2.17-.72373-4.15109,1.997-2.12967,4.0263-4.39007,4.43629-7.52257,6.60077-1.69329,11.5799-5.35371,14.28328-11.77472,1.49485-5.86436,5.38663-9.89438,10.74592-14.36166v15.57915C126.54944,169.877,120.98438,177.59478,116.40409,186.10368Z" fill="#c83394"/><path d="M79.21672,178.55712C80.93884,171.164,86.14261,166.6034,92.132,162.6818a23.31923,23.31923,0,0,0,7.52545,9.55964c-4.34755,3.8368-9.047,7.42909-9.64246,13.87369C84.45724,186.39373,80.54847,184.31634,79.21672,178.55712Z" fill="#bc34a4"/><path d="M134.257,163.88026V148.30111c-5.35929,4.46728-9.25107,8.4973-10.74585,14.36166.82632-5.62222-.002-10.86744-3.53137-15.49713a3.90309,3.90309,0,0,1,2.77512-3.78668c4.251.62982,6.06742-1.17024,5.41923-5.43.16412-2.38657,1.59838-3.895,3.50826-5.07467,3.14384,3.39338,3.91394,7.39924,3.78554,11.95762-.25679,9.1168-.03733,18.24626-.09128,27.37006-.01262,2.13328.53685,4.38879-.8821,6.34347Q134.37525,171.21232,134.257,163.88026Z" fill="#c3339a"/><path d="M131.68241,132.87431c-1.90988,1.17969-3.34414,2.6881-3.5079,5.074-1.97717-1.43379-3.99889-2.5659-6.08134-.2303-1.8654,2.09219-.60241,3.89434.66175,5.66093a3.90309,3.90309,0,0,0-2.77512,3.78668c-3.29244-3.35048-7.469-4.88-11.94235-5.79837a10.481,10.481,0,0,1,2.98307-6.188c.97149-1.1121,2.97629-1.93962,2.325-3.69393-.68735-1.85158-2.74261-.743-4.16222-1.08436-.73795-.17747-1.4479-.47145-2.17009-.7125,5.89913-.10273,11.80228-.38016,17.69449-.23C127.36008,129.52613,130.27738,129.87541,131.68241,132.87431Z" fill="#bb35a5"/><path d="M86.20123,130.27246c3.43068.65968,8.58976-1.54921,10.009,1.17243,1.89522,3.63418-3.23367,6.15317-5.34887,8.96927-3.13567,4.1749-5.87543,8.89321-11.6442,12.55612,0-5.748,0-10.72941-.00044-15.71163A7.73654,7.73654,0,0,1,86.20123,130.27246Z" fill="#ac34b2"/><path d="M134.257,163.88026q.11856,7.33236.23755,14.6652c-1.34494,6.31947-6.02863,7.78108-11.57684,7.86114-2.16929.03131-4.3423-.19417-6.51364-.30281C120.98438,177.59478,126.54944,169.877,134.257,163.88026Z" fill="#cd338d"/><path d="M90.015,186.11513c.59547-6.4446,5.29491-10.03689,9.64254-13.87369q4.78511,1.098,9.57028,2.196c-.41,3.1325-2.43929,5.3929-4.43629,7.52257-1.8576,1.98107-1.009,3.031.72373,4.15109A76.83182,76.83182,0,0,1,90.015,186.11513Z" fill="#c2349c"/><path d="M122.75492,143.379c-1.26416-1.76659-2.52715-3.56874-.66175-5.66093,2.08245-2.3356,4.10417-1.20349,6.08134.2303C128.82234,142.20872,127.00594,144.00878,122.75492,143.379Z" fill="#f7e7f3"/><path d="M108.035,149.338a8.57674,8.57674,0,1,1-.86423,17.12724A8.578,8.578,0,0,1,108.035,149.338Z" fill="#bf36a2"/></g></g></svg>