<?xml version="1.0" encoding="utf-8"?>
<!-- Generator: Adobe Illustrator 23.0.6, SVG Export Plug-In . SVG Version: 6.00 Build 0)  -->
<svg version="1.1" id="Layer_1" xmlns="http://www.w3.org/2000/svg" xmlns:xlink="http://www.w3.org/1999/xlink" x="0px" y="0px"
	 viewBox="0 0 233.3 92.2" style="enable-background:new 0 0 233.3 92.2;" xml:space="preserve">
<style type="text/css">
	.st0{fill:#FFFFFF;}
</style>
<g>
	<g>
		<path class="st0" d="M104,25.5c0,4-1.3,8.5-2.8,12.9c-2.1,6.2-3.9,12.4-3.3,19c0.4,4.4,2.9,8.7,7.2,10.1c4.9,1.6,8.9-1.3,10.5-5.4
			c1.2-3,0.7-6.1,0.4-9.2c-0.4-4.3,0.7-8.1,4.2-10.9c4.4-3.4,10.1-1.3,11.5,4.1c0.8,3.2,0.5,6.3-0.4,9.3c-0.7,2-1.6,3.9-2.3,5.9
			c-0.2,0.5-0.1,1.4,0.2,1.8c2.7,3.6,6.3,5.2,10.9,4.7c3.4-0.5,6.5-3.6,6.2-6.6c-0.2-1.4-0.9-2.8-1.6-4c-1.1-1.8-2.6-3.5-3.5-5.4
			c-2.3-4.7,0.6-12,7-12.6c5.5-0.6,10,3.2,11.8,7.8c3.3,8.7,2.3,17-3.7,24.4c-2.6,3.2-6.2,5-10.2,5.9c-3.9,0.8-7.7,1.2-11.7,0.3
			c-4.1-0.9-7.4-3.2-10.1-6.4c-1.1-1.3-1.3-1.4-2.4,0c-3.4,4.2-7.9,6.3-13.2,6.7c-4.3,0.4-8.1-1.1-11.6-3.5
			c-5.2-3.5-8.4-8.5-10.2-14.4c-2.4-8.1-3-16.3-2.2-24.7c0.4-4,0.9-8.1,1.6-12.1c0.6-3.2,2.2-5.9,4.5-8.3c3.1-3.2,9.5-3,11.7,2
			C103.5,19.3,104,22,104,25.5z"/>
		<path class="st0" d="M41,84.6c-5.7-0.2-9.8-0.8-13.7-2.2c-6.5-2.3-12.2-5.8-15.6-12.2C8.6,64.4,8.3,58.4,11,52.4
			c2.4-5.5,6.4-9.6,11.8-12.2c9.8-4.6,19.6-3,26.7,6c2.3,2.9,2,6,0.4,9.1c-2.5,5.1-7.6,7.1-12.8,5.1c-1.9-0.7-3.3-2.1-4.5-3.9
			c-1-1.6-2.2-3.2-4-4.2c-3.9-2.2-7.9,0-9.3,3.9c-2.4,7.1,1.5,13.2,7.5,16.1c4.5,2.1,9.2,2,13.9,0.9c9.9-2.3,16.5-8.7,21.3-17.3
			c2-3.5,4.5-6.7,8.5-8.3c5.4-2.2,11,1,10.8,7.1c-0.1,3.8-1.5,7-3.6,10c-4.5,6.5-10.3,11.6-17.4,15c-3,1.5-6.3,2.5-9.5,3.4
			C47.1,84.3,43.3,84.5,41,84.6z"/>
		<path class="st0" d="M192.7,54.8c-0.1,0.7-0.2,1.1-0.2,1.6c0,2.8,0.1,5.6,0,8.4c-0.3,4.8-1.4,9.5-4.7,13.4
			c-4.7,5.4-14,7.3-20.5,1.9c-3.6-3-4.8-7.9-2.7-11.8c1.3-2.4,3.4-3.6,6-3.9c1.2-0.1,2.4-0.2,3.5,0c4.1,1,6.5-1,8.1-4.2
			c2.1-4.1,2.6-8.6,1.9-13.1c-0.6-3.6-1.6-7.1-2.3-10.6c-0.5-2.4-0.6-4.9,0.1-7.4c0.7-2.7,4.6-3.3,6.5-1.3c1.2,1.3,1.6,2.9,1.8,4.6
			c0.6,3.2,1,6.4,1.6,9.6c0.4,2,1.5,3.6,3.4,4.5c3.7,1.6,7.5,2.4,11.3,0.7c1.6-0.7,2.9-1.6,3.6-3.3c1-2.4,0-4.4-1.1-6.4
			c-1-1.8-2.3-3.5-2.9-5.5c-1.7-5.3,2.5-12.7,9.8-11.6c5.2,0.8,8.3,4.2,9.6,9.1c1.6,5.8,1.2,11.6-1.5,17
			c-3.6,7.3-9.4,11.4-17.6,11.6c-2.4,0-4.7-0.1-7.1-0.6c-1.9-0.4-3.7-1.4-5.5-2.2C193.6,55.3,193.3,55.1,192.7,54.8z"/>
		<path class="st0" d="M113.9,25.2c-3.6,0.2-6.3-3.1-6.4-6.3c-0.1-4.7,3.4-7.1,6.9-6.9c3.3,0.2,6.1,2.6,6.2,6.9
			C120.5,22.3,117.1,25.6,113.9,25.2z"/>
		<path class="st0" d="M129.8,25.2c-3.6,0.2-6.3-3.1-6.4-6.3c-0.1-4.7,3.4-7.1,6.9-6.9c3.3,0.2,6.1,2.6,6.1,6.9
			C136.4,22.3,133,25.6,129.8,25.2z"/>
		<path class="st0" d="M150.2,25.2c-3.6,0.2-6.3-3.1-6.4-6.3c-0.1-4.7,3.4-7.1,6.9-6.9c3.3,0.2,6.1,2.6,6.1,6.9
			C156.8,22.3,153.4,25.6,150.2,25.2z"/>
		<path class="st0" d="M46.7,29.8c-3.8,0.2-6.6-3.2-6.8-6.6c-0.1-4.9,3.6-7.5,7.3-7.2c3.5,0.2,6.4,2.7,6.4,7.2
			C53.7,26.7,50.1,30.2,46.7,29.8z"/>
		<path class="st0" d="M63.5,29.8c-3.8,0.2-6.6-3.2-6.8-6.6c-0.2-4.9,3.6-7.5,7.2-7.2c3.5,0.2,6.4,2.7,6.4,7.2
			C70.4,26.7,66.9,30.2,63.5,29.8z"/>
	</g>
	<g>
		<path class="st0" d="M148.3,27.3c0-0.5,0-0.9,0-1.4c0-0.1,0-0.3,0-0.5c0-0.1-0.1-0.3-0.2-0.3c-0.1,0-0.3,0.1-0.4,0.2
			c-0.1,0.1-0.1,0.4-0.2,0.6c-0.1,0.3-0.2,0.4-0.5,0.3c-0.2,0-0.3-0.1-0.4-0.4c0-0.4-0.1-0.8-0.1-1.1c0-0.1,0-0.3-0.1-0.3
			s-0.2,0-0.3,0.1c0,0,0,0,0,0c-0.4,0.2-0.6,0.2-0.7-0.3c-0.1-0.6-0.1-1.1,0-1.7c0.1-0.7,0.3-1.4,0.7-1.9c0.3-0.5,0.8-0.8,1.2-1
			c0.6-0.3,1.3-0.4,1.9-0.5c1-0.1,2,0,3,0.4c0.7,0.3,1.3,0.7,1.6,1.4c0.2,0.4,0.3,0.8,0.3,1.3c0,0.1,0,0.2,0,0.4
			c0,0.4-0.1,0.7-0.3,1s-0.3,0.6-0.3,0.9c0,0.2,0,0.5-0.1,0.8c-0.1,0.3-0.4,0.3-0.5,0c-0.1-0.1-0.2-0.3-0.4-0.2
			c-0.2,0-0.2,0.2-0.2,0.4c0,0.2,0,0.5,0,0.8c0,0.2,0,0.5-0.1,0.7c0,0,0,0.1-0.1,0.1c0,0-0.1,0-0.1-0.1c0-0.2-0.1-0.5-0.1-0.7
			c0-0.2,0-0.4-0.2-0.4c-0.1,0-0.3,0-0.4,0.3c0,0.1-0.1,0.2-0.1,0.4c0,0.3,0,0.6,0,0.8c0,0.3,0,0.6-0.1,0.9
			c-0.1,0.2-0.2,0.2-0.4,0.2c-0.1,0-0.3-0.1-0.3-0.3c0-0.3,0-0.7,0-1c0-0.3,0-0.6,0-0.8c0-0.1-0.1-0.2-0.1-0.2s-0.2,0.1-0.2,0.2
			c0,0.2-0.1,0.4-0.1,0.6c0,0.4,0,0.8-0.1,1.3c0,0.5-0.1,1-0.2,1.5c0,0.2-0.1,0.5-0.4,0.5s-0.4-0.2-0.5-0.4c0-0.2-0.1-0.5-0.1-0.7
			C148.3,28.3,148.3,27.8,148.3,27.3z"/>
		<path class="st0" d="M149.2,31.4c-0.1,0.2-0.1,0.5-0.3,0.7c-0.1,0.2-0.3,0.1-0.4,0c-0.2-0.3-0.2-1.1,0-1.5c0.1-0.2,0.3-0.2,0.5,0
			C149.1,30.9,149.2,31.1,149.2,31.4z"/>
		<path class="st0" d="M147.3,27.4c0,0,0,0.1,0,0.2c0,0.2-0.2,0.4-0.3,0.4c-0.2,0-0.3-0.1-0.4-0.4c-0.1-0.2,0-0.5,0.1-0.7
			c0.1-0.3,0.4-0.2,0.6,0C147.3,27.1,147.3,27.2,147.3,27.4L147.3,27.4z"/>
		<path class="st0" d="M153,26.7c0-0.2,0-0.4,0.1-0.6c0.1-0.2,0.2-0.2,0.3,0c0.2,0.4,0.1,0.8,0,1.2c0,0.2-0.2,0.2-0.3,0
			C153,27,153,26.8,153,26.7z"/>
		<path class="st0" d="M150.9,29.2c0,0.1,0,0.3-0.1,0.5c0,0.1-0.1,0.1-0.2,0.1c0,0-0.1-0.1-0.1-0.1c-0.1-0.3-0.1-0.6,0-0.9
			c0-0.1,0.1-0.2,0.2-0.2c0,0,0.2,0.1,0.2,0.2C150.8,28.9,150.8,29.1,150.9,29.2z"/>
	</g>
	<g>
		<path class="st0" d="M209.5,77.2c0-0.5,0-0.9,0-1.4c0-0.1,0-0.3,0-0.5c0-0.1-0.1-0.3-0.2-0.3c-0.1,0-0.3,0.1-0.4,0.2
			c-0.1,0.1-0.1,0.4-0.2,0.6c-0.1,0.3-0.2,0.4-0.5,0.3c-0.2,0-0.3-0.1-0.4-0.4c0-0.4-0.1-0.8-0.1-1.1c0-0.1,0-0.3-0.1-0.3
			c0,0-0.2,0-0.3,0l0,0c-0.4,0.2-0.6,0.2-0.7-0.3c-0.1-0.6-0.1-1.1,0-1.7c0.1-0.7,0.3-1.4,0.7-1.9c0.3-0.5,0.8-0.8,1.2-1
			c0.6-0.3,1.3-0.4,1.9-0.5c1-0.1,2,0,3,0.4c0.7,0.3,1.3,0.7,1.6,1.4c0.2,0.4,0.3,0.8,0.3,1.3c0,0.1,0,0.2,0,0.4
			c0,0.4-0.1,0.7-0.3,1c-0.2,0.3-0.3,0.6-0.3,0.9c0,0.2,0,0.5-0.1,0.8c-0.1,0.3-0.4,0.3-0.5,0c-0.1-0.2-0.2-0.3-0.4-0.2
			s-0.2,0.2-0.2,0.4c0,0.2,0,0.5,0,0.8s0,0.5-0.1,0.7c0,0,0,0.1-0.1,0.1c0,0-0.1,0-0.1-0.1c0-0.2-0.1-0.5-0.1-0.7
			c0-0.2,0-0.4-0.2-0.4c-0.1,0-0.3,0-0.4,0.3c0,0.1-0.1,0.2-0.1,0.4c0,0.3,0,0.6,0,0.9c0,0.3,0,0.6-0.1,0.9
			c-0.1,0.2-0.2,0.2-0.4,0.2c-0.1,0-0.3-0.1-0.3-0.3c0-0.3,0-0.7,0-1c0-0.3,0-0.6,0-0.8c0-0.1-0.1-0.2-0.1-0.2S211,75.9,211,76
			c0,0.2-0.1,0.4-0.1,0.6c0,0.4,0,0.8-0.1,1.3c0,0.5-0.1,1-0.2,1.5c0,0.2-0.1,0.5-0.4,0.5c-0.2,0-0.4-0.2-0.5-0.4
			c0-0.2-0.1-0.5-0.1-0.7C209.5,78.2,209.5,77.8,209.5,77.2z"/>
		<path class="st0" d="M210.4,81.3c-0.1,0.2-0.1,0.5-0.3,0.7c-0.1,0.2-0.3,0.1-0.4,0c-0.2-0.3-0.2-1.1,0-1.5c0.1-0.2,0.3-0.2,0.5,0
			C210.3,80.9,210.3,81.1,210.4,81.3z"/>
		<path class="st0" d="M208.5,77.3c0,0,0,0.1,0,0.2c0,0.2-0.2,0.4-0.3,0.4c-0.2,0-0.3-0.1-0.4-0.4c-0.1-0.2,0-0.5,0.1-0.7
			c0.1-0.3,0.4-0.2,0.6,0C208.4,77.1,208.4,77.2,208.5,77.3L208.5,77.3z"/>
		<path class="st0" d="M214.1,76.6c0-0.2,0-0.4,0.1-0.6c0.1-0.2,0.2-0.2,0.3,0c0.2,0.4,0.1,0.8,0,1.2c0,0.2-0.2,0.2-0.3,0
			C214.2,77,214.2,76.8,214.1,76.6z"/>
		<path class="st0" d="M212.1,79.2c0,0.1,0,0.3-0.1,0.5c0,0.1-0.1,0.1-0.2,0.1s-0.1-0.1-0.1-0.1c-0.1-0.3-0.1-0.6,0-0.9
			c0-0.1,0.1-0.2,0.2-0.2c0,0,0.2,0.1,0.2,0.2C212,78.9,212,79,212.1,79.2z"/>
	</g>
	<g>
		<path class="st0" d="M128.8,27.5c0-0.5,0-0.9,0-1.4c0-0.1,0-0.3,0-0.5c0-0.1-0.1-0.3-0.2-0.3c-0.1,0-0.3,0.1-0.4,0.2
			c-0.1,0.1-0.1,0.4-0.2,0.6c-0.1,0.3-0.2,0.4-0.5,0.3c-0.2,0-0.3-0.1-0.4-0.4c0-0.4-0.1-0.8-0.1-1.1c0-0.1,0-0.3-0.1-0.3
			c0,0-0.2,0-0.3,0.1c0,0,0,0,0,0c-0.4,0.2-0.6,0.2-0.7-0.3c-0.1-0.6-0.1-1.1,0-1.7c0.1-0.7,0.3-1.4,0.7-1.9c0.3-0.5,0.8-0.8,1.2-1
			c0.6-0.3,1.3-0.4,1.9-0.5c1-0.1,2,0,3,0.4c0.7,0.3,1.3,0.7,1.6,1.4c0.2,0.4,0.3,0.8,0.3,1.3c0,0.1,0,0.2,0,0.4
			c0,0.4-0.1,0.7-0.3,1c-0.2,0.3-0.3,0.6-0.3,0.9c0,0.2,0,0.5-0.1,0.8c-0.1,0.3-0.4,0.3-0.5,0c-0.1-0.1-0.2-0.3-0.4-0.2
			c-0.2,0-0.2,0.2-0.2,0.4c0,0.2,0,0.5,0,0.8c0,0.2,0,0.5-0.1,0.7c0,0,0,0.1-0.1,0.1c0,0-0.1,0-0.1-0.1c0-0.2-0.1-0.5-0.1-0.7
			c0-0.2,0-0.4-0.2-0.4c-0.1,0-0.3,0-0.4,0.3c0,0.1-0.1,0.2-0.1,0.4c0,0.3,0,0.6,0,0.8c0,0.3,0,0.6-0.1,0.9
			c-0.1,0.2-0.2,0.2-0.4,0.2c-0.1,0-0.3-0.1-0.3-0.3c0-0.3,0-0.7,0-1c0-0.3,0-0.6,0-0.8c0-0.1-0.1-0.2-0.1-0.2c0,0-0.2,0.1-0.2,0.2
			c0,0.2-0.1,0.4-0.1,0.6c0,0.4,0,0.8-0.1,1.3c0,0.5-0.1,1-0.2,1.5c0,0.2-0.1,0.5-0.4,0.5s-0.4-0.2-0.5-0.4c0-0.2-0.1-0.5-0.1-0.7
			C128.7,28.4,128.8,27.9,128.8,27.5z"/>
		<path class="st0" d="M127.9,31.9c-0.1,0.2-0.1,0.5-0.3,0.7c-0.1,0.2-0.3,0.1-0.4,0c-0.2-0.3-0.2-1.1,0-1.5c0.1-0.2,0.3-0.2,0.5,0
			C127.9,31.4,127.9,31.6,127.9,31.9z"/>
		<path class="st0" d="M126,27.9c0,0,0,0.1,0,0.2c0,0.2-0.2,0.4-0.3,0.4c-0.2,0-0.3-0.1-0.4-0.4c-0.1-0.2,0-0.5,0.1-0.7
			c0.1-0.3,0.4-0.2,0.6,0C126,27.6,126,27.7,126,27.9L126,27.9z"/>
		<path class="st0" d="M131.7,27.2c0-0.2,0-0.4,0.1-0.6c0.1-0.2,0.2-0.2,0.3,0c0.2,0.4,0.1,0.8,0,1.2c0,0.2-0.2,0.2-0.3,0
			C131.8,27.5,131.7,27.4,131.7,27.2z"/>
		<path class="st0" d="M129.6,29.7c0,0.1,0,0.3-0.1,0.5c0,0.1-0.1,0.1-0.2,0.1s-0.1-0.1-0.1-0.1c-0.1-0.3-0.1-0.6,0-0.9
			c0-0.1,0.1-0.2,0.2-0.2c0,0,0.2,0.1,0.2,0.2C129.5,29.4,129.6,29.6,129.6,29.7z"/>
	</g>
	<g>
		<path class="st0" d="M111.3,27c0-0.5,0-0.9,0-1.4c0-0.1,0-0.3,0-0.5c0-0.1-0.1-0.3-0.2-0.3c-0.1,0-0.3,0.1-0.4,0.2
			c-0.1,0.1-0.1,0.4-0.2,0.6c-0.1,0.3-0.2,0.4-0.5,0.3c-0.2,0-0.3-0.1-0.4-0.4c0-0.4-0.1-0.8-0.1-1.1c0-0.1,0-0.3-0.1-0.3
			c0,0-0.2,0-0.3,0.1c0,0,0,0,0,0c-0.4,0.2-0.6,0.2-0.7-0.3c-0.1-0.6-0.1-1.1,0-1.7c0.1-0.7,0.3-1.4,0.7-1.9c0.3-0.5,0.8-0.8,1.2-1
			c0.6-0.3,1.3-0.4,1.9-0.5c1-0.1,2,0,3,0.4c0.7,0.3,1.3,0.7,1.6,1.4c0.2,0.4,0.3,0.8,0.3,1.3c0,0.1,0,0.2,0,0.4
			c0,0.4-0.1,0.7-0.3,1c-0.2,0.3-0.3,0.6-0.3,0.9c0,0.2,0,0.5-0.1,0.8c-0.1,0.3-0.4,0.3-0.5,0c-0.1-0.1-0.2-0.3-0.4-0.2
			c-0.2,0-0.2,0.2-0.2,0.4c0,0.2,0,0.5,0,0.8c0,0.2,0,0.5-0.1,0.7c0,0,0,0.1-0.1,0.1c0,0-0.1,0-0.1-0.1c0-0.2-0.1-0.5-0.1-0.7
			c0-0.2,0-0.4-0.2-0.4s-0.3,0-0.4,0.3c0,0.1-0.1,0.2-0.1,0.4c0,0.3,0,0.6,0,0.8c0,0.3,0,0.6-0.1,0.9c-0.1,0.2-0.2,0.2-0.4,0.2
			c-0.1,0-0.3-0.1-0.3-0.3c0-0.3,0-0.7,0-1c0-0.3,0-0.6,0-0.8c0-0.1-0.1-0.2-0.1-0.2c0,0-0.2,0.1-0.2,0.2c0,0.2-0.1,0.4-0.1,0.6
			c0,0.4,0,0.8-0.1,1.3c0,0.5-0.1,1-0.2,1.5c0,0.2-0.1,0.5-0.4,0.5c-0.2,0-0.4-0.2-0.5-0.4s-0.1-0.5-0.1-0.7
			C111.3,27.9,111.3,27.5,111.3,27z"/>
		<path class="st0" d="M112.1,31.1c-0.1,0.2-0.1,0.5-0.3,0.7c-0.1,0.2-0.3,0.1-0.4,0c-0.2-0.3-0.2-1.1,0-1.5c0.1-0.2,0.3-0.2,0.5,0
			C112.1,30.6,112.1,30.8,112.1,31.1z"/>
		<path class="st0" d="M110.2,27c0,0,0,0.1,0,0.2c0,0.2-0.2,0.4-0.3,0.4c-0.2,0-0.3-0.1-0.4-0.4c-0.1-0.2,0-0.5,0.1-0.7
			c0.1-0.3,0.4-0.2,0.6,0C110.2,26.8,110.2,26.9,110.2,27C110.3,27,110.2,27,110.2,27z"/>
		<path class="st0" d="M115.9,26.4c0-0.2,0-0.4,0.1-0.6s0.2-0.2,0.3,0c0.2,0.4,0.1,0.8,0,1.2c0,0.2-0.2,0.2-0.3,0
			C116,26.7,116,26.5,115.9,26.4z"/>
		<path class="st0" d="M113.8,28.9c0,0.1,0,0.3-0.1,0.5c0,0.1-0.1,0.1-0.2,0.1c0,0-0.1-0.1-0.1-0.1c-0.1-0.3-0.1-0.6,0-0.9
			c0-0.1,0.1-0.2,0.2-0.2c0,0,0.2,0.1,0.2,0.2C113.8,28.6,113.8,28.7,113.8,28.9z"/>
	</g>
	<g>
		<path class="st0" d="M62.4,32c0-0.5,0-0.9,0-1.4c0-0.1,0-0.3,0-0.5c0-0.1-0.1-0.3-0.2-0.3c-0.1,0-0.3,0.1-0.4,0.2
			c-0.1,0.1-0.1,0.4-0.2,0.6c-0.1,0.3-0.2,0.4-0.5,0.3c-0.2,0-0.3-0.1-0.4-0.4c0-0.4-0.1-0.8-0.1-1.1c0-0.1,0-0.3-0.1-0.3
			c0,0-0.2,0-0.3,0.1l0,0c-0.4,0.2-0.6,0.2-0.7-0.3c-0.1-0.6-0.1-1.1,0-1.7c0.1-0.7,0.3-1.4,0.7-1.9c0.3-0.5,0.8-0.8,1.2-1
			c0.6-0.3,1.3-0.4,1.9-0.5c1-0.1,2,0,3,0.4c0.7,0.3,1.3,0.7,1.6,1.4c0.2,0.4,0.3,0.8,0.3,1.3c0,0.1,0,0.2,0,0.4
			c0,0.4-0.1,0.7-0.3,1c-0.2,0.3-0.3,0.6-0.3,0.9c0,0.2,0,0.5-0.1,0.8c-0.1,0.3-0.4,0.3-0.5,0c-0.1-0.1-0.2-0.3-0.4-0.2
			c-0.2,0-0.2,0.2-0.2,0.4c0,0.2,0,0.5,0,0.8c0,0.2,0,0.5-0.1,0.7c0,0,0,0.1-0.1,0.1s-0.1,0-0.1-0.1c0-0.2-0.1-0.5-0.1-0.7
			c0-0.2,0-0.4-0.2-0.4c-0.1,0-0.3,0-0.4,0.3c0,0.1-0.1,0.2-0.1,0.4c0,0.3,0,0.6,0,0.8c0,0.3,0,0.6-0.1,0.9
			c-0.1,0.2-0.2,0.2-0.4,0.2c-0.1,0-0.3-0.1-0.3-0.3c0-0.3,0-0.7,0-1c0-0.3,0-0.6,0-0.8c0-0.1-0.1-0.2-0.1-0.2s-0.2,0.1-0.2,0.2
			c0,0.2-0.1,0.4-0.1,0.6c0,0.4,0,0.8-0.1,1.3c0,0.5-0.1,1-0.2,1.5c0,0.2-0.1,0.5-0.4,0.5c-0.2,0-0.4-0.2-0.5-0.4
			c0-0.2-0.1-0.5-0.1-0.7C62.4,32.9,62.4,32.4,62.4,32z"/>
		<path class="st0" d="M63.3,36.1c-0.1,0.2-0.1,0.5-0.3,0.7c-0.1,0.2-0.3,0.1-0.4,0c-0.2-0.3-0.2-1.1,0-1.5c0.1-0.2,0.3-0.2,0.5,0
			C63.2,35.6,63.2,35.8,63.3,36.1z"/>
		<path class="st0" d="M61.4,32.1c0,0,0,0.1,0,0.2c0,0.2-0.2,0.4-0.3,0.4c-0.2,0-0.3-0.1-0.4-0.4c-0.1-0.2,0-0.5,0.1-0.7
			c0.1-0.3,0.4-0.2,0.6,0C61.3,31.8,61.4,31.9,61.4,32.1L61.4,32.1z"/>
		<path class="st0" d="M67,31.4c0-0.2,0-0.4,0.1-0.6s0.2-0.2,0.3,0c0.2,0.4,0.1,0.8,0,1.2c0,0.2-0.2,0.2-0.3,0
			C67.1,31.7,67.1,31.5,67,31.4z"/>
		<path class="st0" d="M64.9,33.9c0,0.1,0,0.3-0.1,0.5c0,0.1-0.1,0.1-0.2,0.1c0,0-0.1-0.1-0.1-0.1c-0.1-0.3-0.1-0.6,0-0.9
			c0-0.1,0.1-0.2,0.2-0.2c0,0,0.2,0.1,0.2,0.2C64.9,33.6,64.9,33.8,64.9,33.9z"/>
	</g>
	<g>
		<path class="st0" d="M46,32.7c0-0.5,0-0.9,0-1.4c0-0.1,0-0.3,0-0.5c0-0.1-0.1-0.3-0.2-0.3c-0.1,0-0.3,0.1-0.4,0.2
			c-0.1,0.1-0.1,0.4-0.2,0.6c-0.1,0.3-0.2,0.4-0.5,0.3c-0.2,0-0.3-0.1-0.4-0.4c0-0.4-0.1-0.8-0.1-1.1c0-0.1,0-0.3-0.1-0.3
			c0,0-0.2,0-0.3,0.1l0,0c-0.4,0.2-0.6,0.2-0.7-0.3c-0.1-0.6-0.1-1.1,0-1.7c0.1-0.7,0.3-1.4,0.7-1.9c0.3-0.5,0.8-0.8,1.2-1
			c0.6-0.3,1.3-0.4,1.9-0.5c1-0.1,2,0,3,0.4c0.7,0.3,1.3,0.7,1.6,1.4c0.2,0.4,0.3,0.8,0.3,1.3c0,0.1,0,0.2,0,0.4
			c0,0.4-0.1,0.7-0.3,1c-0.2,0.3-0.3,0.6-0.3,0.9c0,0.2,0,0.5-0.1,0.8c-0.1,0.3-0.4,0.3-0.5,0c-0.1-0.1-0.2-0.3-0.4-0.2
			c-0.2,0-0.2,0.2-0.2,0.4c0,0.2,0,0.5,0,0.8c0,0.2-0.1,0.5-0.1,0.7c0,0-0.1,0.1-0.1,0.1c0,0-0.1,0-0.1-0.1c0-0.2-0.1-0.5-0.1-0.7
			c0-0.2,0-0.4-0.2-0.4c-0.1,0-0.3,0-0.4,0.3c0,0.1-0.1,0.2-0.1,0.4c0,0.3,0,0.6,0,0.8c0,0.3,0,0.6-0.1,0.9
			c-0.1,0.2-0.2,0.2-0.4,0.2c-0.1,0-0.3-0.1-0.3-0.3c0-0.3,0-0.7,0-1c0-0.3,0-0.6,0-0.8c0-0.1-0.1-0.2-0.1-0.2c0,0-0.2,0.1-0.2,0.2
			c-0.1,0.2-0.1,0.4-0.1,0.6c0,0.4,0,0.8-0.1,1.3c0,0.5-0.1,1-0.2,1.5c0,0.2-0.1,0.5-0.4,0.5s-0.4-0.2-0.5-0.4
			C46,34.6,46,34.3,46,34.1C46,33.6,46,33.1,46,32.7z"/>
		<path class="st0" d="M46.9,36.8c-0.1,0.2-0.1,0.5-0.3,0.7c-0.1,0.2-0.3,0.1-0.4,0c-0.2-0.3-0.2-1.1,0-1.5c0.1-0.2,0.3-0.2,0.5,0
			C46.7,36.2,46.8,36.5,46.9,36.8z"/>
		<path class="st0" d="M45,32.8c0,0,0,0.1,0,0.2c0,0.2-0.2,0.4-0.3,0.4c-0.2,0-0.3-0.1-0.4-0.4c-0.1-0.2,0-0.5,0.1-0.7
			c0.1-0.3,0.4-0.2,0.6,0C44.9,32.5,45,32.6,45,32.8L45,32.8z"/>
		<path class="st0" d="M50.6,32.1c0-0.2,0-0.4,0.1-0.6c0.1-0.2,0.2-0.2,0.3,0c0.2,0.4,0.1,0.8,0,1.2c0,0.2-0.2,0.2-0.3,0
			C50.7,32.4,50.7,32.2,50.6,32.1z"/>
		<path class="st0" d="M48.5,34.6c0,0.1,0,0.3-0.1,0.5c0,0.1-0.1,0.1-0.2,0.1s-0.1-0.1-0.1-0.1c-0.1-0.3-0.1-0.6,0-0.9
			c0-0.1,0.1-0.2,0.2-0.2c0.1,0,0.1,0.1,0.2,0.2C48.5,34.3,48.5,34.5,48.5,34.6z"/>
	</g>
	<circle class="st0" cx="210.5" cy="68.1" r="6.9"/>
</g>
</svg>
