<?xml version="1.0" encoding="utf-8"?>
<!-- Generator: Adobe Illustrator 23.0.6, SVG Export Plug-In . SVG Version: 6.00 Build 0)  -->
<svg version="1.1" id="Layer_1" xmlns="http://www.w3.org/2000/svg" xmlns:xlink="http://www.w3.org/1999/xlink" x="0px" y="0px"
	 viewBox="0 0 745.66 105.5" style="enable-background:new 0 0 745.66 105.5;" xml:space="preserve">
<style type="text/css">
	.st0{fill:#1997C9;}
	.st1{fill:#80C243;}
	.st2{fill:#EC1E26;}
	.st3{fill:#F69220;}
	.st4{fill:#EC0E84;}
</style>
<g>
	<g>
		<path class="st0" d="M118.94,26.36c-0.05,4.7-1.47,9.89-3.22,14.97c-2.46,7.16-4.59,14.37-3.82,22.07
			c0.49,5.13,3.33,10.16,8.41,11.69c5.74,1.8,10.32-1.53,12.18-6.23c1.37-3.5,0.76-7.1,0.44-10.65c-0.49-5.03,0.76-9.45,4.92-12.62
			c5.08-3.93,11.74-1.47,13.33,4.81c0.93,3.66,0.6,7.26-0.49,10.76c-0.76,2.35-1.8,4.53-2.62,6.83c-0.22,0.6-0.16,1.58,0.22,2.08
			c3.17,4.15,7.37,6.06,12.62,5.41c3.99-0.55,7.59-4.21,7.16-7.7c-0.22-1.58-1.04-3.22-1.91-4.64c-1.26-2.13-3.06-4.04-4.1-6.23
			c-2.68-5.52,0.66-13.93,8.14-14.69c6.39-0.66,11.63,3.66,13.66,9.01c3.77,10.16,2.62,19.72-4.32,28.24
			c-3,3.71-7.16,5.84-11.8,6.88c-4.48,0.98-8.96,1.37-13.55,0.33c-4.81-1.09-8.63-3.71-11.74-7.43c-1.26-1.53-1.53-1.58-2.79-0.05
			c-3.93,4.92-9.23,7.26-15.35,7.81c-4.97,0.44-9.4-1.37-13.44-4.1c-6.06-4.1-9.78-9.83-11.85-16.77
			c-2.84-9.4-3.44-18.95-2.51-28.68c0.44-4.7,1.04-9.4,1.91-14.04c0.66-3.66,2.57-6.83,5.19-9.61c3.61-3.77,11.03-3.44,13.55,2.29
			C118.45,19.15,119,22.26,118.94,26.36z"/>
		<path class="st0" d="M45.75,94.96c-6.61-0.22-11.36-0.93-15.95-2.51c-7.59-2.68-14.2-6.77-18.08-14.15
			c-3.55-6.77-3.88-13.71-0.76-20.76c2.84-6.39,7.43-11.2,13.71-14.2c11.36-5.35,22.72-3.5,30.97,6.94
			c2.62,3.33,2.29,6.99,0.49,10.6c-2.95,5.9-8.79,8.19-14.91,5.9c-2.24-0.82-3.88-2.46-5.19-4.48c-1.2-1.91-2.57-3.77-4.64-4.86
			c-4.59-2.51-9.18-0.05-10.76,4.53c-2.84,8.3,1.69,15.35,8.69,18.68c5.24,2.46,10.65,2.35,16.11,1.09
			c11.47-2.68,19.12-10.16,24.8-20.05c2.35-4.1,5.24-7.76,9.83-9.61c6.28-2.51,12.73,1.15,12.56,8.3
			c-0.11,4.37-1.75,8.08-4.15,11.58c-5.24,7.59-12.02,13.49-20.27,17.48c-3.5,1.69-7.26,2.9-11.03,3.99
			C52.91,94.64,48.43,94.85,45.75,94.96z"/>
		<path class="st0" d="M222.02,60.33c-0.11,0.76-0.22,1.31-0.22,1.91c0,3.28,0.16,6.55-0.05,9.78c-0.38,5.63-1.58,11.09-5.41,15.51
			c-5.35,6.23-16.22,8.52-23.76,2.18c-4.15-3.5-5.57-9.23-3.17-13.66c1.47-2.73,3.93-4.21,6.94-4.53c1.37-0.16,2.79-0.22,4.1,0.05
			c4.81,1.15,7.59-1.2,9.45-4.86c2.4-4.81,3-10,2.18-15.24c-0.66-4.15-1.86-8.19-2.62-12.34c-0.55-2.84-0.66-5.68,0.11-8.58
			c0.82-3.11,5.35-3.88,7.54-1.53c1.42,1.53,1.8,3.39,2.13,5.3c0.66,3.71,1.15,7.48,1.91,11.2c0.44,2.35,1.75,4.21,3.99,5.19
			c4.26,1.86,8.68,2.73,13.16,0.82c1.8-0.76,3.33-1.86,4.15-3.82c1.2-2.84-0.05-5.13-1.31-7.48c-1.15-2.13-2.68-4.1-3.39-6.34
			c-2.02-6.06,2.9-14.8,11.36-13.44c6.06,0.98,9.61,4.86,11.14,10.54c1.8,6.72,1.42,13.44-1.69,19.77
			c-4.15,8.52-10.92,13.22-20.54,13.44c-2.73,0.05-5.52-0.11-8.19-0.66c-2.18-0.44-4.26-1.64-6.39-2.46
			C223.11,60.99,222.73,60.72,222.02,60.33z"/>
		<path class="st1" d="M129.76,25.98c-3.77,0.22-6.66-3.22-6.77-6.61c-0.16-4.86,3.61-7.48,7.26-7.26c3.5,0.22,6.45,2.73,6.45,7.21
			C136.7,22.86,133.15,26.41,129.76,25.98z"/>
		<path class="st1" d="M146.53,25.98c-3.77,0.22-6.66-3.22-6.77-6.61c-0.16-4.86,3.61-7.48,7.26-7.26c3.5,0.22,6.45,2.73,6.45,7.21
			C153.47,22.86,149.92,26.41,146.53,25.98z"/>
		<path class="st2" d="M168,25.98c-3.77,0.22-6.66-3.22-6.77-6.61c-0.16-4.86,3.61-7.48,7.26-7.26c3.5,0.22,6.45,2.73,6.45,7.21
			C174.93,22.86,171.38,26.41,168,25.98z"/>
		<path class="st3" d="M53.78,31.22c-3.77,0.22-6.66-3.22-6.77-6.61c-0.16-4.86,3.61-7.48,7.26-7.26c3.5,0.22,6.45,2.73,6.45,7.21
			C60.72,28.11,57.17,31.6,53.78,31.22z"/>
		<path class="st3" d="M70.55,31.22c-3.77,0.22-6.66-3.22-6.77-6.61c-0.16-4.86,3.61-7.48,7.26-7.26c3.5,0.22,6.45,2.73,6.45,7.21
			C77.49,28.11,73.94,31.6,70.55,31.22z"/>
	</g>
	<g>
		<path class="st2" d="M166.58,28c0-0.55,0-1.04,0-1.58c0-0.16,0-0.38-0.05-0.55s-0.16-0.38-0.27-0.38c-0.16,0-0.33,0.11-0.44,0.27
			c-0.11,0.16-0.16,0.44-0.22,0.66c-0.11,0.33-0.27,0.44-0.6,0.38c-0.22,0-0.38-0.16-0.44-0.49c-0.05-0.44-0.11-0.87-0.11-1.31
			c0-0.16-0.05-0.33-0.11-0.38c-0.05-0.05-0.22,0.05-0.33,0.05l-0.05,0.05c-0.49,0.27-0.66,0.22-0.82-0.38
			c-0.16-0.66-0.16-1.31-0.05-2.02c0.16-0.82,0.38-1.58,0.82-2.24c0.38-0.55,0.87-0.93,1.42-1.15c0.71-0.33,1.47-0.49,2.24-0.6
			c1.2-0.11,2.35,0,3.44,0.49c0.76,0.33,1.47,0.76,1.91,1.58c0.27,0.49,0.38,0.98,0.38,1.53c0,0.16,0,0.27,0,0.44
			c0.05,0.44-0.11,0.82-0.33,1.15c-0.22,0.33-0.33,0.66-0.33,1.09c0,0.27,0.05,0.6-0.11,0.87c-0.16,0.33-0.44,0.33-0.6,0
			c-0.11-0.22-0.22-0.33-0.44-0.27c-0.22,0.05-0.22,0.22-0.27,0.44c-0.05,0.27-0.05,0.6-0.05,0.87c-0.05,0.27-0.05,0.55-0.11,0.76
			c0,0.05-0.11,0.16-0.11,0.16c-0.05,0-0.16-0.05-0.16-0.11c-0.05-0.27-0.11-0.55-0.16-0.82c-0.05-0.22-0.05-0.44-0.22-0.49
			c-0.16-0.05-0.33,0.05-0.44,0.33c-0.05,0.11-0.11,0.27-0.11,0.38c0,0.33,0,0.66,0.05,0.98c0.05,0.38,0,0.71-0.16,1.04
			c-0.11,0.22-0.22,0.27-0.44,0.27c-0.16,0-0.33-0.16-0.38-0.33c-0.05-0.38-0.05-0.76-0.05-1.15c0-0.33,0-0.66-0.05-0.93
			c0-0.11-0.11-0.27-0.16-0.27c-0.05,0-0.22,0.11-0.22,0.22c-0.05,0.22-0.16,0.44-0.16,0.66c-0.05,0.49-0.05,0.98-0.11,1.47
			c-0.05,0.6-0.16,1.2-0.27,1.75c-0.05,0.27-0.16,0.55-0.44,0.55s-0.49-0.22-0.55-0.49s-0.16-0.55-0.16-0.82
			C166.58,29.09,166.58,28.54,166.58,28z"/>
		<path class="st2" d="M167.61,32.75c-0.11,0.27-0.16,0.55-0.33,0.82c-0.11,0.22-0.33,0.16-0.44,0c-0.27-0.33-0.27-1.31,0-1.69
			c0.16-0.22,0.38-0.22,0.55,0.05C167.5,32.2,167.56,32.48,167.61,32.75z"/>
		<path class="st2" d="M165.37,28.11c0,0.05,0,0.16,0,0.22c-0.05,0.27-0.22,0.49-0.38,0.49c-0.22,0-0.33-0.11-0.44-0.44
			c-0.11-0.27-0.05-0.55,0.11-0.82c0.16-0.33,0.49-0.27,0.66,0.05C165.37,27.78,165.37,27.94,165.37,28.11
			C165.43,28.11,165.37,28.11,165.37,28.11z"/>
		<path class="st2" d="M171.98,27.29c0.05-0.27,0.05-0.49,0.16-0.71c0.11-0.22,0.27-0.22,0.38,0c0.22,0.44,0.16,0.93,0,1.37
			c-0.05,0.22-0.27,0.22-0.38,0C172.04,27.72,171.98,27.5,171.98,27.29z"/>
		<path class="st2" d="M169.53,30.24c-0.05,0.16-0.05,0.38-0.11,0.55c-0.05,0.11-0.16,0.16-0.22,0.16s-0.16-0.11-0.16-0.16
			c-0.16-0.33-0.11-0.71,0-1.09c0.05-0.11,0.16-0.22,0.22-0.22c0.11,0,0.22,0.11,0.22,0.22C169.53,29.91,169.53,30.07,169.53,30.24z
			"/>
	</g>
	<g>
		<path class="st4" d="M240.37,86.72c0-0.55,0-1.04,0-1.58c0-0.16,0-0.38-0.05-0.55c-0.05-0.16-0.16-0.38-0.27-0.38
			c-0.16,0-0.33,0.11-0.44,0.27c-0.11,0.16-0.16,0.44-0.22,0.66c-0.11,0.33-0.27,0.44-0.6,0.38c-0.22,0-0.38-0.16-0.44-0.49
			c-0.05-0.44-0.11-0.87-0.11-1.31c0-0.16-0.05-0.33-0.11-0.38c-0.05-0.05-0.22,0.05-0.33,0.05l-0.05,0.05
			c-0.49,0.27-0.66,0.22-0.82-0.38c-0.16-0.66-0.16-1.31-0.05-2.02c0.16-0.82,0.38-1.58,0.82-2.24c0.38-0.55,0.87-0.93,1.42-1.15
			c0.71-0.33,1.47-0.49,2.24-0.6c1.2-0.11,2.35,0,3.44,0.49c0.76,0.33,1.47,0.76,1.91,1.58c0.27,0.49,0.38,0.98,0.38,1.53
			c0,0.16,0,0.27,0,0.44c0.05,0.44-0.11,0.82-0.33,1.15c-0.22,0.33-0.33,0.66-0.33,1.09c0,0.27,0.05,0.6-0.11,0.87
			c-0.16,0.33-0.44,0.33-0.6,0c-0.11-0.22-0.22-0.33-0.44-0.27s-0.22,0.22-0.27,0.44c-0.05,0.27-0.05,0.6-0.05,0.87
			c-0.05,0.27-0.05,0.55-0.11,0.76c0,0.05-0.11,0.16-0.11,0.16c-0.05,0-0.16-0.05-0.16-0.11c-0.05-0.27-0.11-0.55-0.16-0.82
			c-0.05-0.22-0.05-0.44-0.22-0.49s-0.33,0.05-0.44,0.33c-0.05,0.11-0.11,0.27-0.11,0.38c0,0.33,0,0.66,0.05,0.98
			c0.05,0.38,0,0.71-0.16,1.04c-0.11,0.22-0.22,0.27-0.44,0.27c-0.16,0-0.33-0.16-0.38-0.33c-0.05-0.38-0.05-0.76-0.05-1.15
			c0-0.33,0-0.66-0.05-0.93c0-0.11-0.11-0.27-0.16-0.27c-0.05,0-0.22,0.11-0.22,0.22c-0.05,0.22-0.16,0.44-0.16,0.66
			c-0.05,0.49-0.05,0.98-0.11,1.47c-0.05,0.6-0.16,1.2-0.27,1.75c-0.05,0.27-0.16,0.55-0.44,0.55s-0.49-0.22-0.55-0.49
			c-0.05-0.27-0.16-0.55-0.16-0.82C240.37,87.81,240.37,87.26,240.37,86.72z"/>
		<path class="st4" d="M241.41,91.47c-0.11,0.27-0.16,0.55-0.33,0.82c-0.11,0.22-0.33,0.16-0.44,0c-0.27-0.33-0.27-1.31,0-1.69
			c0.16-0.22,0.38-0.22,0.55,0.05C241.3,90.87,241.35,91.14,241.41,91.47z"/>
		<path class="st4" d="M239.17,86.82c0,0.05,0,0.16,0,0.22c-0.05,0.27-0.22,0.49-0.38,0.49c-0.22,0-0.33-0.11-0.44-0.44
			c-0.11-0.27-0.05-0.55,0.11-0.82c0.16-0.33,0.49-0.27,0.66,0.05C239.17,86.5,239.17,86.66,239.17,86.82
			C239.22,86.82,239.17,86.82,239.17,86.82z"/>
		<path class="st4" d="M245.78,86.01c0.05-0.27,0.05-0.49,0.16-0.71c0.11-0.22,0.27-0.22,0.38,0c0.22,0.44,0.16,0.93,0,1.37
			c-0.05,0.22-0.27,0.22-0.38,0C245.83,86.44,245.78,86.22,245.78,86.01z"/>
		<path class="st4" d="M243.32,88.96c-0.05,0.16-0.05,0.38-0.11,0.55c-0.05,0.11-0.16,0.16-0.22,0.16s-0.16-0.11-0.16-0.16
			c-0.16-0.33-0.11-0.71,0-1.09c0.05-0.11,0.16-0.22,0.22-0.22c0.11,0,0.22,0.11,0.22,0.22C243.32,88.57,243.32,88.79,243.32,88.96z
			"/>
	</g>
	<g>
		<path class="st1" d="M145.93,28c0-0.55,0-1.04,0-1.58c0-0.16,0-0.38-0.05-0.55s-0.16-0.38-0.27-0.38c-0.16,0-0.33,0.11-0.44,0.27
			c-0.11,0.16-0.16,0.44-0.22,0.66c-0.11,0.33-0.27,0.44-0.6,0.38c-0.22,0-0.38-0.16-0.44-0.49c-0.05-0.44-0.11-0.87-0.11-1.31
			c0-0.16-0.05-0.33-0.11-0.38c-0.05-0.05-0.22,0.05-0.33,0.05l-0.05,0.05c-0.49,0.27-0.66,0.22-0.82-0.38
			c-0.16-0.66-0.16-1.31-0.05-2.02c0.16-0.82,0.38-1.58,0.82-2.24c0.38-0.55,0.87-0.93,1.42-1.15c0.71-0.33,1.47-0.49,2.24-0.6
			c1.2-0.11,2.35,0,3.44,0.49c0.76,0.33,1.47,0.76,1.91,1.58c0.27,0.49,0.38,0.98,0.38,1.53c0,0.16,0,0.27,0,0.44
			c0.05,0.44-0.11,0.82-0.33,1.15c-0.22,0.33-0.33,0.66-0.33,1.09c0,0.27,0.05,0.6-0.11,0.87c-0.16,0.33-0.44,0.33-0.6,0
			c-0.11-0.22-0.22-0.33-0.44-0.27c-0.22,0.05-0.22,0.22-0.27,0.44c-0.05,0.27-0.05,0.6-0.05,0.87c-0.05,0.27-0.05,0.55-0.11,0.76
			c0,0.05-0.11,0.16-0.11,0.16c-0.05,0-0.16-0.05-0.16-0.11c-0.05-0.27-0.11-0.55-0.16-0.82c-0.05-0.22-0.05-0.44-0.22-0.49
			s-0.33,0.05-0.44,0.33c-0.05,0.11-0.11,0.27-0.11,0.38c0,0.33,0,0.66,0.05,0.98c0.05,0.38,0,0.71-0.16,1.04
			c-0.11,0.22-0.22,0.27-0.44,0.27c-0.16,0-0.33-0.16-0.38-0.33c-0.05-0.38-0.05-0.76-0.05-1.15c0-0.33,0-0.66-0.05-0.93
			c0-0.11-0.11-0.27-0.16-0.27c-0.05,0-0.22,0.11-0.22,0.22c-0.05,0.22-0.16,0.44-0.16,0.66c-0.05,0.49-0.05,0.98-0.11,1.47
			c-0.05,0.6-0.16,1.2-0.27,1.75c-0.05,0.27-0.16,0.55-0.44,0.55c-0.27,0-0.49-0.22-0.55-0.49s-0.16-0.55-0.16-0.82
			C145.93,29.09,145.93,28.54,145.93,28z"/>
		<path class="st1" d="M146.97,32.75c-0.11,0.27-0.16,0.55-0.33,0.82c-0.11,0.22-0.33,0.16-0.44,0c-0.27-0.33-0.27-1.31,0-1.69
			c0.16-0.22,0.38-0.22,0.55,0.05C146.86,32.2,146.91,32.48,146.97,32.75z"/>
		<path class="st1" d="M144.73,28.11c0,0.05,0,0.16,0,0.22c-0.05,0.27-0.22,0.49-0.38,0.49c-0.22,0-0.33-0.11-0.44-0.44
			c-0.11-0.27-0.05-0.55,0.11-0.82c0.16-0.33,0.49-0.27,0.66,0.05C144.73,27.78,144.73,27.94,144.73,28.11L144.73,28.11z"/>
		<path class="st1" d="M151.34,27.29c0.05-0.27,0.05-0.49,0.16-0.71c0.11-0.22,0.27-0.22,0.38,0c0.22,0.44,0.16,0.93,0,1.37
			c-0.05,0.22-0.27,0.22-0.38,0C151.39,27.72,151.34,27.5,151.34,27.29z"/>
		<path class="st1" d="M148.88,30.24c-0.05,0.16-0.05,0.38-0.11,0.55c-0.05,0.11-0.16,0.16-0.22,0.16s-0.16-0.11-0.16-0.16
			c-0.16-0.33-0.11-0.71,0-1.09c0.05-0.11,0.16-0.22,0.22-0.22c0.11,0,0.22,0.11,0.22,0.22C148.88,29.91,148.88,30.07,148.88,30.24z
			"/>
	</g>
	<g>
		<path class="st1" d="M127.41,28c0-0.55,0-1.04,0-1.58c0-0.16,0-0.38-0.05-0.55s-0.16-0.38-0.27-0.38c-0.16,0-0.33,0.11-0.44,0.27
			s-0.16,0.44-0.22,0.66c-0.11,0.33-0.27,0.44-0.6,0.38c-0.22,0-0.38-0.16-0.44-0.49c-0.05-0.44-0.11-0.87-0.11-1.31
			c0-0.16-0.05-0.33-0.11-0.38c-0.05-0.05-0.22,0.05-0.33,0.05l-0.05,0.05c-0.49,0.27-0.66,0.22-0.82-0.38
			c-0.16-0.66-0.16-1.31-0.05-2.02c0.16-0.82,0.38-1.58,0.82-2.24c0.38-0.55,0.87-0.93,1.42-1.15c0.71-0.33,1.47-0.49,2.24-0.6
			c1.2-0.11,2.35,0,3.44,0.49c0.76,0.33,1.47,0.76,1.91,1.58c0.27,0.49,0.38,0.98,0.38,1.53c0,0.16,0,0.27,0,0.44
			c0.05,0.44-0.11,0.82-0.33,1.15c-0.22,0.33-0.33,0.66-0.33,1.09c0,0.27,0.05,0.6-0.11,0.87c-0.16,0.33-0.44,0.33-0.6,0
			c-0.11-0.22-0.22-0.33-0.44-0.27c-0.22,0.05-0.22,0.22-0.27,0.44c-0.05,0.27-0.05,0.6-0.05,0.87c-0.05,0.27-0.05,0.55-0.11,0.76
			c0,0.05-0.11,0.16-0.11,0.16c-0.05,0-0.16-0.05-0.16-0.11c-0.05-0.27-0.11-0.55-0.16-0.82c-0.05-0.22-0.05-0.44-0.22-0.49
			c-0.16-0.05-0.33,0.05-0.44,0.33c-0.05,0.11-0.11,0.27-0.11,0.38c0,0.33,0,0.66,0.05,0.98c0.05,0.38,0,0.71-0.16,1.04
			c-0.11,0.22-0.22,0.27-0.44,0.27c-0.16,0-0.33-0.16-0.38-0.33c-0.05-0.38-0.05-0.76-0.05-1.15c0-0.33,0-0.66-0.05-0.93
			c0-0.11-0.11-0.27-0.16-0.27s-0.22,0.11-0.22,0.22c-0.05,0.22-0.16,0.44-0.16,0.66c-0.05,0.49-0.05,0.98-0.11,1.47
			c-0.05,0.6-0.16,1.2-0.27,1.75c-0.05,0.27-0.16,0.55-0.44,0.55c-0.27,0-0.49-0.22-0.55-0.49s-0.16-0.55-0.16-0.82
			C127.36,29.09,127.41,28.54,127.41,28z"/>
		<path class="st1" d="M128.45,32.75c-0.11,0.27-0.16,0.55-0.33,0.82c-0.11,0.22-0.33,0.16-0.44,0c-0.27-0.33-0.27-1.31,0-1.69
			c0.16-0.22,0.38-0.22,0.55,0.05C128.34,32.2,128.34,32.48,128.45,32.75z"/>
		<path class="st1" d="M126.21,28.11c0,0.05,0,0.16,0,0.22c-0.05,0.27-0.22,0.49-0.38,0.49c-0.22,0-0.33-0.11-0.44-0.44
			c-0.11-0.27-0.05-0.55,0.11-0.82c0.16-0.33,0.49-0.27,0.66,0.05C126.16,27.78,126.21,27.94,126.21,28.11L126.21,28.11z"/>
		<path class="st1" d="M132.76,27.29c0.05-0.27,0.05-0.49,0.16-0.71c0.11-0.22,0.27-0.22,0.38,0c0.22,0.44,0.16,0.93,0,1.37
			c-0.05,0.22-0.27,0.22-0.38,0C132.87,27.72,132.82,27.5,132.76,27.29z"/>
		<path class="st1" d="M130.36,30.24c-0.05,0.16-0.05,0.38-0.11,0.55c-0.05,0.11-0.16,0.16-0.22,0.16s-0.16-0.11-0.16-0.16
			c-0.16-0.33-0.11-0.71,0-1.09c0.05-0.11,0.16-0.22,0.22-0.22c0.11,0,0.22,0.11,0.22,0.22C130.31,29.91,130.36,30.07,130.36,30.24z
			"/>
	</g>
	<g>
		<path class="st3" d="M70.06,32.91c0-0.55,0-1.04,0-1.58c0-0.16,0-0.38-0.05-0.55s-0.16-0.38-0.27-0.38
			c-0.16,0-0.33,0.11-0.44,0.27s-0.16,0.44-0.22,0.66c-0.11,0.33-0.27,0.44-0.6,0.38c-0.22,0-0.38-0.16-0.44-0.49
			c-0.05-0.44-0.11-0.87-0.11-1.31c0-0.16-0.05-0.33-0.11-0.38c-0.05-0.05-0.22,0.05-0.33,0.05l-0.05,0.05
			c-0.49,0.27-0.66,0.22-0.82-0.38c-0.16-0.66-0.16-1.31-0.05-2.02c0.16-0.82,0.38-1.58,0.82-2.24c0.38-0.55,0.87-0.93,1.42-1.15
			c0.71-0.33,1.47-0.49,2.24-0.6c1.2-0.11,2.35,0,3.44,0.49c0.76,0.33,1.47,0.76,1.91,1.58c0.27,0.49,0.38,0.98,0.38,1.53
			c0,0.16,0,0.27,0,0.44c0.05,0.44-0.11,0.82-0.33,1.15s-0.33,0.66-0.33,1.09c0,0.27,0.05,0.6-0.11,0.87c-0.16,0.33-0.44,0.33-0.6,0
			c-0.11-0.22-0.22-0.33-0.44-0.27c-0.22,0.05-0.22,0.22-0.27,0.44c-0.05,0.27-0.05,0.6-0.05,0.87c-0.05,0.27-0.05,0.55-0.11,0.76
			c0,0.05-0.11,0.16-0.11,0.16c-0.05,0-0.16-0.05-0.16-0.11c-0.05-0.27-0.11-0.55-0.16-0.82c-0.05-0.22-0.05-0.44-0.22-0.49
			c-0.16-0.05-0.33,0.05-0.44,0.33c-0.05,0.11-0.11,0.27-0.11,0.38c0,0.33,0,0.66,0.05,0.98c0.05,0.38,0,0.71-0.16,1.04
			c-0.11,0.22-0.22,0.27-0.44,0.27c-0.16,0-0.33-0.16-0.38-0.33c-0.05-0.38-0.05-0.76-0.05-1.15c0-0.33,0-0.66-0.05-0.93
			c0-0.11-0.11-0.27-0.16-0.27s-0.22,0.11-0.22,0.22c-0.05,0.22-0.16,0.44-0.16,0.66c-0.05,0.49-0.05,0.98-0.11,1.47
			c-0.05,0.6-0.16,1.2-0.27,1.75c-0.05,0.27-0.16,0.55-0.44,0.55c-0.27,0-0.49-0.22-0.55-0.49c-0.05-0.27-0.16-0.55-0.16-0.82
			C70.06,34.06,70.06,33.51,70.06,32.91z"/>
		<path class="st3" d="M71.15,37.66c-0.11,0.27-0.16,0.55-0.33,0.82c-0.11,0.22-0.33,0.16-0.44,0c-0.27-0.33-0.27-1.31,0-1.69
			c0.16-0.22,0.38-0.22,0.55,0.05C70.99,37.12,71.04,37.39,71.15,37.66z"/>
		<path class="st3" d="M68.91,33.02c0,0.05,0,0.16,0,0.22c-0.05,0.27-0.22,0.49-0.38,0.49c-0.22,0-0.33-0.11-0.44-0.44
			c-0.11-0.27-0.05-0.55,0.11-0.82c0.16-0.33,0.49-0.27,0.66,0.05C68.86,32.69,68.86,32.86,68.91,33.02L68.91,33.02z"/>
		<path class="st3" d="M75.47,32.2c0.05-0.27,0.05-0.49,0.16-0.71c0.11-0.22,0.27-0.22,0.38,0c0.22,0.44,0.16,0.93,0,1.37
			c-0.05,0.22-0.27,0.22-0.38,0S75.52,32.42,75.47,32.2z"/>
		<path class="st3" d="M73.06,35.15c-0.05,0.16-0.05,0.38-0.11,0.55c-0.05,0.11-0.16,0.16-0.22,0.16c-0.05,0-0.16-0.11-0.16-0.16
			c-0.16-0.33-0.11-0.71,0-1.09c0.05-0.11,0.16-0.22,0.22-0.22c0.11,0,0.22,0.11,0.22,0.22C73.01,34.82,73.01,34.99,73.06,35.15z"/>
	</g>
	<g>
		<path class="st3" d="M51.54,32.91c0-0.55,0-1.04,0-1.58c0-0.16,0-0.38-0.05-0.55s-0.16-0.38-0.27-0.38
			c-0.16,0-0.33,0.11-0.44,0.27c-0.11,0.16-0.16,0.44-0.22,0.66c-0.11,0.33-0.27,0.44-0.6,0.38c-0.22,0-0.38-0.16-0.44-0.49
			c-0.05-0.44-0.11-0.87-0.11-1.31c0-0.16-0.05-0.33-0.11-0.38c-0.05-0.05-0.22,0.05-0.33,0.05l-0.05,0.05
			c-0.49,0.27-0.66,0.22-0.82-0.38c-0.16-0.66-0.16-1.31-0.05-2.02c0.16-0.82,0.38-1.58,0.82-2.24c0.38-0.55,0.87-0.93,1.42-1.15
			c0.71-0.33,1.47-0.49,2.24-0.6c1.2-0.11,2.35,0,3.44,0.49c0.76,0.33,1.47,0.76,1.91,1.58c0.27,0.49,0.38,0.98,0.38,1.53
			c0,0.16,0,0.27,0,0.44c0.05,0.44-0.11,0.82-0.33,1.15s-0.33,0.66-0.33,1.09c0,0.27,0.05,0.6-0.11,0.87c-0.16,0.33-0.44,0.33-0.6,0
			c-0.11-0.22-0.22-0.33-0.44-0.27c-0.22,0.05-0.22,0.22-0.27,0.44c-0.05,0.27-0.05,0.6-0.05,0.87c-0.05,0.27-0.05,0.55-0.11,0.76
			c0,0.05-0.11,0.16-0.11,0.16c-0.05,0-0.16-0.05-0.16-0.11c-0.05-0.27-0.11-0.55-0.16-0.82c-0.05-0.22-0.05-0.44-0.22-0.49
			c-0.16-0.05-0.33,0.05-0.44,0.33c-0.05,0.11-0.11,0.27-0.11,0.38c0,0.33,0,0.66,0.05,0.98c0.05,0.38,0,0.71-0.16,1.04
			c-0.11,0.22-0.22,0.27-0.44,0.27c-0.16,0-0.33-0.16-0.38-0.33c-0.05-0.38-0.05-0.76-0.05-1.15c0-0.33,0-0.66-0.05-0.93
			c0-0.11-0.11-0.27-0.16-0.27c-0.05,0-0.22,0.11-0.22,0.22c-0.05,0.22-0.16,0.44-0.16,0.66c-0.05,0.49-0.05,0.98-0.11,1.47
			c-0.05,0.6-0.16,1.2-0.27,1.75c-0.05,0.27-0.16,0.55-0.44,0.55s-0.49-0.22-0.55-0.49s-0.16-0.55-0.16-0.82
			C51.54,34.06,51.54,33.51,51.54,32.91z"/>
		<path class="st3" d="M52.63,37.66c-0.11,0.27-0.16,0.55-0.33,0.82c-0.11,0.22-0.33,0.16-0.44,0c-0.27-0.33-0.27-1.31,0-1.69
			c0.16-0.22,0.38-0.22,0.55,0.05C52.47,37.12,52.52,37.39,52.63,37.66z"/>
		<path class="st3" d="M50.34,33.02c0,0.05,0,0.16,0,0.22c-0.05,0.27-0.22,0.49-0.38,0.49c-0.22,0-0.33-0.11-0.44-0.44
			c-0.11-0.27-0.05-0.55,0.11-0.82c0.16-0.33,0.49-0.27,0.66,0.05C50.34,32.69,50.34,32.86,50.34,33.02
			C50.39,33.02,50.39,33.02,50.34,33.02z"/>
		<path class="st3" d="M56.95,32.2c0.05-0.27,0.05-0.49,0.16-0.71c0.11-0.22,0.27-0.22,0.38,0c0.22,0.44,0.16,0.93,0,1.37
			c-0.05,0.22-0.27,0.22-0.38,0C57,32.64,57,32.42,56.95,32.2z"/>
		<path class="st3" d="M54.54,35.15c-0.05,0.16-0.05,0.38-0.11,0.55c-0.05,0.11-0.16,0.16-0.22,0.16s-0.16-0.11-0.16-0.16
			c-0.16-0.33-0.11-0.71,0-1.09c0.05-0.11,0.16-0.22,0.22-0.22c0.11,0,0.22,0.11,0.22,0.22C54.49,34.82,54.49,34.99,54.54,35.15z"/>
	</g>
	<circle class="st4" cx="241.9" cy="77.05" r="7.59"/>
</g>
<g>
	<path d="M328,15.51h5.4v52.61h10.33l1.59,1.59v3.18l-1.59,1.59h-10.73c-1.01,6.04-3.3,10.69-6.87,13.95
		c-3.58,3.26-8.86,4.89-15.85,4.89c-3.5,0-6.64-0.56-9.42-1.67c-2.78-1.11-5.14-2.7-7.07-4.77c-1.93-2.07-3.43-4.56-4.49-7.47
		c-1.06-2.91-1.59-6.2-1.59-9.85c0-1.59,0.08-3.35,0.24-5.28c0.16-1.93,0.5-3.96,1.03-6.08l5.24,0.95
		c-0.42,1.85-0.71,3.54-0.87,5.05c-0.16,1.51-0.24,3.03-0.24,4.57c0,6.25,1.43,10.85,4.29,13.79c2.86,2.94,7.34,4.41,13.43,4.41
		c2.86,0,5.36-0.31,7.51-0.91c2.15-0.61,3.93-1.64,5.36-3.1c1.43-1.46,2.5-3.38,3.22-5.76c0.71-2.38,1.07-5.35,1.07-8.9V15.51z"/>
	<path d="M373.3,68.12l1.59,1.59v3.18l-1.59,1.59h-29.56l-1.59-1.59V69.7l1.59-1.59h2.38c3.66,0,6.18-0.69,7.59-2.07
		c1.4-1.38,2.11-3.6,2.11-6.67V39.11h5.4v19.23c0,2.54-0.2,4.58-0.6,6.12c-0.4,1.54-1.13,2.76-2.19,3.66H373.3z M350.57,83.21
		c0-1.11,0.38-2.07,1.15-2.86c0.77-0.79,1.71-1.19,2.82-1.19c1.11,0,2.07,0.4,2.86,1.19c0.79,0.79,1.19,1.75,1.19,2.86
		s-0.4,2.05-1.19,2.82c-0.79,0.77-1.75,1.15-2.86,1.15c-1.11,0-2.05-0.39-2.82-1.15C350.95,85.27,350.57,84.33,350.57,83.21z"/>
	<path d="M387.36,68.12c4.18,0,7.61-0.38,10.29-1.15c2.67-0.77,4.57-2.08,5.68-3.93c-0.64,0.27-1.37,0.48-2.19,0.64
		c-0.82,0.16-1.67,0.31-2.54,0.44c-0.87,0.13-1.76,0.23-2.66,0.28c-0.9,0.05-1.7,0.08-2.38,0.08c-2.81,0-5.18-0.29-7.11-0.87
		c-1.93-0.58-3.51-1.42-4.73-2.5c-1.22-1.09-2.11-2.4-2.66-3.93c-0.56-1.54-0.83-3.28-0.83-5.24c0-2.54,0.45-5.06,1.35-7.55
		c0.9-2.49,2.09-4.7,3.58-6.64c1.48-1.93,3.18-3.51,5.09-4.73c1.91-1.22,3.87-1.83,5.88-1.83c2.59,0,4.91,0.7,6.95,2.11
		c2.04,1.4,3.75,3.25,5.13,5.52c1.38,2.28,2.44,4.85,3.18,7.71c0.74,2.86,1.11,5.72,1.11,8.58c0,3.55-0.57,6.56-1.71,9.02
		c-1.14,2.46-2.81,4.46-5.01,6c-2.2,1.54-4.87,2.65-8.03,3.34c-3.15,0.69-6.74,1.03-10.77,1.03H373.3l-1.59-1.59V69.7l1.59-1.59
		H387.36z M383.31,20.04c0-1.11,0.38-2.07,1.15-2.86c0.77-0.79,1.71-1.19,2.82-1.19c1.11,0,2.07,0.4,2.86,1.19
		c0.79,0.79,1.19,1.75,1.19,2.86s-0.4,2.05-1.19,2.82c-0.79,0.77-1.75,1.15-2.86,1.15c-1.11,0-2.05-0.38-2.82-1.15
		C383.69,22.09,383.31,21.15,383.31,20.04z M395.71,58.1c0.58,0,1.28-0.03,2.11-0.08c0.82-0.05,1.67-0.12,2.54-0.2
		c0.87-0.08,1.72-0.18,2.54-0.32c0.82-0.13,1.55-0.28,2.19-0.44v-0.48c0-2.38-0.29-4.71-0.87-6.99c-0.58-2.28-1.4-4.32-2.46-6.12
		c-1.06-1.8-2.33-3.24-3.81-4.33c-1.48-1.09-3.13-1.63-4.93-1.63c-1.27,0-2.46,0.4-3.58,1.19c-1.11,0.79-2.11,1.82-2.98,3.06
		c-0.87,1.25-1.56,2.64-2.07,4.17c-0.5,1.54-0.75,3.05-0.75,4.53c0,1.33,0.17,2.46,0.52,3.42c0.34,0.95,0.98,1.75,1.91,2.38
		c0.93,0.64,2.17,1.1,3.73,1.39C391.35,57.96,393.32,58.1,395.71,58.1z M394.91,20.04c0-1.11,0.37-2.07,1.11-2.86
		c0.74-0.79,1.64-1.19,2.7-1.19c1.16,0,2.15,0.4,2.94,1.19c0.79,0.79,1.19,1.75,1.19,2.86s-0.4,2.05-1.19,2.82
		c-0.79,0.77-1.78,1.15-2.94,1.15c-1.06,0-1.96-0.38-2.7-1.15C395.28,22.09,394.91,21.15,394.91,20.04z"/>
	<path d="M474.61,39.11h5.4v29h10.33l1.59,1.59v3.18l-1.59,1.59h-10.73c-1.01,6.04-3.3,10.69-6.87,13.95
		c-3.58,3.26-8.86,4.89-15.85,4.89c-3.5,0-6.64-0.56-9.42-1.67c-2.78-1.11-5.14-2.7-7.07-4.77c-1.93-2.07-3.43-4.56-4.49-7.47
		c-1.06-2.91-1.59-6.2-1.59-9.85c0-1.59,0.08-3.35,0.24-5.28c0.16-1.93,0.5-3.96,1.03-6.08l5.24,0.95
		c-0.42,1.85-0.71,3.54-0.87,5.05c-0.16,1.51-0.24,3.03-0.24,4.57c0,6.25,1.43,10.85,4.29,13.79c2.86,2.94,7.34,4.41,13.43,4.41
		c2.86,0,5.36-0.31,7.51-0.91c2.15-0.61,3.93-1.64,5.36-3.1c1.43-1.46,2.5-3.38,3.22-5.76c0.71-2.38,1.07-5.35,1.07-8.9V39.11z
		 M451.73,36.25c0-1.11,0.38-2.07,1.15-2.86c0.77-0.79,1.71-1.19,2.82-1.19c1.11,0,2.07,0.4,2.86,1.19
		c0.79,0.79,1.19,1.75,1.19,2.86c0,1.11-0.4,2.05-1.19,2.82c-0.79,0.77-1.75,1.15-2.86,1.15c-1.11,0-2.05-0.38-2.82-1.15
		C452.11,38.3,451.73,37.36,451.73,36.25z"/>
	<path d="M488.68,72.88V69.7l1.67-1.59c2.33,0,4.01-0.46,5.05-1.39c1.03-0.93,1.95-2.32,2.74-4.17c1.8-4.18,3.46-7.72,4.97-10.61
		c1.51-2.89,3.02-5.22,4.53-6.99c1.51-1.77,3.05-3.06,4.61-3.85c1.56-0.79,3.3-1.19,5.21-1.19c2.01,0,3.92,0.61,5.72,1.83
		c1.8,1.22,3.36,2.83,4.69,4.85c1.32,2.01,2.37,4.33,3.14,6.95c0.77,2.62,1.15,5.31,1.15,8.07c0,4.08-1.17,7.3-3.5,9.66
		c-2.33,2.36-6.23,3.54-11.68,3.54c-3.29,0-6.23-0.32-8.82-0.95c-2.6-0.64-5.27-1.77-8.03-3.42c-1.06,1.38-2.29,2.4-3.7,3.06
		c-1.4,0.66-3.43,0.99-6.08,0.99L488.68,72.88z M516.49,46.26c-1.01,0-1.97,0.27-2.9,0.79c-0.93,0.53-1.9,1.46-2.9,2.78
		c-1.01,1.32-2.09,3.11-3.26,5.36c-1.17,2.25-2.46,5.13-3.89,8.62c2.44,1.54,4.86,2.69,7.27,3.46c2.41,0.77,5.13,1.15,8.15,1.15
		c3.13,0,5.21-0.42,6.24-1.27c1.03-0.85,1.55-2.2,1.55-4.05c0-2.12-0.27-4.18-0.79-6.2c-0.53-2.01-1.24-3.81-2.15-5.4
		c-0.9-1.59-1.99-2.86-3.26-3.81C519.27,46.74,517.92,46.26,516.49,46.26z"/>
	<path d="M595.48,39.11h5.4v29h10.33l1.59,1.59v3.18l-1.59,1.59h-10.73c-1.01,6.04-3.3,10.69-6.87,13.95
		c-3.58,3.26-8.86,4.89-15.85,4.89c-3.5,0-6.64-0.56-9.42-1.67c-2.78-1.11-5.14-2.7-7.07-4.77c-1.93-2.07-3.43-4.56-4.49-7.47
		c-1.06-2.91-1.59-6.2-1.59-9.85c0-1.59,0.08-3.35,0.24-5.28c0.16-1.93,0.5-3.96,1.03-6.08l5.24,0.95
		c-0.42,1.85-0.71,3.54-0.87,5.05c-0.16,1.51-0.24,3.03-0.24,4.57c0,6.25,1.43,10.85,4.29,13.79c2.86,2.94,7.34,4.41,13.43,4.41
		c2.86,0,5.36-0.31,7.51-0.91c2.15-0.61,3.93-1.64,5.36-3.1c1.43-1.46,2.5-3.38,3.22-5.76c0.71-2.38,1.07-5.35,1.07-8.9V39.11z
		 M572.59,36.25c0-1.11,0.38-2.07,1.15-2.86c0.77-0.79,1.71-1.19,2.82-1.19c1.11,0,2.07,0.4,2.86,1.19
		c0.79,0.79,1.19,1.75,1.19,2.86c0,1.11-0.4,2.05-1.19,2.82c-0.79,0.77-1.75,1.15-2.86,1.15c-1.11,0-2.05-0.38-2.82-1.15
		C572.98,38.3,572.59,37.36,572.59,36.25z"/>
	<path d="M611.21,74.47l-1.59-1.59V69.7l1.59-1.59h44.34c-1.59-4.34-3.38-7.97-5.36-10.89c-1.99-2.91-4.07-5.24-6.24-6.99
		c-2.17-1.75-4.42-2.98-6.75-3.7c-2.33-0.72-4.64-1.07-6.91-1.07c-1.38,0-2.91,0.25-4.61,0.75c-1.7,0.5-3.42,1.36-5.17,2.58
		l-3.02-5.4c2.38-1.69,4.69-2.83,6.91-3.42c2.23-0.58,4.45-0.87,6.67-0.87c2.86,0,5.72,0.5,8.58,1.51c2.86,1.01,5.6,2.66,8.22,4.97
		c2.62,2.3,5.07,5.3,7.35,8.98c2.28,3.68,4.32,8.2,6.12,13.55h8.19l1.59,1.59v3.18l-1.59,1.59H611.21z"/>
	<path d="M667.95,72.88V69.7l1.59-1.59h1.51c3.66,0,6.18-0.69,7.59-2.07c1.4-1.38,2.11-3.6,2.11-6.67V39.11h5.4v19.23
		c0,2.54-0.2,4.58-0.6,6.12c-0.4,1.54-1.13,2.76-2.19,3.66h12.08c3.66,0,6.18-0.69,7.59-2.07c1.4-1.38,2.11-3.6,2.11-6.67V39.11h5.4
		v19.23c0,2.54-0.2,4.58-0.6,6.12c-0.4,1.54-1.13,2.76-2.19,3.66h9.22c3.66,0,6.18-0.69,7.59-2.07c1.4-1.38,2.11-3.6,2.11-6.67
		V36.65h5.4v21.69c0,5.51-1.4,9.58-4.21,12.2c-2.81,2.62-7.55,3.93-14.22,3.93h-44.1L667.95,72.88z M698.07,27.19
		c0-1.11,0.38-2.07,1.15-2.86c0.77-0.79,1.71-1.19,2.82-1.19c1.11,0,2.07,0.4,2.86,1.19c0.79,0.79,1.19,1.75,1.19,2.86
		s-0.4,2.05-1.19,2.82c-0.79,0.77-1.75,1.15-2.86,1.15c-1.11,0-2.05-0.38-2.82-1.15C698.45,29.24,698.07,28.3,698.07,27.19z
		 M703.79,17.1c0-1.16,0.4-2.15,1.19-2.94c0.79-0.79,1.72-1.19,2.78-1.19c1.16,0,2.15,0.4,2.94,1.19c0.79,0.79,1.19,1.78,1.19,2.94
		c0,1.06-0.4,1.99-1.19,2.78c-0.79,0.79-1.78,1.19-2.94,1.19c-1.06,0-1.99-0.4-2.78-1.19C704.18,19.09,703.79,18.16,703.79,17.1z
		 M709.67,27.19c0-1.11,0.37-2.07,1.11-2.86c0.74-0.79,1.64-1.19,2.7-1.19c1.16,0,2.15,0.4,2.94,1.19c0.79,0.79,1.19,1.75,1.19,2.86
		s-0.4,2.05-1.19,2.82c-0.79,0.77-1.78,1.15-2.94,1.15c-1.06,0-1.96-0.38-2.7-1.15C710.04,29.24,709.67,28.3,709.67,27.19z"/>
</g>
</svg>
