<?xml version="1.0" encoding="utf-8"?>
<!-- Generator: Adobe Illustrator 23.0.6, SVG Export Plug-In . SVG Version: 6.00 Build 0)  -->
<svg version="1.1" id="Layer_1" xmlns="http://www.w3.org/2000/svg" xmlns:xlink="http://www.w3.org/1999/xlink" x="0px" y="0px"
	 viewBox="0 0 249.15 25.66" style="enable-background:new 0 0 249.15 25.66;" xml:space="preserve">
<style type="text/css">
	.st0{fill:#F68B1E;}
</style>
<g>
	<path class="st0" d="M19.54,15.74c0.57,0,0.94-0.12,1.12-0.35c0.18-0.23,0.27-0.53,0.27-0.91V8.76h2.17v5.32
		c0,0.64-0.05,1.23-0.16,1.75c-0.11,0.52-0.3,0.97-0.57,1.33c-0.27,0.37-0.64,0.65-1.09,0.85c-0.46,0.2-1.03,0.3-1.71,0.3
		c-1.33,0-2.29-0.35-2.87-1.06c-0.59-0.71-0.88-1.8-0.88-3.29v-2.94c-0.15-0.06-0.35-0.12-0.59-0.16c-0.24-0.05-0.45-0.07-0.63-0.07
		c-0.26,0-0.48,0.02-0.66,0.05c-0.18,0.03-0.33,0.1-0.44,0.2c-0.12,0.1-0.2,0.25-0.26,0.45c-0.06,0.2-0.09,0.47-0.09,0.82v3.27
		c0,0.73-0.08,1.37-0.23,1.91c-0.15,0.54-0.42,0.99-0.78,1.33c-0.37,0.35-0.85,0.61-1.45,0.77c-0.6,0.17-1.34,0.25-2.23,0.25H7.72
		c-0.81,0-1.55-0.11-2.2-0.33c-0.66-0.22-1.22-0.58-1.68-1.08c-0.46-0.5-0.82-1.16-1.07-1.96c-0.25-0.81-0.38-1.79-0.38-2.97
		c0-0.43,0.02-0.86,0.07-1.31c0.05-0.45,0.13-0.92,0.24-1.41l2.11,0.39c-0.08,0.37-0.14,0.74-0.18,1.09
		c-0.05,0.35-0.07,0.71-0.07,1.07c0,0.89,0.06,1.6,0.17,2.12s0.32,0.92,0.6,1.19c0.28,0.27,0.67,0.44,1.15,0.52
		c0.48,0.08,1.09,0.12,1.81,0.12h0.68c0.37,0,0.69-0.02,0.95-0.05c0.26-0.03,0.46-0.1,0.62-0.19c0.15-0.1,0.26-0.24,0.33-0.43
		c0.06-0.19,0.1-0.44,0.1-0.74v-3.31c0-0.66,0.07-1.25,0.2-1.79c0.14-0.53,0.35-0.99,0.66-1.37c0.3-0.38,0.7-0.67,1.19-0.88
		c0.49-0.21,1.1-0.31,1.82-0.31c0.71,0,1.31,0.05,1.8,0.16c0.49,0.11,0.94,0.25,1.35,0.42v4.89c0,0.4,0.02,0.73,0.06,1
		c0.04,0.26,0.11,0.47,0.22,0.63c0.11,0.15,0.27,0.26,0.47,0.33C18.93,15.7,19.2,15.74,19.54,15.74z M5.54,22.18
		c0-0.32,0.11-0.6,0.34-0.83C6.1,21.11,6.38,21,6.7,21c0.34,0,0.62,0.12,0.85,0.35c0.23,0.23,0.35,0.51,0.35,0.83
		c0,0.34-0.12,0.61-0.35,0.83s-0.52,0.33-0.85,0.33c-0.32,0-0.6-0.11-0.82-0.33C5.65,22.79,5.54,22.51,5.54,22.18z M8.61,22.18
		c0-0.32,0.11-0.6,0.34-0.83C9.18,21.11,9.45,21,9.77,21c0.34,0,0.62,0.12,0.85,0.35c0.23,0.23,0.35,0.51,0.35,0.83
		c0,0.34-0.12,0.61-0.35,0.83c-0.23,0.22-0.52,0.33-0.85,0.33c-0.32,0-0.6-0.11-0.82-0.33C8.72,22.79,8.61,22.51,8.61,22.18z
		 M19.19,20.63c0-0.32,0.11-0.6,0.34-0.83c0.23-0.23,0.5-0.35,0.82-0.35c0.34,0,0.62,0.12,0.85,0.35c0.23,0.23,0.35,0.51,0.35,0.83
		c0,0.34-0.12,0.61-0.35,0.83c-0.23,0.22-0.52,0.33-0.85,0.33c-0.32,0-0.6-0.11-0.82-0.33C19.3,21.24,19.19,20.96,19.19,20.63z"/>
	<path class="st0" d="M33.52,15.47c0,1.24-0.15,2.29-0.44,3.16c-0.3,0.87-0.73,1.59-1.29,2.15c-0.56,0.56-1.24,0.97-2.04,1.23
		c-0.8,0.26-1.7,0.39-2.71,0.39l-0.31-2.57c1.13,0,2.03-0.12,2.69-0.36c0.66-0.24,1.13-0.62,1.43-1.15h-0.89
		c-0.95,0-1.75-0.09-2.39-0.26c-0.64-0.17-1.14-0.41-1.52-0.72c-0.37-0.3-0.64-0.66-0.79-1.07c-0.15-0.41-0.23-0.86-0.23-1.33
		c0-0.66,0.13-1.34,0.39-2.05c0.26-0.71,0.6-1.35,1.02-1.93c0.42-0.58,0.89-1.06,1.42-1.43c0.53-0.37,1.06-0.56,1.61-0.56
		c0.62,0,1.18,0.19,1.68,0.57c0.5,0.38,0.93,0.88,1.28,1.5c0.35,0.62,0.62,1.32,0.81,2.1C33.42,13.9,33.52,14.68,33.52,15.47z
		 M27.19,14.56c0,0.19,0.04,0.36,0.14,0.5c0.09,0.14,0.25,0.26,0.48,0.37c0.23,0.1,0.55,0.18,0.96,0.23
		c0.41,0.05,0.92,0.08,1.56,0.08h1.01c0-0.59-0.06-1.14-0.18-1.65c-0.12-0.51-0.28-0.95-0.48-1.33c-0.2-0.38-0.43-0.68-0.68-0.9
		c-0.25-0.22-0.5-0.33-0.74-0.33c-0.23,0-0.47,0.09-0.72,0.27c-0.25,0.18-0.46,0.42-0.66,0.71c-0.19,0.29-0.35,0.62-0.48,0.98
		C27.26,13.84,27.19,14.2,27.19,14.56z"/>
	<path class="st0" d="M40.32,16.59c0,0.98-0.1,1.85-0.3,2.61c-0.2,0.76-0.52,1.4-0.96,1.92c-0.44,0.52-1.01,0.92-1.7,1.19
		c-0.7,0.27-1.55,0.41-2.55,0.41l-0.19-2.55c0.76,0,1.37-0.08,1.84-0.24c0.46-0.16,0.82-0.41,1.07-0.74
		c0.25-0.34,0.42-0.77,0.5-1.31c0.08-0.53,0.13-1.18,0.13-1.94V8.76h2.17V16.59z"/>
	<path class="st0" d="M50.75,15.47c0,1.24-0.15,2.29-0.44,3.16c-0.3,0.87-0.73,1.59-1.29,2.15c-0.56,0.56-1.24,0.97-2.04,1.23
		c-0.8,0.26-1.7,0.39-2.71,0.39l-0.31-2.57c1.13,0,2.03-0.12,2.69-0.36c0.66-0.24,1.13-0.62,1.43-1.15h-0.89
		c-0.95,0-1.75-0.09-2.39-0.26c-0.64-0.17-1.14-0.41-1.52-0.72c-0.37-0.3-0.64-0.66-0.79-1.07c-0.15-0.41-0.23-0.86-0.23-1.33
		c0-0.66,0.13-1.34,0.39-2.05c0.26-0.71,0.6-1.35,1.02-1.93c0.42-0.58,0.89-1.06,1.42-1.43c0.53-0.37,1.06-0.56,1.61-0.56
		c0.62,0,1.18,0.19,1.68,0.57c0.5,0.38,0.93,0.88,1.28,1.5c0.35,0.62,0.62,1.32,0.81,2.1C50.65,13.9,50.75,14.68,50.75,15.47z
		 M44.42,14.56c0,0.19,0.04,0.36,0.14,0.5c0.09,0.14,0.25,0.26,0.48,0.37c0.23,0.1,0.55,0.18,0.96,0.23
		c0.41,0.05,0.92,0.08,1.56,0.08h1.01c0-0.59-0.06-1.14-0.18-1.65c-0.12-0.51-0.28-0.95-0.48-1.33c-0.2-0.38-0.43-0.68-0.68-0.9
		c-0.25-0.22-0.5-0.33-0.74-0.33c-0.23,0-0.47,0.09-0.72,0.27c-0.25,0.18-0.46,0.42-0.66,0.71c-0.19,0.29-0.35,0.62-0.48,0.98
		C44.49,13.84,44.42,14.2,44.42,14.56z"/>
	<path class="st0" d="M57.96,15.74l-1.2-7.04l2.17-0.5l1.18,7.54h1.7c0.5,0,0.82-0.09,0.95-0.26c0.13-0.17,0.19-0.47,0.19-0.88V3.96
		h2.17v10.06c0,0.64-0.06,1.23-0.18,1.76c-0.12,0.53-0.33,0.98-0.63,1.35c-0.3,0.37-0.7,0.66-1.2,0.87c-0.5,0.21-1.13,0.31-1.9,0.31
		h-8.53v-2.57H57.96z M60.1,5.18c-0.14,0.39-0.27,0.67-0.38,0.85c-0.11,0.18-0.21,0.3-0.3,0.35c-0.06,0.04-0.19,0.07-0.37,0.1
		c-0.18,0.03-0.49,0.04-0.93,0.04c-0.3,0-0.62,0-0.98-0.01c-0.36-0.01-0.71-0.02-1.04-0.03c-0.38-0.01-0.77-0.03-1.15-0.04V4.97
		h0.83c-0.1-0.15-0.18-0.32-0.24-0.48c-0.06-0.17-0.09-0.37-0.09-0.62c0-0.26,0.06-0.52,0.18-0.77c0.12-0.26,0.29-0.49,0.51-0.69
		c0.22-0.2,0.48-0.36,0.78-0.49c0.3-0.13,0.63-0.19,0.98-0.19c0.27,0,0.54,0.03,0.8,0.1c0.26,0.06,0.51,0.17,0.74,0.33l-0.58,1.57
		c-0.25-0.1-0.46-0.17-0.64-0.21c-0.18-0.04-0.37-0.06-0.56-0.06c-0.22,0-0.39,0.05-0.5,0.15c-0.12,0.1-0.17,0.21-0.17,0.34
		c0,0.26,0.1,0.47,0.31,0.64c0.21,0.17,0.5,0.25,0.87,0.25c0.24,0,0.56-0.01,0.96-0.04c0.39-0.03,0.78-0.07,1.15-0.14L60.1,5.18z"/>
	<path class="st0" d="M68.4,18.31V3.96h2.17v14.35H68.4z"/>
	<path class="st0" d="M85.78,18.31h-8.47l0.72-2.57h5.59c0-0.57-0.11-1.11-0.33-1.63c-0.22-0.52-0.54-1-0.95-1.42
		c-0.41-0.43-0.91-0.78-1.5-1.07c-0.59-0.29-1.24-0.49-1.96-0.61l0.85-2.57c0.97,0.17,1.83,0.47,2.58,0.9
		c0.75,0.43,1.39,0.97,1.9,1.6c0.52,0.64,0.91,1.37,1.17,2.19c0.26,0.82,0.4,1.69,0.4,2.62V18.31z"/>
	<path class="st0" d="M90.46,3.96v10.52c0,0.18,0.01,0.35,0.04,0.5c0.03,0.15,0.08,0.29,0.16,0.4c0.08,0.11,0.21,0.2,0.37,0.26
		c0.16,0.06,0.38,0.1,0.65,0.1h0.91l0.64,0.64v1.3l-0.64,0.64h-0.5c-0.8,0-1.45-0.12-1.94-0.35c-0.5-0.23-0.88-0.55-1.15-0.95
		c-0.27-0.4-0.45-0.87-0.55-1.41c-0.1-0.54-0.14-1.11-0.14-1.72V3.96H90.46z"/>
	<path class="st0" d="M106.8,15.74l0.39,0.39v1.8l-0.39,0.39H92.59l-0.39-0.39v-1.8l0.39-0.39h10.07c-0.7-1.39-1.46-2.49-2.3-3.3
		c-0.84-0.81-1.79-1.21-2.84-1.21c-0.77,0-1.58,0.26-2.42,0.77l-1.2-2.22c0.68-0.45,1.33-0.75,1.94-0.9
		c0.61-0.15,1.25-0.22,1.9-0.22c1.37,0,2.65,0.59,3.84,1.78c1.19,1.19,2.28,2.95,3.28,5.3H106.8z"/>
	<path class="st0" d="M111.29,14.07c0,0.61-0.05,1.17-0.16,1.69c-0.11,0.52-0.31,0.97-0.61,1.34c-0.3,0.37-0.7,0.67-1.22,0.88
		c-0.52,0.21-1.17,0.32-1.97,0.32h-0.52l-0.64-0.64v-1.3l0.64-0.64h0.93c0.57,0,0.94-0.12,1.12-0.35c0.18-0.23,0.27-0.53,0.27-0.91
		V8.76h2.17V14.07z M107.5,6.05c0-0.32,0.11-0.6,0.34-0.83c0.23-0.23,0.5-0.35,0.82-0.35c0.34,0,0.62,0.12,0.85,0.35
		c0.23,0.23,0.35,0.51,0.35,0.83c0,0.34-0.12,0.61-0.35,0.83c-0.23,0.22-0.52,0.33-0.85,0.33c-0.32,0-0.6-0.11-0.82-0.33
		C107.61,6.66,107.5,6.38,107.5,6.05z M110.57,6.05c0-0.32,0.11-0.6,0.34-0.83c0.23-0.23,0.5-0.35,0.82-0.35
		c0.34,0,0.62,0.12,0.85,0.35c0.23,0.23,0.35,0.51,0.35,0.83c0,0.34-0.12,0.61-0.35,0.83c-0.23,0.22-0.52,0.33-0.85,0.33
		c-0.32,0-0.6-0.11-0.82-0.33C110.69,6.66,110.57,6.38,110.57,6.05z"/>
	<path class="st0" d="M119.04,15.74l-1.2-7.04l2.17-0.5l1.18,7.54h1.7c0.5,0,0.82-0.09,0.95-0.26c0.13-0.17,0.19-0.47,0.19-0.88
		V3.96h2.17v10.06c0,0.64-0.06,1.23-0.18,1.76c-0.12,0.53-0.33,0.98-0.63,1.35c-0.3,0.37-0.7,0.66-1.2,0.87
		c-0.5,0.21-1.13,0.31-1.9,0.31h-8.53v-2.57H119.04z"/>
	<path class="st0" d="M129.48,18.31V3.96h2.17v14.35H129.48z"/>
	<path d="M147.83,3.96h1.31v12.8h2.51l0.39,0.39v0.77l-0.39,0.39h-2.61c-0.25,1.47-0.8,2.6-1.67,3.39
		c-0.87,0.79-2.16,1.19-3.86,1.19c-0.85,0-1.61-0.14-2.29-0.41c-0.68-0.27-1.25-0.66-1.72-1.16c-0.47-0.5-0.83-1.11-1.09-1.82
		c-0.26-0.71-0.39-1.51-0.39-2.4c0-0.39,0.02-0.82,0.06-1.29c0.04-0.47,0.12-0.96,0.25-1.48l1.28,0.23
		c-0.1,0.45-0.17,0.86-0.21,1.23c-0.04,0.37-0.06,0.74-0.06,1.11c0,1.52,0.35,2.64,1.04,3.35c0.7,0.72,1.79,1.07,3.27,1.07
		c0.7,0,1.31-0.07,1.83-0.22c0.52-0.15,0.96-0.4,1.31-0.75c0.35-0.35,0.61-0.82,0.78-1.4c0.17-0.58,0.26-1.3,0.26-2.17V3.96z"/>
	<path d="M158.86,16.76l0.39,0.39v0.77l-0.39,0.39h-7.19l-0.39-0.39v-0.77l0.39-0.39h0.58c0.89,0,1.5-0.17,1.85-0.5
		c0.34-0.34,0.51-0.88,0.51-1.62V9.7h1.31v4.68c0,0.62-0.05,1.12-0.14,1.49c-0.1,0.37-0.27,0.67-0.53,0.89H158.86z M153.33,20.44
		c0-0.27,0.09-0.5,0.28-0.7c0.19-0.19,0.42-0.29,0.69-0.29s0.5,0.1,0.7,0.29c0.19,0.19,0.29,0.43,0.29,0.7s-0.1,0.5-0.29,0.69
		c-0.19,0.19-0.43,0.28-0.7,0.28s-0.5-0.09-0.69-0.28C153.42,20.93,153.33,20.71,153.33,20.44z"/>
	<path d="M162.28,16.76c1.02,0,1.85-0.09,2.5-0.28c0.65-0.19,1.11-0.51,1.38-0.96c-0.15,0.06-0.33,0.12-0.53,0.15
		c-0.2,0.04-0.41,0.07-0.62,0.11c-0.21,0.03-0.43,0.06-0.65,0.07c-0.22,0.01-0.41,0.02-0.58,0.02c-0.68,0-1.26-0.07-1.73-0.21
		c-0.47-0.14-0.85-0.34-1.15-0.61c-0.3-0.26-0.51-0.58-0.65-0.96c-0.14-0.37-0.2-0.8-0.2-1.28c0-0.62,0.11-1.23,0.33-1.84
		c0.22-0.61,0.51-1.14,0.87-1.61c0.36-0.47,0.77-0.85,1.24-1.15c0.46-0.3,0.94-0.44,1.43-0.44c0.63,0,1.2,0.17,1.69,0.51
		c0.5,0.34,0.91,0.79,1.25,1.34c0.34,0.55,0.59,1.18,0.77,1.88c0.18,0.7,0.27,1.39,0.27,2.09c0,0.86-0.14,1.6-0.42,2.19
		c-0.28,0.6-0.68,1.09-1.22,1.46c-0.54,0.37-1.19,0.64-1.95,0.81c-0.77,0.17-1.64,0.25-2.62,0.25h-2.84l-0.39-0.39v-0.77l0.39-0.39
		H162.28z M161.29,5.06c0-0.27,0.09-0.5,0.28-0.7c0.19-0.19,0.42-0.29,0.69-0.29c0.27,0,0.5,0.1,0.7,0.29
		c0.19,0.19,0.29,0.43,0.29,0.7s-0.1,0.5-0.29,0.69c-0.19,0.19-0.43,0.28-0.7,0.28c-0.27,0-0.5-0.09-0.69-0.28
		C161.39,5.56,161.29,5.33,161.29,5.06z M164.31,14.33c0.14,0,0.31-0.01,0.51-0.02c0.2-0.01,0.41-0.03,0.62-0.05
		c0.21-0.02,0.42-0.05,0.62-0.08c0.2-0.03,0.38-0.07,0.53-0.11v-0.12c0-0.58-0.07-1.15-0.21-1.7c-0.14-0.55-0.34-1.05-0.6-1.49
		c-0.26-0.44-0.57-0.79-0.93-1.05c-0.36-0.26-0.76-0.4-1.2-0.4c-0.31,0-0.6,0.1-0.87,0.29c-0.27,0.19-0.51,0.44-0.73,0.74
		c-0.21,0.3-0.38,0.64-0.5,1.02c-0.12,0.37-0.18,0.74-0.18,1.1c0,0.32,0.04,0.6,0.13,0.83c0.08,0.23,0.24,0.43,0.46,0.58
		c0.23,0.15,0.53,0.27,0.91,0.34C163.25,14.29,163.73,14.33,164.31,14.33z M164.12,5.06c0-0.27,0.09-0.5,0.27-0.7
		c0.18-0.19,0.4-0.29,0.66-0.29c0.28,0,0.52,0.1,0.72,0.29c0.19,0.19,0.29,0.43,0.29,0.7s-0.1,0.5-0.29,0.69
		c-0.19,0.19-0.43,0.28-0.72,0.28c-0.26,0-0.48-0.09-0.66-0.28C164.21,5.56,164.12,5.33,164.12,5.06z"/>
	<path d="M183.51,9.7h1.31v7.06h2.51l0.39,0.39v0.77l-0.39,0.39h-2.61c-0.25,1.47-0.8,2.6-1.67,3.39c-0.87,0.79-2.16,1.19-3.86,1.19
		c-0.85,0-1.61-0.14-2.29-0.41c-0.68-0.27-1.25-0.66-1.72-1.16c-0.47-0.5-0.83-1.11-1.09-1.82c-0.26-0.71-0.39-1.51-0.39-2.4
		c0-0.39,0.02-0.82,0.06-1.29c0.04-0.47,0.12-0.96,0.25-1.48l1.28,0.23c-0.1,0.45-0.17,0.86-0.21,1.23
		c-0.04,0.37-0.06,0.74-0.06,1.11c0,1.52,0.35,2.64,1.04,3.35c0.7,0.72,1.79,1.07,3.27,1.07c0.7,0,1.31-0.07,1.83-0.22
		c0.52-0.15,0.96-0.4,1.31-0.75c0.35-0.35,0.61-0.82,0.78-1.4c0.17-0.58,0.26-1.3,0.26-2.17V9.7z M177.94,9.01
		c0-0.27,0.09-0.5,0.28-0.7c0.19-0.19,0.42-0.29,0.69-0.29c0.27,0,0.5,0.1,0.7,0.29c0.19,0.19,0.29,0.43,0.29,0.7
		c0,0.27-0.1,0.5-0.29,0.69c-0.19,0.19-0.43,0.28-0.7,0.28c-0.27,0-0.5-0.09-0.69-0.28C178.03,9.51,177.94,9.28,177.94,9.01z"/>
	<path d="M186.93,17.92v-0.77l0.41-0.39c0.57,0,0.98-0.11,1.23-0.34c0.25-0.23,0.47-0.56,0.67-1.02c0.44-1.02,0.84-1.88,1.21-2.58
		c0.37-0.7,0.73-1.27,1.1-1.7c0.37-0.43,0.74-0.74,1.12-0.94c0.38-0.19,0.8-0.29,1.27-0.29c0.49,0,0.95,0.15,1.39,0.44
		c0.44,0.3,0.82,0.69,1.14,1.18c0.32,0.49,0.58,1.05,0.76,1.69c0.19,0.64,0.28,1.29,0.28,1.96c0,0.99-0.28,1.78-0.85,2.35
		c-0.57,0.57-1.51,0.86-2.84,0.86c-0.8,0-1.51-0.08-2.15-0.23c-0.63-0.15-1.28-0.43-1.95-0.83c-0.26,0.34-0.56,0.58-0.9,0.74
		c-0.34,0.16-0.83,0.24-1.48,0.24L186.93,17.92z M193.7,11.44c-0.25,0-0.48,0.06-0.71,0.19c-0.23,0.13-0.46,0.35-0.71,0.68
		c-0.25,0.32-0.51,0.76-0.79,1.31c-0.28,0.55-0.6,1.25-0.95,2.1c0.59,0.37,1.18,0.65,1.77,0.84c0.59,0.19,1.25,0.28,1.98,0.28
		c0.76,0,1.27-0.1,1.52-0.31c0.25-0.21,0.38-0.53,0.38-0.99c0-0.52-0.06-1.02-0.19-1.51c-0.13-0.49-0.3-0.93-0.52-1.31
		c-0.22-0.39-0.48-0.7-0.79-0.93C194.38,11.56,194.05,11.44,193.7,11.44z"/>
	<path d="M212.92,9.7h1.31v7.06h2.51l0.39,0.39v0.77l-0.39,0.39h-2.61c-0.25,1.47-0.8,2.6-1.67,3.39c-0.87,0.79-2.16,1.19-3.86,1.19
		c-0.85,0-1.61-0.14-2.29-0.41c-0.68-0.27-1.25-0.66-1.72-1.16c-0.47-0.5-0.83-1.11-1.09-1.82c-0.26-0.71-0.39-1.51-0.39-2.4
		c0-0.39,0.02-0.82,0.06-1.29c0.04-0.47,0.12-0.96,0.25-1.48l1.28,0.23c-0.1,0.45-0.17,0.86-0.21,1.23
		c-0.04,0.37-0.06,0.74-0.06,1.11c0,1.52,0.35,2.64,1.04,3.35c0.7,0.72,1.79,1.07,3.27,1.07c0.7,0,1.31-0.07,1.83-0.22
		c0.52-0.15,0.96-0.4,1.31-0.75c0.35-0.35,0.61-0.82,0.78-1.4c0.17-0.58,0.26-1.3,0.26-2.17V9.7z M207.35,9.01
		c0-0.27,0.09-0.5,0.28-0.7c0.19-0.19,0.42-0.29,0.69-0.29c0.27,0,0.5,0.1,0.7,0.29c0.19,0.19,0.29,0.43,0.29,0.7
		c0,0.27-0.1,0.5-0.29,0.69c-0.19,0.19-0.43,0.28-0.7,0.28c-0.27,0-0.5-0.09-0.69-0.28C207.44,9.51,207.35,9.28,207.35,9.01z"/>
	<path d="M216.75,18.31l-0.39-0.39v-0.77l0.39-0.39h10.79c-0.39-1.06-0.82-1.94-1.31-2.65c-0.48-0.71-0.99-1.28-1.52-1.7
		c-0.53-0.43-1.08-0.73-1.64-0.9c-0.57-0.17-1.13-0.26-1.68-0.26c-0.34,0-0.71,0.06-1.12,0.18c-0.41,0.12-0.83,0.33-1.26,0.63
		l-0.73-1.31c0.58-0.41,1.14-0.69,1.68-0.83c0.54-0.14,1.08-0.21,1.62-0.21c0.7,0,1.39,0.12,2.09,0.37c0.7,0.25,1.36,0.65,2,1.21
		c0.64,0.56,1.23,1.29,1.79,2.19c0.55,0.9,1.05,2,1.49,3.3h1.99l0.39,0.39v0.77l-0.39,0.39H216.75z"/>
	<path d="M230.56,17.92v-0.77l0.39-0.39h0.37c0.89,0,1.5-0.17,1.85-0.5c0.34-0.34,0.51-0.88,0.51-1.62V9.7h1.31v4.68
		c0,0.62-0.05,1.12-0.14,1.49c-0.1,0.37-0.27,0.67-0.53,0.89h2.94c0.89,0,1.5-0.17,1.85-0.5c0.34-0.34,0.51-0.88,0.51-1.62V9.7h1.31
		v4.68c0,0.62-0.05,1.12-0.15,1.49c-0.1,0.37-0.27,0.67-0.53,0.89h2.24c0.89,0,1.5-0.17,1.85-0.5c0.34-0.34,0.51-0.88,0.51-1.62V9.1
		h1.31v5.28c0,1.34-0.34,2.33-1.02,2.97c-0.68,0.64-1.84,0.96-3.46,0.96h-10.73L230.56,17.92z M237.88,6.8c0-0.27,0.09-0.5,0.28-0.7
		c0.19-0.19,0.42-0.29,0.69-0.29c0.27,0,0.5,0.1,0.7,0.29c0.19,0.19,0.29,0.43,0.29,0.7c0,0.27-0.1,0.5-0.29,0.69
		c-0.19,0.19-0.43,0.28-0.7,0.28c-0.27,0-0.5-0.09-0.69-0.28C237.98,7.3,237.88,7.07,237.88,6.8z M239.28,4.35
		c0-0.28,0.1-0.52,0.29-0.72c0.19-0.19,0.42-0.29,0.68-0.29c0.28,0,0.52,0.1,0.72,0.29c0.19,0.19,0.29,0.43,0.29,0.72
		c0,0.26-0.1,0.48-0.29,0.68c-0.19,0.19-0.43,0.29-0.72,0.29c-0.26,0-0.48-0.1-0.68-0.29C239.37,4.83,239.28,4.61,239.28,4.35z
		 M240.71,6.8c0-0.27,0.09-0.5,0.27-0.7c0.18-0.19,0.4-0.29,0.66-0.29c0.28,0,0.52,0.1,0.72,0.29c0.19,0.19,0.29,0.43,0.29,0.7
		c0,0.27-0.1,0.5-0.29,0.69c-0.19,0.19-0.43,0.28-0.72,0.28c-0.26,0-0.48-0.09-0.66-0.28C240.8,7.3,240.71,7.07,240.71,6.8z"/>
</g>
</svg>
