<svg xmlns="http://www.w3.org/2000/svg" viewBox="0 0 241.83844 283.04634"><title>Asset 3</title><g id="ea053422-63d1-40d6-a77e-04490160e673" data-name="Layer 2"><g id="bc8a7722-a3e2-4f07-b411-ff0754a71933" data-name="Layer 1"><polygon points="67.144 153.376 64.776 123.19 80.165 122.302 101.473 140.65 110.647 118.455 146.751 119.047 151.19 133.844 143.792 155.151 125.444 189.184 100.585 196.583 74.838 190.96 62.113 182.082 80.165 174.979 67.144 153.376" fill="#fcf3f3"/><path d="M3.09678,191.23157c7.88042-1.65319,12.76772-7.48251,17.98745-12.86254,2.84815-2.93561,2.954-4.721-2.093-4.31034,3.36477-3.61952,6.2968-7.09534,9.57429-10.20736,3.18369-3.023,4.63662-5.7065,5.34052-10.75212.96565-6.92246-3.31636-5.117-5.6018-5.667-4.98252-1.199-10.263-1.09362-15.16483-2.88161-2.49368-.90963-4.94431-2.27663-5.27956-5.12426-.36967-3.13995,3.086-3.14654,4.74088-4.63527,1.30518-1.17411,1.73244.45227,2.602.89511,10.46149,5.32779,21.73268,8.28461,33.36464,5.77194,4.17446-.90175,2.30043-5.71875,1.11629-8.9841q-.05572-.56943-.08662-1.14087c3.36211-9.31428,1.66007-15.46521-5.82411-20.66106-5.89833-4.09488-11.78635-8.21865-16.16311-14.01739-1.35613-1.79667-3.2694-3.52246-2.82663-7.15374,10.35055,3.87158,17.72526,11.2562,25.712,17.05011-.1883-2.20648,1.85267-2.48388,4.47636-2.431,6.36719.1282,12.74048-.0453,19.10775.08086,3.08942.06121,4.21781-.68618,3.52693-4.12716a73.1935,73.1935,0,0,0-7.01769-19.57988C63.72174,67.37007,59.53241,53.26034,54.99429,39.283c-1.03273-3.18079-2.876-7.5442,1.961-9.17994,4.83968-1.63665,7.59031,1.94053,8.70347,6.00743,2.66127,9.72307,5.75786,19.29621,8.72934,28.91923C78.64986,78.83129,85.67528,90.77888,94.8515,101.7274c2.5468,3.03864,5.63224,2.47479,8.72148,2.35709,3.654-.1392,2.07483-3.14052,2.40327-5.00486.45756-2.59687,1.51406-2.30854,3.14151-.94589,3.115,2.60815,5.4653.4294,7.89457-1.34227,3.6769-2.68158-.81072-3.69488-1.156-5.55435-.539-2.90232-4.93695-6.56689-1.79631-8.248,3.44278-1.84286,4.2392,3.39,5.72188,5.9864,1.50182,2.6299,1.52205,2.61834,4.0986-1.7575a2.08967,2.08967,0,0,0,2.17133-1.24291c.972-2.17183,1.87681-4.377,2.93517-6.50589,1.01841-2.0485,2.35158-3.73849,5.07563-3.14622,2.43546.52955,3.02018,2.34,3.10221,4.458.18414,4.75077.23044,9.5088.517,14.25277.14109,2.33582-.04389,4.81644,1.86036,7.30678,1.951-1.55741,4.79816-6.24392,5.74752.63224.21082,1.52694,1.87655,1.13988,2.99007,1.165,2.782.06276,5.57661.17957,8.34721-.0068,4.6547-.31308,8.44958-.03188,7.39578,6.37632-.42293,2.57219,1.21723,3.10851,3.33589,2.05084,2.48224-1.23916,4.92123-2.568,7.35053-3.90938,2.48435-1.3718,5.08573-1.94559,6.94427.62453,1.88056,2.60046.33649,5.04786-1.627,6.83143a65.24559,65.24559,0,0,1-6.71853,4.89663c-9.08716,6.33876-12.09419,14.54911-8.65129,25.11961.43437,1.33375-.15691,1.81574-.13442,2.59375.08123,2.8106-.02,6.30563,4.75565,4.8815,4.56006-1.35986,8.62545-2.03521,6.83493,5.24609-.77681,3.15905,1.43806,5.20293,3.8511,6.80059,2.14851,1.4226,4.58642,2.46871,6.54806,4.10013,3.571,2.96991,2.76827,6.69972-1.66511,7.98447-2.46561.71451-5.09053.85862-7.60609,1.42628-4.38379.98935-13.02415,8.834-12.98354,11.85281.01174.87109.7658,1.73211,1.17958,2.59777l.07554-.1027c-3.33415,4.45361-1.2942,9.5456-1.4051,14.29057-.10317,4.41471-.88158,6.89436-5.86319,5.99483a6.0837,6.0837,0,0,0-2.37217.00784c-2.29576.52461-5.72028-1.66893-6.73417,1.42883-.87852,2.68421,1.94691,3.899,4.31384,4.7084.47046.161,1.137.81181,1.11282,1.1992-.50109,8.01192,4.82944,14.51167,6.13111,22.75524-3.7177-1.11968-5.02284-3.68413-6.22578-6.284-4.27826-9.24684-11.03875-16.13982-19.39252-21.89378-3.422-2.35708-6.74849-1.45534-10.14531-1.98235-4.51533-.70065-6.54805,1.70091-7.73376,5.52068-.16482.53106-.6374,1.34429-1.01892,1.37437-6.78188.53427-9.98821,4.2589-10.33116,10.94075a2.659,2.659,0,0,1-3.07483,2.24282,3.34792,3.34792,0,0,1-3.127-2.38092c-.57666-2.03579-.9433-4.131-1.4168-6.27755-2.13546,1.24-1.82095,3.40593-2.22959,5.26644-1.24819-.95775-.7549-2.46977-1.17458-3.69131.00889-.79387-.02764-1.59135.03434-2.381.31352-3.99488,1.02606-9.02756-3.62219-10.15144-4.31482-1.04327-10.02311-2.53517-13.10734,3.42894-.22494.43506-.9685.60189-1.43551.87279-1.979-1.42813.79238-2.85026-.30236-4.58171-3.42638.41881-3.07877,5.39083-6.59236,5.81645-1.45114-1.76222,1.77218-2.81439.46464-4.7255-3.25682.00806-4.46,2.80028-5.69815,5.04829-4.51252,8.19311-12.152,13.57963-18.07244,20.49962-2.25671,2.63775-5.46333,1.92726-8.34637.90714-3.22729-1.14185-1.97753-3.92248-1.85894-6.11248.205-3.78569,2.29827-6.76665,4.941-9.23758,3.33006-3.11362,6.9505-5.91445,10.35274-8.95421,1.27659-1.14057,4.5616-2.47637-.08366-3.852-1.39227-.41228-.68239-2.48547-.70346-3.79528a124.00383,124.00383,0,0,1,.059-13.69928c.52523-5.51649-1.5861-5.72506-5.92411-4.031-3.47231,1.35606-7.22618,1.99106-10.85511,2.946l-.01578-1.24567c-1.29949-2.7752-5.22867-1.88818-6.72331-5.2197,2.16861-1.34564,4.7192-2.59613,5.73811-5.37847-3.17979-1.9172-6.25356-1.2903-9.77793,1.23864a53.35754,53.35754,0,0,1-18.981,8.31137Q3.70582,191.82843,3.09678,191.23157ZM68.1452,182c24.0482,16.4759,62.27637,6.725,71.14129-27.38618,1.9164-7.37408.11225-16.11159,8.58557-20.54541-2.06186-2.42849-3.93247.21141-5.51336-1.16995,1.05756-2.20874,3.87023-3.4971,3.59586-6.59651-4.02838-.35209-7.06985,4.17807-11.712,1.14812-12.218-7.97485-25.51469-1.55125-26.913,12.89972-.36,3.72037-1.81461,3.59882-4.48182,3.18774a47.05556,47.05556,0,0,1-25.6973-12.869c-1.0658-1.01-1.743-3.10567-3.68048-2.386-1.69558.62985-1.58745,2.63732-1.94775,4.1127-1.52453,6.243,1.51986,11.23131,5.48357,16.27347-2.32773-.421-4.442-1.43718-5.20745-.80926-1.56835,1.28661-.24594,3.32149.2763,4.97019,1.48727,4.69532,4.95342,7.7762,9.06427,10.22858-1.09588,1.31665-3.87461.56128-3.37129,2.28063,1.81311,6.19359,7.2941,8.621,13.15357,10.83834C84.244,181.302,77.05814,182.184,68.1452,182ZM49.95764,163.99169c-.36974-4.11157,3.72758-9.06241-2.10057-11.61956a3.92233,3.92233,0,0,0-5.35645,2.44315C40.04124,161.55113,48.429,159.98792,49.95764,163.99169Zm.669,7.37255c-.02443-1.36383.60667-3.58708-2.00681-3.004-3.21125.71644-6.68386,1.59587-7.57022,5.48594-.285,1.25114.363,3.41621,2.05519,2.74581C45.90381,175.48307,50.98691,177.27526,50.62665,171.36424Zm-.71633,14.15434c-4.38882-.95119-7.61677,1.53466-11.33429.44936-2.05643-.60044-2.29153,2.15948-2.27491,3.91332.01075,1.13653.15785,2.61917,1.97112,1.86485C42.10762,190.15056,46.79641,190.12483,49.91032,185.51858Z" fill="#2bb1e0"/><path d="M66.91036,279.40136c-6.78565,1.28151-10.732-3.27618-13.089-8.07951-2.2375-4.55984-.62085-9.72314,3.39065-13.51616,3.72751-3.52445,11.90764-5.22907,16.09811-2.714,4.96225,2.97833,5.8637,9.14863,9.33412,13.38062.12982.15833-.10521.91538-.34757,1.03551C76.767,272.248,75.4992,281.54226,66.91036,279.40136Z" fill="#2bb2e0"/><path d="M138.17716,0c6.69454.10315,13.19856,11.41641,10.28144,16.942a3.34554,3.34554,0,0,1-2.66776,2.13326c-4.4379.10793-7.97047-2.04261-11.05551-4.96139a9.22522,9.22522,0,0,1-2.43579-9.85162A5.82027,5.82027,0,0,1,138.17716,0Z" fill="#2cb2e0"/><path d="M215.779,227.40669a5.68422,5.68422,0,0,1-5.8524,4.92528c-3.1706.08429-4.58817-2.271-4.28893-5.21449.34385-3.38252,2.97578-4.73042,5.94-4.63534C214.32926,222.5704,215.58919,224.691,215.779,227.40669Z" fill="#32b4e1"/><path d="M227.4011,22.48742c-2.53124-.26078-4.34734-1.58421-4.25956-4.09311.0964-2.75757,2.04673-4.07751,4.83046-4.17284,2.77075-.09494,4.13094,1.45837,4.16367,3.931C232.17541,21.14575,229.86328,22.01128,227.4011,22.48742Z" fill="#39b7e2"/><path d="M88.90581,269.74657c.32352-4.68426.57044-9.37586,1.01517-14.04857.14148-1.48687.49649-3.62856,2.48843-3.331,2.32835.34783,1.291,2.44388.98807,3.82087-1.0931,4.96943-2.31508,9.91046-3.48817,14.86242Q89.4078,270.39857,88.90581,269.74657Z" fill="#47bce4"/><path d="M26.07422,42.81914c2.19748.007,4.14457.71015,4.07009,3.18812-.06661,2.21608-1.58333,3.44162-3.99156,3.37022-2.41672-.0717-3.74552-1.385-3.75485-3.62091C22.38867,43.5501,24.12162,42.90082,26.07422,42.81914Z" fill="#38b6e2"/><path d="M241.83844,50.48664a3.22147,3.22147,0,0,1-3.305,3.37725c-1.99066.165-3.53867-.551-3.77928-2.758-.25023-2.29579,1.218-3.14069,3.212-3.28474C239.91151,47.6806,241.48284,48.20878,241.83844,50.48664Z" fill="#32b4e1"/><path d="M135.67218,266.75468c-.22132,1.87331-1.014,3.38285-3.24563,3.29011-1.709-.071-3.20323-.90346-3.203-2.79321.00025-2.05595,1.37345-3.153,3.41435-3.28927C134.53551,263.83559,135.6187,264.68666,135.67218,266.75468Z" fill="#34b5e1"/><path d="M88.90581,269.74657q.50184.6519,1.0035,1.30368c-1.00124,3.99142-1.97028,7.9972-5.511,11.99609A17.71516,17.71516,0,0,1,88.90581,269.74657Z" fill="#53c0e6"/><path d="M232.96935,249.54039c-1.701-.33376-3.02827-1.20623-2.94326-3.05332.08451-1.83612,1.406-2.75063,3.19744-2.70334,1.55034.04094,2.6694.839,2.5733,2.53305A3.15707,3.15707,0,0,1,232.96935,249.54039Z" fill="#3fb9e3"/><path d="M192.94867,236.29718c-.0786,2.42251-1.52635,2.76608-3.2196,2.73108-1.27261-.02632-2.43141-.466-2.37279-1.93233a2.79726,2.79726,0,0,1,2.95887-2.937A2.25631,2.25631,0,0,1,192.94867,236.29718Z" fill="#44bae4"/><path d="M94.82526,226.72168c.41968,1.22154-.07361,2.73356,1.17458,3.69131a17.29009,17.29009,0,0,1-2.09751,11.10826C93.78027,235.75175,93.18961,231.18487,94.82526,226.72168Z" fill="#5ec4e7"/><path d="M131.92736,60.52506l-2.9324,9.63916-1.7849-.48189c.691-3.32671.82417-6.79359,3.18817-9.69976Q131.16278,60.2538,131.92736,60.52506Z" fill="#60c5e8"/><path d="M60.01527,233.57878c-1.70845,3.52546-3.2449,7.116-7.08491,8.76259A15.0616,15.0616,0,0,1,60.01527,233.57878Z" fill="#3fb9e3"/><path d="M165.43687,193.60436c3.05726-1.762,5.73895-2.23306,7.1925,2.51679-2.916.23828-5.24781-.444-7.11711-2.62055Z" fill="#41b9e3"/><path d="M227.53365,116.524a2.89575,2.89575,0,0,1,2.53641-2.79138c1.08749-.26836,2.08173.11043,1.82369,1.42081a3.5695,3.5695,0,0,1-2.87443,2.64829C228.11054,118.03764,227.61735,117.43462,227.53365,116.524Z" fill="#5cc3e7"/><path d="M15.96756,179.23592c-.1759,1.60768-1.52705,1.77735-2.5686,1.75814a2.02571,2.02571,0,0,1-2.08618-2.24811A1.90152,1.90152,0,0,1,13.718,176.907C15.03366,177.07917,15.61324,178.08984,15.96756,179.23592Z" fill="#47bbe4"/><path d="M133.11434,17.92891c3.58128,2.76918,5.0396,4.691,4.74813,8.14772C135.33361,24.08112,134.61579,21.77563,133.11434,17.92891Z" fill="#5ac3e7"/><path d="M184.72866,143.47876c-1.91213,1.3308-3.99583,1.2521-6.693.72512a8.84335,8.84335,0,0,1,5.44176-1.96062Q184.10288,142.86092,184.72866,143.47876Z" fill="#89d4ee"/><path d="M190.23844,203.64617c3.09514-1.41141,4.84905-.32064,7.12757,1.1176C194.45308,206.10026,192.818,204.48973,190.23844,203.64617Z" fill="#58c2e6"/><path d="M39.0812,214.91054c-.573,2.451-1.73692,4.08933-5.08455,3.2912C36.06918,216.86018,37.57519,215.88534,39.0812,214.91054Z" fill="#44bbe4"/><path d="M24.47149,117.51519c2.5752-.5792,3.44057.99533,4.78259,1.81187-1.18595,1.98764-2.16958,1.00448-2.98934.34787A14.48278,14.48278,0,0,1,24.47149,117.51519Z" fill="#45bbe4"/><path d="M49.59705,131.33317q.031.57139.08662,1.14087a7.32749,7.32749,0,0,1-4.44289-2.89252C47.27814,129.0851,48.48462,130.08126,49.59705,131.33317Z" fill="#85d2ed"/><path d="M184.72866,143.47876q-.62569-.61776-1.25125-1.2355c1.6705-.10313,3.36856-.65778,5.02353.29041C187.44349,143.79123,185.98786,143.242,184.72866,143.47876Z" fill="#48bce4"/><path d="M126.05184,85.97509a2.08966,2.08966,0,0,1-2.17133,1.24293c.00044-1.35446.00044-2.709.00044-4.09288C125.62027,83.37212,124.18269,85.90581,126.05184,85.97509Z" fill="#44bbe4"/><path d="M34.05917,193.47374l.01578,1.24567c-1.00962.88155-2.04931,1.53882-3.347.47A3.90663,3.90663,0,0,1,34.05917,193.47374Z" fill="#3db8e3"/><path d="M3.09678,191.23157q.60907.59693,1.21822,1.194C3.27665,193.597,1.95223,193.64129,0,193.49608A3.74946,3.74946,0,0,1,3.09678,191.23157Z" fill="#6dc9e9"/><path d="M49.95764,163.99169c-1.52865-4.00377-9.9164-2.44056-7.457-9.17641a3.92233,3.92233,0,0,1,5.35645-2.44315C53.68522,154.92928,49.5879,159.88012,49.95764,163.99169Z" fill="#f5fbfd"/><path d="M50.62665,171.36424c.36026,5.911-4.72284,4.11883-7.52184,5.22776-1.69223.6704-2.34024-1.49467-2.05519-2.74581.88636-3.89007,4.359-4.7695,7.57022-5.48594C51.23332,167.77716,50.60222,170.00041,50.62665,171.36424Z" fill="#f7fbfd"/><path d="M49.91032,185.51858c-3.11391,4.60625-7.8027,4.632-11.63808,6.22753-1.81327.75432-1.96037-.72832-1.97112-1.86485-.01662-1.75384.21848-4.51376,2.27491-3.91332C42.29355,187.05324,45.5215,184.56739,49.91032,185.51858Z" fill="#f0f9fc"/></g></g></svg>