<?xml version="1.0" encoding="utf-8"?>
<!-- Generator: Adobe Illustrator 23.0.6, SVG Export Plug-In . SVG Version: 6.00 Build 0)  -->
<svg version="1.1" id="Layer_1" xmlns="http://www.w3.org/2000/svg" xmlns:xlink="http://www.w3.org/1999/xlink" x="0px" y="0px"
	 viewBox="0 0 312.6 316.2" style="enable-background:new 0 0 312.6 316.2;" xml:space="preserve">
<style type="text/css">
	.st0{fill:#FEFEFE;}
	.st1{fill:#35DA52;}
	.st2{fill:#50EF6C;}
	.st3{fill:#32D850;}
	.st4{fill:#54F270;}
	.st5{fill:#47E864;}
	.st6{fill:#43E560;}
	.st7{fill:#4DED6A;}
	.st8{fill:#4AEA66;}
	.st9{fill:#39DD56;}
	.st10{fill:#56F472;}
	.st11{fill:#3CE059;}
	.st12{fill:#40E35D;}
	.st13{fill:#46E863;}
	.st14{fill:#2FD64D;}
	.st15{fill:#3ADE57;}
	.st16{fill:#3EE15B;}
	.st17{fill:#4BEB68;}
	.st18{fill:#4EED6A;}
</style>
<g>
	<path class="st0" d="M13.3,274.4c1.5-4.7,2.8-9.5,3.9-14.3c0.3-1.2,0.7-2.4,1-3.6c1.9-6.3,3.7-12.7,5.2-19.1
		c0.6-2.1,1.2-4.1,1.8-6.2c0.1-0.5,0.1-0.9-0.2-1.3c-2-3.7-3.9-7.4-5.9-11.1c-0.2-0.5-0.7-0.8-0.7-1.4c-0.2-0.6-0.5-1.2-0.7-1.8
		c-2.3-5.8-4.5-11.6-6.4-17.6c-1.7-6.3-3.1-12.6-4.2-19c-0.8-5.6-1.2-11.2-1.7-16.9c-0.1-5.7,0-11.5,0.3-17.2
		c0.7-5.6,1.5-11.2,2.2-16.8c1.5-6.5,3-13.1,5.2-19.5c0.4-1.1,0.7-2.3,1.1-3.5c1.9-4.5,3.8-9,5.6-13.6c0.4-1,0.8-1.9,1.4-2.8
		c2.2-3.9,4.5-7.7,6.7-11.6c1.2-2.1,2.5-4.1,3.9-6.1c4.3-5.9,8.9-11.5,13.7-17.1c2.6-2.5,5.3-5,7.8-7.6c3.2-3.3,6.8-6.2,10.5-9
		c4.6-3.2,9.1-6.5,13.9-9.4c6.3-3.8,12.8-7,19.5-10c7.5-3,15.2-5.6,23.1-7.4c5.7-1.3,11.5-2.3,17.3-3.1c0.6-0.3,1.3,0.1,1.8-0.3
		c0.6,0,1.1-0.1,1.7-0.1c0.1,0,0.2,0,0.4,0c0.6-0.2,1.3,0.1,1.8-0.2c0.9,0,1.8-0.1,2.7-0.1c1.4-0.3,2.9,0.1,4.3-0.3
		c2.9,0,5.7,0,8.6,0c1.3,0.4,2.6-0.1,3.9,0.3c0.9,0,1.8,0.1,2.8,0.1c0.7,0.4,1.5,0,2.2,0.3c4.5,0.6,8.9,1.2,13.4,1.8
		c16.4,3,31.8,8.6,46.4,16.7c0.7-0.2,1.2,0.3,1.8,0.6c9,5.3,17.5,11.3,25.1,18.4c0.6,0.5,1.2,0.9,1.8,1.4c6.2,6,12.1,12.3,17.3,19.1
		c4.2,5.7,8.1,11.6,11.7,17.7c3.9,6.9,7.2,14.1,9.9,21.5c2.3,5.8,3.8,11.9,5.4,17.9c1.3,5.5,2.1,11,2.8,16.5c0,0.2,0,0.4,0,0.6
		c0,0.7,0,1.3,0.2,2c0.1,0.7,0.1,1.3,0.2,2c-0.1,0.8,0,1.6,0.3,2.3c0.4,3.3-0.1,6.5,0.3,9.8c0,0.3,0,0.6,0,1
		c-0.3,2.2-0.1,4.4-0.1,6.6c0,3.4-0.5,6.7-0.8,10c-0.9,7-2.1,13.9-3.9,20.7c-0.2,0.7-0.4,1.5-0.6,2.2c-2.5,8.9-5.8,17.5-9.9,25.8
		c-4.2,8.1-8.8,15.9-14.3,23.2c-5.4,7.3-11.5,13.9-18,20.2c-10,9.2-20.9,17.1-33,23.4c-13.3,7-27.4,11.8-42.3,14.6
		c-1.7,0.3-3.5,0.2-5.2,0.4c-2.3,0.3-4.6,0.5-7,0.8c-0.7,0.3-1.5-0.1-2.2,0.3c-0.7,0-1.4,0.1-2,0.1c-1,0.3-2-0.1-2.9,0.3
		c-4.8,0-9.7,0-14.5,0c-1.1-0.4-2.2,0.1-3.3-0.3c-0.7,0-1.4-0.1-2-0.1c-0.7-0.3-1.5,0-2.2-0.3c-2.3-0.3-4.7-0.3-7-0.8
		c-17.2-1.7-33.1-7.6-48.3-15.4c-1.1-0.6-2.2-0.7-3.4-0.4c-18.7,4.9-37.5,9.9-56.2,14.7c-1.7,0.4-3.3,1-5.1,1
		c-4.8,1.2-9.7,2.4-14.5,3.7c-1.3,0.3-1.4,0.1-1.1-1.1c0.9-3.3,1.7-6.6,2.6-9.9c1.8-6.3,3.5-12.5,5.3-18.8
		C12.8,276.7,13,275.6,13.3,274.4z"/>
	<path class="st1" d="M47.3,246.6c1.5-5.6,2.9-11.1,4.4-16.7c0.2-0.7,0.4-1.3,0.6-2c0.9-0.8,2-0.6,3-0.6c14,0,28.1,0,42.1,0
		c27.2,0,54.4,0,81.7,0c1.3,0,2.7,0.2,3.9-0.7c0.8-0.4,1.6-0.2,2.4-0.1c5.2,0.8,10.5,0.8,15.7,0.1c2.4-0.3,4.8-0.9,7.1-1.9
		c0.9-0.4,1.8-0.9,2.9-0.8c1.2,0.3,2.3,0.1,3.5,0.1c13,0,26,0,39,0c0.8,0,1.5,0,2.3,0.1c0.6,0.1,1.3,0.3,1.3,1.1
		c-2.2,3.8-5,7.2-7.8,10.5c-3.3,3.9-6.6,7.7-10.5,10.9c-1-0.2-2,0-3,0c-61.6,0-123.2,0-184.7,0C49.9,246.8,48.6,247.1,47.3,246.6z"
		/>
	<path class="st2" d="M246.4,72.9c5.9,6.2,10.9,13,15.1,20.4c-0.4,0.4-0.8,0.4-1.3,0.3c-9-0.2-18-0.1-27.1-0.1
		c-37.2,0-74.4,0-111.6,0c-1.2,0-2.4-0.2-3.4,0.4c-0.7,0.4-1.1-0.1-1.4-0.7c-0.3-0.5-0.6-1-0.8-1.5c-1.5-2.8-3.7-4.2-7-4
		c-2,0.2-4.1,0.1-6.1,0c-3.8-0.2-7,1.1-9.8,3.6c-0.6,0.5-1.2,1.2-2.1,1c-1.2-0.2-2.4-0.3-3.7-0.3c-11.7,0-23.5,0-35.2,0
		c-1,0-2.1,0.2-3-0.6c3.9-6.6,8.4-12.7,13.7-18.3c1.3-0.7,2.6-0.5,4-0.5c58.5,0,117.1,0,175.6,0C243.6,72.7,245,72.5,246.4,72.9z"/>
	<path class="st3" d="M47.3,246.6c0.8-0.4,1.6-0.3,2.4-0.3c62.5,0,124.9,0,187.4,0c0.7,0,1.6-0.5,1.9,0.6l-0.1,0.1
		c-0.5,0.3-1.1,0.5-1.3,1.1c-7.4,7.3-16,12.9-25,17.8c-0.6,0.3-1.2,0.5-1.7,0.8c-1.1-0.4-2.2,0-3.3,0c-34.8,0-69.5,0-104.3,0
		c-1.3,0-2.7-0.1-4,0.5c-3.8-1.8-7.4-4-11-6.1c-0.8-0.5-1.6-0.7-2.6-0.4c-14.6,3.9-29.3,7.7-43.9,11.5c-0.7,0.2-1.8,0.9-1.4-0.8
		C42.6,263,45,254.8,47.3,246.6z"/>
	<path class="st4" d="M246.4,72.9c-0.6,0.4-1.3,0.4-2,0.4c-60.2,0-120.5,0-180.7,0c-0.4,0-0.7,0-1.1,0c4.7-5.6,10.1-10.4,15.8-14.8
		c2.5-2,5-4,7.8-5.5c1.3-0.2,2.7-0.2,4-0.2c43.5,0,87.1,0,130.6,0c0.8,0,1.5,0,2.3,0.2c4.8,2.9,9.1,6.4,13.2,10
		C240,66,243.5,69.2,246.4,72.9z"/>
	<path class="st5" d="M275.5,128.5c1.1,5.5,2.3,11,2.7,16.6c0.1,1.2,0.1,2.3,0.2,3.5c-0.5,0.5-1.2,0.5-1.8,0.6c-0.8,0-1.6,0-2.5,0
		c-50.2,0-100.4,0-150.5,0c-1.3,0-2.6-0.1-3.8,0.2c-0.9,0.2-1.4-0.2-1.9-0.9c-1.4-2.2-1.2-4.5,0.5-6.6c2-2.4,4.2-4.7,6.2-7.1
		c1.2-1.5,2.3-3,3.2-4.8c0.4-0.7,0.8-1.4,1.7-1.6c1-0.4,2.1-0.4,3.1-0.4c46.8,0,93.5,0,140.3,0C273.7,127.9,274.7,127.8,275.5,128.5
		z"/>
	<path class="st6" d="M119,149.3c0.3-0.6,0.8-0.8,1.4-0.8c0.4,0,0.8,0,1.2,0c52.2,0,104.5,0,156.7,0c0.6,6.5,0.5,12.9-0.3,19.3
		c-0.8,0.7-1.9,0.6-2.9,0.6c-7.7,0-15.5,0-23.2,0c-38.1,0-76.2,0-114.3,0c-1.2,0-2.3,0-3.5,0.1c-1,0.4-1.7-0.1-2.3-0.8
		c-4.6-5.2-8.7-10.8-12.4-16.6C119.1,150.6,118.6,150,119,149.3z"/>
	<path class="st7" d="M117.6,94c0-0.7,0.2-1.1,1-1.1c0.5,0,1.1,0,1.6,0c45.2,0,90.4,0,135.5,0c1.9,0,3.9-0.1,5.8,0.3
		c3.6,5.8,6.6,11.9,8.8,18.3c-0.8,0.8-1.7,0.6-2.7,0.6c-5.7,0-11.5,0-17.2,0c-40.2,0-80.4,0-120.6,0c-1.4,0-2.8,0-4.2,0.1
		c-0.9,0-1.3-0.6-1.6-1.3c-2.2-5.1-4.2-10.2-6.3-15.3C117.5,95.2,117.2,94.6,117.6,94z"/>
	<path class="st8" d="M125,111.9c1-0.3,1.9-0.4,2.9-0.4c46.6,0,93.3,0,139.9,0c0.8,0,1.6,0,2.5,0c2.3,5.5,4,11.1,5.2,16.9
		c-47.8,0-95.6,0-143.3,0c-1.1,0-2.2,0.3-3.3,0.4c-0.4-0.6-0.1-1.1,0.1-1.7c0.7-1.9,0.4-3.6-0.4-5.4c-1.2-2.6-2.2-5.2-3.4-7.9
		C124.9,113.3,124.5,112.6,125,111.9z"/>
	<path class="st9" d="M183.4,226.9c-0.6,1-1.6,1.1-2.7,1.1c-42.8,0-85.6,0-128.4,0c0.3-0.9,0.1-1.6-0.5-2.4
		c-3.4-5.3-6.6-10.7-9.3-16.4c-0.2-0.5-0.4-1-0.6-1.5c-0.1-1,0.7-1.1,1.4-1.3c0.8-0.1,1.6-0.1,2.5-0.1c29.7,0,59.3,0,89,0
		c0.9,0,1.8,0,2.6,0.1c1.8,0.2,3.2,1.5,4.6,2.4c9.3,6.2,19.6,10.4,30.1,14c3.4,1.2,6.7,2.3,10.2,3.2
		C182.8,226.2,183.4,226.2,183.4,226.9z"/>
	<path class="st10" d="M223.2,52.8c-0.7,0.4-1.5,0.4-2.2,0.4c-44.2,0-88.3,0-132.5,0c-0.8,0-1.5,0.1-2.2-0.4
		c7.3-5.1,15.1-9,23.4-12.3c12-4.7,24.5-7.4,37.3-8.2c27.4-1.6,52.6,5.1,75.7,20C222.9,52.5,223,52.7,223.2,52.8z"/>
	<path class="st11" d="M138.1,206.9c-31.2,0-62.4,0-93.6,0c-0.9,0-1.9-0.4-2.5,0.8c-3.2-6.7-5.7-13.6-7.3-20.8c-0.5-1,0.2-1.4,1-1.5
		c0.9-0.2,1.8-0.1,2.6-0.1c23.4,0,46.9,0,70.3,0c1.3,0,2.7,0,4-0.2c0.8,0,1.4,0.3,2,0.9c5.9,6.3,12.3,11.9,19.2,17.1
		c1.3,1,2.7,2,4.1,3C138,206.3,138.2,206.6,138.1,206.9z"/>
	<path class="st12" d="M133.4,168.6c0.1-0.5,0.3-0.7,0.8-0.7c0.5,0,1.1,0,1.6,0c47.4,0,94.8,0,142.2,0c0,0.4,0,0.7,0,1.1
		c-0.3,0.6,0.1,1.2-0.3,1.8c-0.4,2.4-0.3,4.8-1,7.1c-1.2-0.2-2.4-0.2-3.7-0.2c-21.8,0-43.6,0-65.4,0c-1.2,0-2.4-0.2-3.4,0.4
		c-0.9,0.6-1.7,0.1-2.4-0.3c-2.3-1.1-4.6-2.1-7-2.8c-2.1-0.6-3.7,0.1-5,1.7c-0.9,1.1-1.6,2.3-2.5,3.4c-0.5,0.6-1,1.2-1.9,1
		c-1.1-0.3-2.2-0.3-3.3-0.3c-10,0-19.9,0-29.9,0c-1.4,0-2.7,0.1-4,0.3c-0.8,0.2-1.5-0.2-2.1-0.6c-4.3-3.1-8.3-6.6-12-10.4
		C133.7,169.6,133.3,169.2,133.4,168.6z"/>
	<path class="st12" d="M113.4,185.4c-1.7,0.5-3.4,0.3-5,0.3c-23.9,0-47.9,0-71.8,0c-0.8,0-1.9-0.5-1.9,1.1
		c-1.7-5.8-2.7-11.8-3.2-17.9c-0.4-1,0.4-1.1,1-1.2c0.9-0.2,1.8-0.1,2.6-0.1c19.6,0,39.3,0,58.9,0c1.3,0,2.6,0,3.9-0.1
		c1,0,1.6,0.6,2.1,1.3c4,5.2,8.2,10.3,12.8,15.1C113.1,184.4,113.7,184.7,113.4,185.4z"/>
	<path class="st13" d="M30.8,151c0.2-7.8,1.3-15.6,3.2-23.2c0.4-0.3,0.9-0.3,1.3-0.3c13.5,0.1,27.1,0,40.6,0.1
		c1.1,0,2.4-0.2,3.3,0.7c0.4,0.5,0.6,1,0.7,1.6c1.1,6.7,3.6,12.9,6.7,18.9c0.3,0.7,1.2,1.5,0,2.2c-0.8,0.3-1.6,0.2-2.4,0.2
		c-17.2,0-34.4,0-51.6,0C32,151.2,31.4,151.3,30.8,151z"/>
	<path class="st14" d="M99.3,267.1c0-0.7,0.2-1.2,1-1.1c0.4,0,0.8,0,1.2,0c35.7,0,71.5,0,107.2,0c0.7,0,1.7-0.5,2.1,0.6
		c-5.1,2.5-10.3,4.8-15.7,6.7c-8.2,2.9-16.6,4.9-25.2,5.9c-16.6,2-33,0.8-49.2-3.8C113.4,273.3,106.1,270.8,99.3,267.1z"/>
	<path class="st6" d="M30.8,151c0.6-0.4,1.3-0.3,2-0.3c18,0,36.1,0,54.1,0c0.6,0.1,0.9,0.6,1.1,1c2.9,5.1,6.5,9.8,9.9,14.7
		c0.3,0.4,0.9,0.8,0.5,1.5c-0.9,0.3-1.8,0.4-2.8,0.4c-20.8,0-41.6,0-62.3,0c-0.7,0-1.7-0.5-2,0.8c-0.6-3.3-0.7-6.7-0.7-10.1
		C30.7,156.2,30.8,153.6,30.8,151z"/>
	<path class="st15" d="M257.2,225.5c-0.5-0.9-1.4-0.6-2.2-0.6c-14,0-27.9,0-41.9,0c-0.8,0-1.6,0.1-2.4-0.4c0.2-1,1.1-1.1,1.8-1.5
		c3.8-2.1,7.3-4.5,10.5-7.5c4-3.8,5.2-8.8,6.3-14c0.2-0.9,0.2-1.9,1.5-2.1c2.9-0.2,5.7-0.1,8.6-0.1c9.3,0,18.6,0,27.8,0
		c0.8,0,1.5-0.1,2.3,0.1c0.6,0.2,1.2,0.4,0.8,1.2c-1.8,5.4-4.4,10.6-7.2,15.6C261.3,219.4,259.6,222.6,257.2,225.5z"/>
	<path class="st16" d="M270.3,200.6c-0.2-1.2-1.2-0.7-1.9-0.7c-12.5,0-24.9,0-37.4,0c-0.3,0-0.6,0-0.9,0c-0.5-0.6-0.4-1.3-0.4-2
		c0-0.9,0.1-1.8,0.1-2.6c0.2-2.8-1.1-4.5-3.7-5.7c-4.9-2.2-9.6-4.9-14.5-7c-0.5-0.2-1.1-0.5-1.5-0.9c-0.5-0.4-0.7-0.8-0.2-1.3
		c0.8-0.5,1.7-0.4,2.6-0.4c20.2,0,40.4,0,60.6,0c0.6,0,1.3,0,1.9,0.1c0.8,0.2,1.2,0.7,0.8,1.5C274.7,188.1,272.9,194.5,270.3,200.6z
		"/>
	<path class="st17" d="M79.2,128.8c-0.5-0.9-1.4-0.7-2.2-0.7c-13.4,0-26.9,0-40.3,0c-0.9,0-1.9-0.1-2.8-0.4
		c1.7-7.5,4.1-14.8,7.4-21.8c0.7-0.6,1.5-0.6,2.3-0.6c11.8,0,23.5,0,35.3,0c0.9,0,1.9,0,2.7,0.6c0.6,0.7,0.4,1.4,0.1,2.1
		c-2.1,6.2-2.7,12.7-2.2,19.2C79.7,127.9,79.7,128.4,79.2,128.8z"/>
	<path class="st18" d="M81.8,106.3c-1-0.3-2-0.4-3.1-0.4c-12.5,0-24.9,0-37.4,0c2.1-5.1,4.6-9.9,7.6-14.4c13.2,0,26.5,0,39.7,0
		c0.9,0,1.9-0.1,2.6,0.7c0.1,0.7-0.3,1.1-0.8,1.5C87.2,97,85,101,83,105.1C82.7,105.6,82.6,106.3,81.8,106.3z"/>
	<path class="st12" d="M275.9,181.6c0-0.7-0.2-1.1-1-1.1c-0.4,0-0.8,0-1.2,0c-20.6,0-41.2,0-61.8,0c-0.7,0-1.5-0.3-2.1,0.4
		c-2.4-0.2-4.3-1.3-6-2.9c-0.4-0.7,0.2-0.8,0.6-0.9c0.5-0.1,1-0.1,1.6-0.1c22.9,0,45.8,0,68.7,0c0.7,0,1.7-0.5,2,0.8
		C276.6,179.1,276.4,180.4,275.9,181.6z"/>
	<path class="st0" d="M203.8,178c2,1,4,1.9,6,2.9c4.8,2.4,9.7,4.8,14.5,7.2c0.7,0.3,1.3,0.8,2,1c3.4,1.2,4.3,3.8,4,7.1
		c-0.1,1.2-0.1,2.4-0.2,3.7c-0.5,2-0.9,4.1-1.4,6.1c-1.1,5-3.9,8.8-7.8,12c-3.1,2.6-6.6,4.5-10.2,6.5c-6.9,3.2-14.2,3.7-21.6,3.2
		c-1.9-0.1-3.8-0.5-5.7-0.7c-7.5-2.1-14.9-4.7-22.2-7.7c-7.5-3-14.6-6.8-21.4-11.3c-0.6-0.4-1.2-0.7-1.8-1.1
		c-4.9-3.7-9.9-7.4-14.5-11.6c-3.5-3.2-6.8-6.5-10.2-9.8c-5.2-5.7-10.1-11.5-14.8-17.6c-3.9-5.7-8.2-11.2-11.6-17.2
		c-3-6-5.8-12.1-7.1-18.7c-0.2-1-0.4-2.1-0.6-3.1c-0.9-7.7-0.1-15.2,2.6-22.5c1.8-3.8,3.9-7.4,6.4-10.8c0.9-1.2,2.3-2,3-3.3
		c2.4-2.1,4.7-4.2,8-4.7c4.2-0.6,8.4-0.3,12.6,0c1.6,0.1,2.7,1.3,3.6,2.6c0.8,1.3,1.5,2.6,2.2,3.9c1.7,4.9,3.9,9.6,5.8,14.4
		c0.5,1.2,1,2.3,1.6,3.5c0.9,3,2.2,5.9,3.6,8.7c1.3,2.8,1.7,5.4,0.3,8.2c-2.4,4.7-6,8.5-9.5,12.3c-2.7,3-2.8,4.9-0.4,8.2
		c1.9,3.6,4.3,6.8,6.7,10c2.4,3.2,4.9,6.4,7.8,9.2c4.1,4.7,9,8.6,14.1,12.3c0.7-0.1,1.2,0.4,1.7,0.7c6.3,4.5,13.3,7.8,20.4,10.9
		c3.5,1.5,5.2,1.1,7.7-1.9c2.4-2.9,4.9-5.7,7.2-8.6c0.4-0.4,0.6-1,1.3-1.1c1.1-1.1,1.9-2.4,2.8-3.6c2.3-3.2,3.6-3.7,7.4-2.5
		C198.8,175.6,201.2,177.1,203.8,178z"/>
	<path class="st16" d="M185.9,180.9c-2.8,3.9-6,7.5-9.1,11.1c-1.7,1.9-3.7,2.3-6,1.4c-8.1-3.4-16.1-7.1-23.2-12.4
		c1-0.6,2-0.7,3.2-0.7c10.9,0,21.9,0,32.8,0C184.3,180.2,185.2,180.1,185.9,180.9z"/>
</g>
</svg>
