<svg xmlns="http://www.w3.org/2000/svg" viewBox="0 0 241.71271 283.25565"><title>YouTube 2</title><g id="bef47347-149a-4fbe-bc18-4512041de0e2" data-name="Layer 2"><g id="abc38cef-60ff-4c64-bd0a-77171862293b" data-name="Layer 1"><path d="M77.26876,189.24438C68.80152,182.021,59.30164,168.745,63.1342,147.90547c7.10254-38.62008,67.3654-28.77929,75.46452-19.9759,20.41981,22.19545,13.86034,27.99533,8.87818,52.38125C144.98581,192.50379,90.21264,200.28673,77.26876,189.24438Z" fill="#df2f2f"/><path d="M94.6585,226.701c.01142-.79292-.02971-1.59066.04306-2.37789.37-4.00115,1.01822-9.06165-3.57687-10.12632-4.24993-.98454-10.018-2.66328-13.08259,3.36681-.23278.458-.91772.68618-1.412,1.03507-2.4819-1.47181,1.03135-3.04716-.32121-4.71657-3.711.11848-2.9114,6.09717-7.49658,5.74.73726-1.49274,1.36649-2.76667,2.05369-4.158-.6837-.19963-1.29784-.60677-1.74505-.46962a6.645,6.645,0,0,0-3.7935,3.59991c-4.46684,8.68782-12.38186,14.39067-18.54457,21.604-2.70039,3.16061-6.26432,2.393-9.32858.99642-2.70258-1.23171-1.58869-4.10913-1.27951-6.35222.57364-4.16228,3.09645-7.27018,6.07482-9.95037,3.81756-3.43535,7.821-6.664,12.49481-10.61622-3.90753-.12482-4.25759-2.24271-4.1721-4.934.1638-5.156-.10929-10.32748.10591-15.4797.12774-3.05912-.66391-3.75222-3.63651-2.78613-4.30848,1.40014-8.50318,3.29667-13.10979,3.65248q-.0082-.62319-.01648-1.24629c-1.24323-2.87517-5.26523-1.75632-6.62895-5.21063,1.87148-1.49463,4.91153-2.31811,5.73162-5.40012-2.97177-1.47079-5.92914-1.62726-9.385.929A53.63585,53.63585,0,0,1,4.183,192.4381q-.61837-.59748-1.23667-1.19489c7.87233-1.67079,12.80647-7.451,17.98155-12.88292.94549-.99241,2.44-2.13743,1.90837-3.45751-.5829-1.44739-2.52215-.52577-5.16119-1.31483,3.544-3.19583,6.191-6.79428,9.74706-8.52836,6.666-3.25059,5.45773-9.82862,7.53052-14.9828.4856-1.20744-1.472-1.518-2.354-1.69289-4.869-.96565-9.78767-1.67772-14.66968-2.58249a23.22925,23.22925,0,0,1-5.71182-1.563c-2.3059-1.09347-5.13527-2.5195-4.44967-5.57315.59646-2.65649,3.67869-3.39561,5.934-4.40348,2.00414-.8958,1.203,2.02741,2.93268,2.69937,9.59581,3.72795,19.335,5.93873,29.69277,5.16972,3.22237-.2393,4.55087-1.44907,4.36327-4.80771-.187-3.34669-1.08111-6.54944-.21772-10.12595,2.003-8.29672-1.40725-14.021-9.00707-18.29339A40.69054,40.69054,0,0,1,23.24223,89.12415c11.838,4.07836,19.12091,11.7877,27.14822,17.62756-.02825-1.56689.91739-2.74866,3.82813-2.62777,6.35761.26394,12.73815-.06074,19.10061.13715,3.57661.11126,4.93964-.55392,4.05215-4.64891a77.74107,77.74107,0,0,0-7.14605-19.5149C63.39145,66.97419,59.2763,52.844,54.6951,38.89294c-.99056-3.01676-2.55526-7.14926,1.88406-8.767,4.38339-1.59733,7.18174,1.21425,8.60211,5.20585.99373,2.79255,1.59755,5.72174,2.43284,8.57313,5.911,20.17921,11.50684,40.48572,26.13827,56.67668,2.146,2.37476,4.1573,3.87545,7.55444,3.71985,2.959-.13547,5.00956-.25468,4.61762-4.10818-.29985-2.94815.31819-4.2718,3.50848-1.69128,2.93364,2.37308,5.50785-.13052,7.83351-2.06532,2.87428-2.39124-.81374-2.98606-1.24666-4.45693-.442-1.50185-1.46507-2.82317-2.02-4.30374-.63212-1.68661-2.56237-3.95937.05694-5.03862,2.16368-.89157,3.29292,1.61028,4.32109,3.28887.30543.49857.31276,1.19372.6521,1.655.7713,1.04863.32916,3.189,2.08088,3.19554,2.06485.00758,1.468-2.544,2.63095-3.54676a1.95161,1.95161,0,0,0,2.16506-1.24819c1.17531-2.51023,2.29055-5.05094,3.54636-7.52027a3.7005,3.7005,0,0,1,4.408-2.19482,3.6436,3.6436,0,0,1,3.1088,3.79547c.11018,3.76571.06843,7.53923.2945,11.29721.22362,3.71636-.127,7.579,2.19791,11.27024,2.20152-2.58752,4.67107-6.46377,5.67395.53416.21228,1.48107,1.94647.987,3.04519,1.01509,2.7811.071,5.57766.1946,8.34524-.01065,4.68416-.34721,8.38691.00737,7.287,6.36665-.43977,2.54254,1.15064,3.156,3.29838,2.08071,2.47783-1.24032,4.92105-2.5561,7.33009-3.92576,2.4764-1.40779,5.059-1.96164,7.00784.45578,2.06335,2.55923.46751,5.04854-1.43849,6.826a67.34171,67.34171,0,0,1-7.1641,5.28055c-8.70714,6.17926-11.69411,14.11353-8.88855,24.17415.34451,1.23543,1.0195,1.75647.42745,3.55259-.81337,2.468.27871,6.08572,4.74107,4.62,5.48408-1.80145,8.49362-1.10754,6.798,5.78583-.69945,2.844,1.55427,4.76644,3.79837,6.218,1.997,1.29187,4.12824,2.37586,6.127,3.66525,1.75916,1.13488,2.95019,2.70017,2.621,4.95725a3.90308,3.90308,0,0,1-4.15237,3.558c-8.16621-1.06919-12.2947,6.32932-18.797,8.759-1.934.72264-2.01763,4.61886-.22821,7.10875l.07823-.10791c-3.316,3.349-1.39011,7.51649-1.52737,11.25763-.32858,8.95789-.10886,8.85428-8.72027,9.05333-2.09638.04842-5.30993-1.55748-6.16479,1.29034-.81065,2.70046,1.8122,4.03082,4.28879,4.6952a1.63319,1.63319,0,0,1,1.30684,1.74276c-.47673,7.84473,4.595,14.21656,6.23505,22.61a10.40089,10.40089,0,0,1-6.35685-6.27777c-4.26957-9.80287-11.38423-17.026-20.33028-22.61536-5.69414-3.55769-12.381-.41611-17.17415,3.33553-5.367,4.20079-10.93178,7.02914-12.65609,14.492-.45242,1.95828-3.96957.38082-4.85105-1.93751a40.03523,40.03523,0,0,1-1.32453-6.22287c-2.10881,1.45541-1.8546,3.58854-2.24246,5.46874Q95.25692,228.56807,94.6585,226.701Zm11.24239-45.61219c8.71812-.11244,17.45826.98038,26.19314-.38826,4.45354-.69778,6.94456-3.00473,7.86541-6.95426a75.13808,75.13808,0,0,0,.05691-34.82814c-1.14229-4.806-4.13167-7.21535-9.36766-7.4521q-24.76248-1.11972-49.50274.02027c-5.44515.25315-8.06067,3.499-8.97331,8.00383a82.09506,82.09506,0,0,0-.07171,33.16595c1.0927,5.28492,4.27647,8.41192,9.93674,8.42724C89.992,181.10494,97.94646,181.08876,105.90089,181.08876ZM50.09311,164.02642c-1.11086-3.95741,3.5737-9.01943-2.22368-11.56816a3.96261,3.96261,0,0,0-5.65379,2.66488C40.48594,161.44553,48.09239,160.261,50.09311,164.02642Zm.41152,7.39362c-.06478-1.34341.78782-3.63352-1.87735-3.112-3.23641.63346-6.61295,1.68289-7.77737,5.26312-.424,1.30382.21885,3.88967,2.2584,3.04264C45.83021,175.48353,50.995,177.31035,50.50463,171.42Zm-.5421,13.958c-4.40487-.85839-7.827,1.79949-11.71144.51688-1.68479-.55632-2.21176,2.28792-2.13823,4.08405.04582,1.1195.14575,2.5943,1.97392,1.79948C41.91356,190.11453,46.6208,190.1555,49.96253,185.37805Z" fill="#fff"/><path d="M66.76172,279.41483c-6.78254,1.27707-10.73837-3.30272-13.09458-8.09227-2.23718-4.54785-.6086-9.745,3.39444-13.54066,3.74075-3.54691,11.92868-5.21471,16.1202-2.68843,4.95948,2.989,5.826,9.189,9.35538,13.38623.12351.14692-.12713.90127-.37645,1.02581C76.63653,272.26248,75.3525,281.53105,66.76172,279.41483Z" fill="#fff"/><path d="M138.01807,0c6.7618.14641,13.26648,11.56656,10.28844,17.01054a3.371,3.371,0,0,1-2.6927,2.11741c-4.41548.01006-7.97981-2.093-11.07236-5.03071-2.88668-2.74209-3.47811-6.242-2.39321-9.88184A5.79948,5.79948,0,0,1,138.01807,0Z" fill="#fff"/><path d="M215.67016,227.04641c-.37762,3.58927-2.80684,5.14391-5.9606,5.29878-2.81559.13831-4.27858-1.90514-4.28-4.5725-.002-3.69666,2.59065-5.20209,5.78539-5.30118C213.98026,222.38584,215.24129,224.45124,215.67016,227.04641Z" fill="#fff"/><path d="M232.10975,17.96733c-.283,3.02164-2.16149,4.28409-4.70854,4.43928-2.45789.14973-4.30432-1.2553-4.37643-3.71883-.09027-3.08183,1.96965-4.38088,4.94237-4.48113C230.742,14.11306,231.68044,15.80208,232.10975,17.96733Z" fill="#fff"/><path d="M26.16525,42.78093c2.20229.15224,4.07224.89354,3.79922,3.48391a3.39142,3.39142,0,0,1-3.60684,3.22747c-2.45274.08166-3.892-1.17579-4.1057-3.36936C21.997,43.50554,23.97073,42.87047,26.16525,42.78093Z" fill="#fff"/><path d="M241.71153,51.0452a3.42972,3.42972,0,0,1-3.82878,2.89463c-2.1122-.03806-3.4605-1.12263-3.33079-3.30716.16318-2.74728,2.26474-2.914,4.35346-2.78395C240.79655,47.9664,241.75105,49.05455,241.71153,51.0452Z" fill="#fff"/><path d="M89.94372,255.35092c.17113-1.64782.49639-3.52685,2.62992-3.04986,1.91429.42822,1.06117,2.27684.80474,3.52037-.72016,3.49243-1.58282,6.95542-2.38924,10.43006C88.96433,262.77881,90.68867,258.94646,89.94372,255.35092Z" fill="#fff"/><path d="M132.41423,270.16442c-1.92212-.33948-3.44224-1.09048-3.36714-2.99817.0805-2.04344,1.45242-3.17169,3.55511-3.231,1.94811-.055,3.059.87925,2.92671,2.8589C135.39548,268.791,134.45687,270.16573,132.41423,270.16442Z" fill="#fff"/><path d="M89.1138,272.78a21.03262,21.03262,0,0,1-4.82091,10.47564c-.15337-5.023.58013-8.865,3.52933-12.0461Q88.468,271.99471,89.1138,272.78Z" fill="#fff"/><path d="M233.18244,243.73158c1.6355.22078,2.72562,1.00969,2.49018,2.71023-.22923,1.65592-1.06722,3.18686-2.98781,3.03914a2.77581,2.77581,0,0,1-2.82616-3.142C230.05522,244.46719,231.45245,243.76329,233.18244,243.73158Z" fill="#fff"/><path d="M59.89664,233.3166a27.96721,27.96721,0,0,1-7.83281,11.23262C52.80054,238.57265,56.65506,236.11878,59.89664,233.3166Z" fill="#fff"/><path d="M192.828,236.68757c-.16231,2.25132-1.724,2.43652-3.379,2.37009-1.28691-.05177-2.39992-.54757-2.22529-2.08056a2.81174,2.81174,0,0,1,3.10542-2.82747A2.28792,2.28792,0,0,1,192.828,236.68757Z" fill="#fff"/><path d="M94.6585,226.701q.59842,1.867,1.19683,3.73415c.45446,3.53319.05038,6.91087-2.06357,11.80053C93.55293,235.84171,93.15326,231.22846,94.6585,226.701Z" fill="#fff"/><path d="M131.8508,60.51494q-1.59925,4.96009-3.19849,9.92026c-1.52716-4.11132-.42665-7.43795,1.55019-10.51668Q131.02664,60.21677,131.8508,60.51494Z" fill="#fff"/><path d="M89.1138,272.78q-.64578-.78526-1.29158-1.57046c2.348-5.06626-.10382-10.77473,2.12169-15.858.74476,3.595-.97958,7.42731,1.04523,10.9C90.45717,268.4544,90.478,270.81618,89.1138,272.78Z" fill="#fff"/><path d="M165.29426,193.651c3.18339-1.78533,5.84488-1.96222,7.45432,2.63208-3.108-.00059-5.53585-.518-7.37613-2.74159Z" fill="#fff"/><path d="M13.31416,176.83117a2.576,2.576,0,0,1,2.43313,2.19584c.44247,1.74756-1.195,1.84221-2.21636,2.00516a2.0542,2.0542,0,0,1-2.41483-1.97607C10.94815,177.59223,11.90669,176.94346,13.31416,176.83117Z" fill="#fff"/><path d="M231.85208,114.67111a3.68248,3.68248,0,0,1-2.64629,3.03476c-1.34976.54408-1.92482-.20481-1.859-1.34414.09391-1.6269,1.331-2.38891,2.77608-2.66568C230.87031,113.55277,231.72353,113.69838,231.85208,114.67111Z" fill="#fff"/><path d="M197.01162,204.997c-2.63907,1.07583-4.43666-.36405-6.84365-1.47364C193.17066,202.22734,195.11939,203.05687,197.01162,204.997Z" fill="#fff"/><path d="M184.59548,143.49482c-1.93794,1.35559-4.07377,1.04863-7.231,1.03471,2.40057-1.62588,4.00873-2.38541,5.9649-2.27655Q183.96246,142.87386,184.59548,143.49482Z" fill="#fff"/><path d="M33.79424,218.31142c1.97852-1.53875,3.44475-2.89427,5.88459-3.30294C37.4484,217.85083,37.4484,217.85083,33.79424,218.31142Z" fill="#fff"/><path d="M23.88134,116.84485c2.90414.62376,4.42608,1.2985,5.44161,3.54588C26.47243,120.86255,25.40313,119.36616,23.88134,116.84485Z" fill="#fff"/><path d="M136.572,21.52823c.74385,1.26081,1.95074,2.38352,1.216,4.13808-2.01694.10478-1.90094-1.64133-2.44534-2.79853Q135.95737,22.198,136.572,21.52823Z" fill="#fff"/><path d="M136.572,21.52823q-.6146.66978-1.22931,1.33955a6.10141,6.10141,0,0,1-1.787-4.59775A4.95315,4.95315,0,0,1,136.572,21.52823Z" fill="#fff"/><path d="M125.90682,85.98191a1.95161,1.95161,0,0,1-2.16506,1.24819c-.0793-1.33029-.1587-2.66065-.25545-4.282C125.50143,83.32388,123.91321,86.06379,125.90682,85.98191Z" fill="#fff"/><path d="M2.94629,191.24321q.61831.59748,1.23667,1.19489A3.57969,3.57969,0,0,1,0,193.28819C.4312,191.74252,1.69288,191.49877,2.94629,191.24321Z" fill="#fff"/><path d="M184.59548,143.49482q-.633-.62088-1.26605-1.24184c1.70506-.12848,3.434-.67867,5.13006.27233C187.37134,143.798,185.88757,143.26347,184.59548,143.49482Z" fill="#fff"/><path d="M33.91542,193.48229q.00827.62317.01648,1.24629c-1.07076.86307-2.16233,1.5752-3.53061.507A4.3597,4.3597,0,0,1,33.91542,193.48229Z" fill="#fff"/><path d="M50.09311,164.02642c-2.00072-3.76543-9.60717-2.58089-7.87747-8.90328a3.96261,3.96261,0,0,1,5.65379-2.66488C53.66681,155.007,48.98225,160.069,50.09311,164.02642Z" fill="#df2f2f"/><path d="M50.50463,171.42c.49041,5.89031-4.67442,4.06349-7.39632,5.19378-2.03955.847-2.68242-1.73882-2.2584-3.04264,1.16442-3.58023,4.541-4.62966,7.77737-5.26312C51.29245,167.78652,50.43985,170.07663,50.50463,171.42Z" fill="#df2f2f"/><path d="M49.96253,185.37805c-3.34173,4.77745-8.049,4.73648-11.87575,6.40041-1.82817.79482-1.9281-.68-1.97392-1.79948-.07353-1.79613.45344-4.64037,2.13823-4.08405C42.13551,187.17754,45.55766,184.51966,49.96253,185.37805Z" fill="#df2f2f"/><path d="M98.64981,155.62507a25.63932,25.63932,0,0,1,.0443-4.14924c.44148-2.60786-1.73452-6.29585.976-7.60995,2.49277-1.2086,4.82736,2.06094,7.07336,3.48777,13.72779,8.721,13.73483,8.86864.43383,17.29413-2.37385,1.50374-4.91693,5.04861-7.58232,3.45226-2.49573-1.49449-.54586-5.46851-.91867-8.323A31.57878,31.57878,0,0,1,98.64981,155.62507Z" fill="#fff"/></g></g></svg>